<svg width="66" height="89" viewBox="0 0 66 89" fill="none" xmlns="http://www.w3.org/2000/svg">
<path d="M15.0797 32.7354L16.5954 21.4385L3.42682 12.3916L15.4586 16.4229L18.3008 12.1104L28.6746 5.73535L51.554 18.2041L52.7381 37.2354L42.5537 51.251L34.501 52.4697L38.6695 44.9228V37.6572L35.6379 31.9854L32.5589 29.9697L27.822 34.7978V39.9072L24.1272 43.3291L19.4376 43.8916L17.3534 45.0635L13.9428 43.9854L12.5217 38.9228L15.0797 35.3604V32.7354Z" fill="white"/>
<path d="M36.1073 12.2974C33.5967 11.7819 30.8493 11.9224 30.8493 11.9224C30.8493 11.9224 29.9493 16.0474 24.3597 17.1255C24.407 17.1255 31.7494 19.61 36.1073 12.2974Z" fill="#94A6C3"/>
<path d="M38.3842 49.7037C41.4158 47.3599 43.6895 44.1256 44.7317 40.4694C44.7791 40.3287 45.2054 40.0944 45.4896 39.9068C45.9632 39.6256 46.437 39.3913 46.5317 39.0163C46.7212 37.938 46.8159 36.813 46.8159 35.688C46.8159 35.2663 46.3896 34.8444 45.9632 34.4225C45.6317 34.1413 45.3001 33.813 45.3001 33.5787C44.8264 29.313 42.837 25.3287 39.6632 22.4225L39.3316 22.7506C42.4106 25.6099 44.4002 29.5006 44.8264 33.6256C44.8738 34.0006 45.2527 34.3756 45.6317 34.7506C45.9632 35.0318 46.3423 35.4537 46.3423 35.6413C46.3423 36.7194 46.2475 37.7975 46.0581 38.8756C46.0107 39.063 45.5843 39.2506 45.2527 39.438C44.7791 39.6725 44.3527 39.9068 44.258 40.2818C43.1212 44.2663 40.5158 47.7349 37.0579 49.9849C37.6737 48.6725 39.6159 44.4068 40.658 42.2506L40.4684 35.313L34.4525 29.5475L31.042 30.0163L27.2998 36.0163C27.2998 36.0163 29.0525 38.2194 26.5893 40.7975C24.1734 43.3287 22.2786 43.8913 22.2786 43.8913L20.526 42.9537C21.0471 42.2975 22.0892 41.313 22.8944 40.6568C24.2682 39.5318 25.6419 39.438 25.6419 38.2194C25.6893 35.688 22.9419 36.3913 22.9419 36.3913L21.9471 37.3287L21.5208 40.7975L19.4366 43.3756L19.1997 43.3287L15.7891 42.5787C15.7891 42.5787 17.8734 41.5006 18.205 40.2818C18.5365 39.1099 17.5418 35.2194 17.4943 34.9849C17.5418 35.0318 18.4892 35.8287 18.9155 37.1413C19.6733 35.0787 20.6681 33.1099 20.9523 32.9225C21.2365 32.7349 25.0734 30.7194 25.0734 30.7194L23.7945 34.0475L24.7419 33.5318L27.0156 28.0006C27.0156 28.0006 29.2419 26.9225 30.8998 26.9225C33.8842 26.8756 38.2894 23.2663 36.2999 16.7975C36.8684 17.0318 46.7212 21.9068 48.4265 31.4694C49.7054 38.8287 45.4896 45.7194 38.3842 49.7037Z" fill="#94A6C3"/>
<path d="M27.1091 13.3291C28.1985 12.0635 27.7722 10.1885 27.7722 10.1885L24.5985 14.8291C24.5511 14.8291 25.7353 14.876 27.1091 13.3291Z" fill="#0A192B"/>
<path d="M16.4506 38.6886L16.8295 36.8136C16.8295 36.8136 15.2663 39.5323 15.1243 39.9073C14.9821 40.3292 15.219 41.0792 15.8348 41.0323C16.4506 40.9854 17.2085 40.0948 17.2085 39.4386C17.2085 38.5948 16.4506 38.6886 16.4506 38.6886Z" fill="#0A192B"/>
<path d="M44.588 8.87589C44.588 8.87589 46.9565 8.96965 49.4198 9.25089C43.8775 4.93839 38.6196 3.67277 34.3564 3.67277C28.4825 3.67277 24.5035 6.06339 24.2667 6.20403L26.1141 3.29777C26.1141 3.29777 18.7245 2.59465 16.1192 10.329C15.4559 8.68839 14.8402 6.29777 14.8402 6.29777C14.8402 6.29777 11.0033 9.62589 12.8033 15.1572C8.39799 13.5634 2.09788 11.3603 1.86104 11.3134C1.52945 11.2665 1.43471 11.4072 1.43471 11.4072C1.43471 11.4072 1.33997 11.5478 1.62419 11.7822C2.14525 12.204 12.0928 19.4696 14.2718 20.8759C13.798 22.5634 13.798 23.3603 14.2718 24.1572C14.9349 25.2353 14.9823 25.7977 14.8876 26.5946C14.7928 27.3915 13.9402 34.2822 13.7507 35.1259C13.5613 35.9696 11.5717 38.9696 11.6665 39.8603C11.7612 40.7509 12.9928 44.5477 14.0823 44.9696C14.8876 45.2509 16.8771 45.8603 18.2034 45.8603C18.6771 45.8603 19.1034 45.7665 19.293 45.5791C20.0982 44.8759 20.335 44.7353 20.9035 44.7353C20.9509 44.7353 20.9982 44.7353 21.0456 44.7353C21.2824 44.7353 21.5667 44.7822 21.8982 44.7822C22.6561 44.7822 23.6509 44.6415 24.3614 43.9853C25.4036 42.9541 27.2035 41.5477 27.772 40.8915C28.4825 40.0009 28.8614 38.7822 28.672 37.5634C28.5299 36.4384 29.1457 35.4541 29.8562 34.4696C30.7562 33.2977 32.4141 31.1884 32.4141 31.1884C35.6827 33.6259 37.7195 37.3291 37.7195 41.4541C37.7195 48.7665 31.2773 54.6727 23.3193 54.6727C22.0877 54.6727 20.9035 54.5322 19.7192 54.2509C23.3666 55.5165 26.4457 55.9384 28.9563 55.9384C34.3089 55.9384 37.1511 54.0165 37.1511 54.0165C37.1511 54.0165 36.1563 55.2822 34.5458 56.7353C34.5931 56.7353 34.5931 56.7353 34.5931 56.7353C43.4512 55.5165 47.7618 48.2977 47.7618 48.2977C47.7618 48.2977 47.4302 50.6415 47.0039 52.2353C58.7988 43.4696 56.8094 32.5009 56.7619 32.1259C56.8567 32.2665 58.0409 33.6727 58.6567 34.4227C60.5514 15.1103 44.588 8.87589 44.588 8.87589ZM26.4457 39.7196C26.2562 39.9541 25.4509 40.6572 24.8825 41.1727C24.314 41.6884 23.6982 42.2041 23.2246 42.6727C23.0351 42.8603 22.6561 42.9541 22.0877 42.9541C21.8982 42.9541 21.7087 42.9541 21.5667 42.9541C21.4719 42.9541 21.3771 42.9541 21.2824 42.9541C21.1876 42.9541 21.1403 42.9541 21.0929 42.9541C20.9509 42.9541 20.8087 42.9541 20.6666 42.9541C21.3771 42.0165 23.4613 39.8603 24.172 39.3915C25.0245 38.8291 25.4509 38.2665 24.9298 37.2822C24.4087 36.2977 23.0351 36.5322 23.0351 36.5322C23.0351 36.5322 23.8404 36.2041 24.5509 36.2041C23.6509 35.9696 22.5141 36.2041 21.993 36.7196C21.4245 37.2353 21.5192 39.0634 21.2824 40.2353C21.0456 41.4541 20.2402 42.0634 19.0087 43.1884C18.3456 43.7977 17.8718 43.9853 17.4929 43.9853C16.6876 43.8446 15.7402 43.6103 15.077 43.3759C14.6034 42.7665 13.8928 40.7509 13.7033 39.9072C13.8454 39.4384 14.4138 38.4541 14.6981 37.8915C15.2665 36.8134 15.5981 36.2041 15.6928 35.6415C15.8823 34.8446 16.4981 29.9227 16.7349 27.8603C17.3507 28.6572 18.2034 29.9696 18.014 30.8134C19.3877 28.8915 18.3929 27.0165 17.9192 26.2665C17.4929 25.5165 16.9244 24.0165 17.3982 22.4227C17.8718 20.8291 19.5771 16.4227 19.5771 16.4227C19.5771 16.4227 20.1455 17.4072 20.9509 17.2196C21.7561 17.0322 28.2456 7.37589 28.2456 7.37589C28.2456 7.37589 29.9984 11.1727 28.1509 13.9384C26.2562 16.7041 24.4087 17.2196 24.4087 17.2196C24.4087 17.2196 27.0141 17.6884 29.4299 15.954C30.4246 18.2509 31.372 20.6415 31.4194 20.9696C31.2773 21.2977 29.3825 25.7977 29.193 26.0791C29.0983 26.1727 28.4352 26.3603 27.9615 26.4541C27.1562 26.6884 26.6825 26.8291 26.493 26.9696C26.1614 27.2509 24.6456 31.3759 23.9351 33.3915C23.0824 33.6259 22.2298 34.0946 21.614 35.0322C21.9456 34.7977 22.9877 34.6572 23.7456 34.5634C24.4087 34.5165 26.4457 35.5946 26.9667 37.6103C26.9667 37.6572 26.9667 37.6572 26.9667 37.7041C27.0615 38.4541 26.8246 39.1572 26.4457 39.7196ZM21.993 40.2822C22.4192 39.6727 22.3719 38.6415 22.4192 38.3134C22.4666 37.9853 22.5614 37.3759 22.9403 37.2822C23.3193 37.1884 24.2193 37.3291 24.2193 37.9853C24.2193 38.5946 23.5562 38.7353 23.0824 39.1572C22.7508 39.4853 22.0877 40.1884 21.993 40.2822ZM40.8933 31.3291C41.3669 28.9384 41.4144 26.8759 41.2722 25.1884C43.1196 27.6259 44.2564 30.5791 44.588 33.6259C44.6355 34.0009 45.0144 34.3759 45.3933 34.7509C45.7249 35.0322 46.1039 35.4072 46.1039 35.6415C46.1039 36.7196 46.0091 37.7977 45.8196 38.8759C45.7723 39.0165 45.346 39.2509 45.0144 39.4384C44.5407 39.6727 44.1144 39.9072 44.0197 40.2822C42.9775 43.8915 40.7511 47.0791 37.7669 49.3291C42.1722 44.7822 44.3039 37.2822 40.8933 31.3291ZM37.909 49.7509C40.988 47.4072 43.3565 44.1259 44.3986 40.4227C44.4459 40.2822 44.8722 40.0477 45.1565 39.8603C45.6302 39.6259 46.1039 39.3446 46.1987 38.9696C46.3881 37.8915 46.4828 36.7665 46.4828 35.6415C46.4828 35.2196 46.0565 34.7977 45.6302 34.3759C45.3933 34.0946 45.0144 33.7665 45.0144 33.5322C44.6355 30.1103 43.2617 26.8759 41.1301 24.2041C40.1828 18.5791 36.3932 16.8446 36.2985 16.7977C36.3932 16.9384 38.8564 20.4541 37.1511 24.5791C35.3985 28.7509 30.8984 28.0946 30.5195 28.1415C30.1404 28.1415 28.672 30.0165 26.8246 33.4853C26.5877 33.3915 25.593 33.1572 24.4562 33.3446C25.3088 31.0009 26.5877 27.6727 26.8246 27.3915C26.9193 27.2977 27.6298 27.1103 28.1036 26.9696C29.0036 26.7353 29.4299 26.5946 29.5721 26.4072C29.6668 26.2665 30.1404 25.1884 30.6142 24.0634C31.0404 24.0634 32.13 23.9696 32.2247 23.9227C32.3194 23.8291 33.2194 21.5322 33.2194 21.2509C33.2194 21.0165 31.372 16.4696 30.6615 14.7353C30.9931 14.3603 31.3247 13.8915 31.6563 13.3759C41.3669 14.4072 48.946 22.5634 48.946 32.4541C48.946 40.0477 44.4459 46.6572 37.909 49.7509Z" fill="#0A192B"/>
<path d="M25.3089 24.4387C26.2088 23.4075 25.7352 21.4856 24.0773 21.1575C24.5035 20.173 25.1194 18.2043 25.1194 18.2043C25.1194 18.2043 20.2877 25.7043 19.8614 25.8449C19.435 25.9856 19.0087 24.3449 19.0087 24.3449C18.1087 27.7668 20.5246 28.2356 20.8088 27.1575C22.1351 26.8293 24.4088 25.423 25.3089 24.4387Z" fill="#0A192B"/>
<path d="M21.1879 26.2667L23.6511 22.095C23.6511 22.095 25.0721 22.7981 24.3616 23.9231C23.4616 25.2355 21.1879 26.2667 21.1879 26.2667Z" fill="#FFD923"/>
<path d="M51.6469 45.579C50.9364 46.5165 50.131 47.5009 49.1836 48.4384C55.2943 36.8134 49.4679 26.1727 49.231 25.7509C49.6573 26.1727 50.0837 26.6415 50.4626 27.0633C55.1522 32.2196 55.7206 39.954 51.6469 45.579Z" fill="#D82122"/>
<path d="M57.3301 30.626C55.1985 24.9541 52.1669 20.126 45.4878 15.7666C39.0456 11.5479 32.1297 11.876 31.7507 11.9229C31.7034 11.9229 31.6559 11.9229 31.6559 11.9229C31.8928 11.8291 32.1297 11.7822 32.3665 11.7353C33.8349 11.2666 35.7297 10.8916 37.6245 10.6572C42.6456 9.95412 47.7142 11.6416 51.172 15.251C51.2195 15.2979 51.2195 15.2979 51.2668 15.3448C55.1985 19.4698 57.2353 24.626 57.3301 30.626Z" fill="#D82122"/>
<path d="M43.9669 7.42285C36.9089 6.11035 32.3614 6.76659 29.093 7.98535C28.9982 7.61035 28.6666 6.86035 28.3824 6.25097C27.3876 7.42285 26.3455 8.82909 25.6824 9.71973C23.8823 10.9385 23.1244 12.1103 23.1244 12.1103C24.1665 8.59473 27.1982 5.96973 30.8929 5.31347C31.935 5.12597 33.0719 5.03223 34.3036 5.03223C37.572 5.07909 40.8405 5.87597 43.9669 7.42285Z" fill="#D82122"/>
<path d="M17.8655 16.4232C12.3233 16.2357 14.1707 9.86072 14.2655 9.48572C14.2655 9.5326 14.6444 14.5014 17.8655 16.4232Z" fill="#D82122"/>
<path d="M23.3215 4.93823C19.0583 7.46949 19.911 13.5164 19.911 13.5164C15.8372 7.37573 22.9901 5.07885 23.3215 4.93823Z" fill="#D82122"/>
<path d="M16.3096 18.1104C16.5938 18.3449 16.878 18.7667 16.5465 19.3761C16.357 19.7042 16.0728 19.6573 15.6464 19.4699C15.0781 19.1886 11.6674 17.2199 8.58844 15.2042C12.0937 16.423 15.6464 17.7354 16.2149 18.0167C16.2149 18.0167 16.2622 18.0636 16.3096 18.1104Z" fill="white"/>
<g clip-path="url(#clip0_4_25377)">
<path d="M12.4968 67.2501H15.6465V79.6787H18.7963V64.1429H15.6465C13.9142 64.1429 12.4968 65.5412 12.4968 67.2501Z" fill="white"/>
<path d="M21.9459 79.6786H25.0956V73.4643C25.0956 71.7554 23.6782 70.3572 21.9459 70.3572V79.6786Z" fill="white"/>
<path d="M28.2452 70.3572V79.6786H31.3949V73.4643H34.5447V76.5714C34.5447 78.2804 35.9623 79.6786 37.6943 79.6786V73.4643C37.6943 71.7554 36.2773 70.3572 34.5447 70.3572H28.2452Z" fill="white"/>
<path d="M56.593 70.3572H53.4433V67.2501C53.4433 65.5412 52.0262 64.1429 50.2937 64.1429V76.5715H43.9944V73.4644H47.144V70.3572H43.9944C42.2618 70.3572 40.8442 71.7554 40.8442 73.4644V76.5715C40.8442 78.2804 42.2618 79.6787 43.9944 79.6787H53.4433V73.4644H56.593V76.5715C56.593 78.2804 58.0106 79.6787 59.7426 79.6787V73.4644C59.7426 71.7554 58.3255 70.3572 56.593 70.3572Z" fill="white"/>
<path d="M21.9459 67.2501H25.0956C25.0956 65.5412 23.6782 64.1429 21.9459 64.1429V67.2501Z" fill="white"/>
<path fill-rule="evenodd" clip-rule="evenodd" d="M17.4074 82.7858V84.7941H17.1188L15.9851 83.4026V84.7941H15.6465V82.7858H15.9351L17.0688 84.183V82.7858H17.4074ZM23.8145 84.7941H22.5925V82.7858H23.7851V83.1157H22.9546V83.6149H23.6967V83.9449H22.9546V84.4641H23.8145V84.7941ZM28.9996 83.1157H29.668V84.7941H30.0302V83.1157H30.6987V82.7858H28.9996V83.1157ZM38.4072 82.7858H38.7548L38.1658 84.7941H37.827L37.3295 83.3424L36.8408 84.7941H36.4992L35.8836 82.7858H36.29L36.7052 84.2174L37.1644 82.7858H37.524L37.9948 84.2202L38.4072 82.7858ZM44.2401 83.0841C44.0402 83.2831 43.9399 83.5288 43.9399 83.8214C43.9399 84.1294 44.0413 84.379 44.2434 84.5703C44.4455 84.7615 44.7016 84.8572 45.0116 84.8572C45.32 84.8572 45.576 84.7596 45.7804 84.5645C45.9847 84.3694 46.0865 84.1218 46.0865 83.8214C46.0865 83.5154 45.9847 83.2658 45.7804 83.0727C45.5782 82.8814 45.3221 82.7858 45.0116 82.7858C44.7016 82.7858 44.4444 82.8852 44.2401 83.0841ZM44.5202 84.3264C44.3883 84.1925 44.3229 84.0242 44.3229 83.8214C44.3229 83.6149 44.3878 83.4456 44.5169 83.3137C44.6487 83.1817 44.8133 83.1157 45.0116 83.1157C45.2061 83.1157 45.3701 83.1817 45.5036 83.3137C45.6371 83.4476 45.7041 83.6168 45.7041 83.8214C45.7041 84.0242 45.6409 84.1925 45.5156 84.3264C45.3919 84.4603 45.2241 84.5273 45.0116 84.5273C44.8155 84.5273 44.6515 84.4603 44.5202 84.3264ZM51.634 84.0481V84.7998H51.2717V82.7915C51.3736 82.7915 51.4847 82.7905 51.6046 82.7886C51.7239 82.7867 51.8225 82.7858 51.8988 82.7858C52.3973 82.7858 52.6468 82.9923 52.6468 83.4055C52.6468 83.5585 52.6065 83.6847 52.5259 83.7842C52.4458 83.8798 52.3531 83.9449 52.2491 83.9793L52.8942 84.7998H52.4556L51.8873 84.0481H51.634ZM51.8813 83.1157C51.8715 83.1157 51.8557 83.1166 51.8339 83.1186C51.8127 83.1186 51.7822 83.1195 51.7429 83.1214H51.634V83.7182H51.8693C51.9854 83.7182 52.0796 83.6905 52.1521 83.635C52.2267 83.5795 52.2638 83.5039 52.2638 83.4084C52.2638 83.2132 52.1363 83.1157 51.8813 83.1157ZM58.0793 84.7941H58.4411V83.7583L59.2834 84.7941H59.7426L58.8415 83.7211L59.6898 82.7858H59.2539L58.4411 83.7383V82.7858H58.0793V84.7941Z" fill="#2F7AEA"/>
</g>
<defs>
<clipPath id="clip0_4_25377">
<rect width="47" height="29" fill="white" transform="translate(13 60)"/>
</clipPath>
</defs>
</svg>
