<svg width="54" height="54" viewBox="0 0 54 54" fill="none" xmlns="http://www.w3.org/2000/svg">
<g clip-path="url(#clip0_343_2025)">
<path d="M26.8805 53.9903C41.9342 53.9903 53.8816 41.7588 53.8816 26.8892C53.8816 11.7797 41.6953 -0.211914 26.8805 -0.211914C11.8268 -0.211914 -0.120544 12.0196 -0.120544 26.8892C-0.120544 41.7588 12.0658 53.9903 26.8805 53.9903Z" fill="#2C374B"/>
<path fill-rule="evenodd" clip-rule="evenodd" d="M41.6953 17.0561C41.4563 16.8162 29.7479 9.86108 28.3142 9.38141C27.8363 9.14158 26.6416 8.90175 25.9247 9.14158C25.2079 9.38141 12.7826 16.5764 12.3047 17.0561C12.0658 17.2959 11.8268 17.7756 11.5879 18.0154C11.3489 18.4951 11.3489 18.7349 11.3489 27.129V35.763L13.0216 36.7223C13.9774 37.202 14.6942 37.6817 14.6942 37.6817C14.9331 37.6817 26.1637 19.6942 26.1637 19.4544C26.1637 19.2146 23.5353 19.2146 22.8184 19.4544C21.8626 19.6942 21.1458 20.1739 20.6679 20.6535C20.4289 20.8934 18.9953 23.2917 17.0837 25.9299C15.411 28.568 13.9774 30.9663 13.9774 30.9663C13.9774 30.9663 13.9774 28.568 13.9774 25.2104V19.2146L14.2163 18.9747C14.6942 18.4951 26.8805 11.5399 27.3584 11.5399C27.5974 11.5399 27.8363 11.5399 30.7037 13.2187C31.6595 13.6984 34.2879 15.1374 36.4384 16.5764C38.589 17.7756 40.5005 18.9747 40.7395 19.2146L40.9784 19.4544V31.9257L35.0047 22.5722C34.7658 22.0925 34.5268 21.6129 34.2879 21.373C34.2879 21.373 34.0489 21.8527 32.6153 24.251C32.3763 24.4909 32.1374 24.9705 32.1374 25.2104L31.8984 25.69L32.1374 25.9299L32.3763 26.1697C32.3763 26.1697 32.3763 26.4095 32.6153 26.4095L33.0932 27.129C33.0932 27.129 33.0932 27.3689 33.3321 27.3689C33.5711 27.6087 33.81 28.0884 33.81 28.3282C33.81 28.3282 33.81 28.3282 33.81 28.568L38.8279 36.7223L38.35 36.9622C38.1111 37.202 37.8721 37.202 37.6332 37.202L31.4205 27.6087L31.1816 27.3689L30.7037 28.3282L28.3142 32.1655L33.0932 39.8402C32.3763 40.3198 28.3142 43.1978 28.0753 43.1978C27.8363 43.1978 22.3405 39.6003 22.5795 39.3605C22.5795 39.3605 24.2521 36.4825 26.1637 33.1248C27.8363 30.2469 29.9868 26.6494 31.4205 24.251C33.0932 21.373 33.81 19.934 33.81 19.934C33.81 19.934 32.6153 19.934 31.1816 19.934H28.7921L23.2963 29.0477C21.3847 32.4053 19.4732 35.5232 18.5174 37.202C16.8447 37.4418 16.3668 37.9215 16.3668 37.9215L16.1279 38.4012L20.4289 40.7995C22.8184 42.2385 24.9689 43.4376 25.4468 43.6775C26.1637 44.1571 27.3584 44.1571 27.8363 44.1571C28.3142 43.9173 40.7395 36.7223 41.4563 36.2427C41.6953 36.0028 41.9342 35.763 42.1732 35.2833L42.4121 34.5638V26.6494V18.7349L42.1732 18.2552C42.1732 17.7756 41.6953 17.2959 41.6953 17.0561Z" fill="white"/>
<path d="M40.5006 31.6858L33.3321 20.6535L30.7037 24.9705L37.6332 36.2426L40.7395 34.8036L40.5006 31.6858Z" fill="#24A2EE"/>
<path d="M37.1553 37.6816L29.9869 26.6493L26.8806 31.4459L32.6153 40.5596L36.1995 39.1206L37.1553 37.6816Z" fill="#24A2EE"/>
<path fill-rule="evenodd" clip-rule="evenodd" d="M13.7384 19.2145L26.8805 11.5399L40.0226 19.2145V34.5638L26.8805 42.2385L17.0837 36.7223L15.8889 38.8808L26.6416 45.1165C26.8805 45.3563 27.1195 45.3563 27.3584 45.1165L42.4121 36.4825C42.651 36.2426 42.89 36.0028 42.89 35.763V18.495C42.89 18.2552 42.651 18.0154 42.4121 17.7755L27.3584 9.14154C27.1195 8.90171 26.8805 8.90171 26.6416 9.14154L11.5879 17.5357C11.3489 17.7755 11.11 18.0154 11.11 18.2552V35.5231C11.11 35.763 11.3489 36.0028 11.5879 36.2426L14.6942 37.9215L16.1279 35.763L13.9774 34.5638V19.2145H13.7384Z" fill="#98BCDC"/>
<path d="M32.6152 19.2145H27.5973L15.8889 38.4011L19.951 40.7994L32.6152 19.2145Z" fill="white"/>
<path d="M19.951 21.1332C21.1458 19.2146 24.491 19.2146 25.9247 19.4544L14.4553 37.9215C13.9774 37.6817 13.0216 37.202 12.3047 36.7223C11.3489 36.2427 11.11 36.2427 11.11 35.5232V34.5638C13.7384 30.7265 18.7563 23.0519 19.951 21.1332Z" fill="white"/>
</g>
<defs>
<clipPath id="clip0_343_2025">
<rect width="54" height="54" fill="white"/>
</clipPath>
</defs>
</svg>
