<svg width="306" height="118" viewBox="0 0 306 118" fill="none" xmlns="http://www.w3.org/2000/svg">
<g clip-path="url(#clip0_588_984)">
<rect width="306" height="118" rx="10" fill="#1D1D24"/>
<g filter="url(#filter0_f_588_984)">
</g>
<path d="M108.36 46L112.824 33.04H114.579L119.043 46H117.666L113.427 33.778H113.949L109.737 46H108.36ZM110.349 42.859V41.617H117.045V42.859H110.349ZM124.385 46.243C123.803 46.243 123.293 46.153 122.855 45.973C122.423 45.793 122.054 45.55 121.748 45.244C121.448 44.938 121.205 44.59 121.019 44.2C120.833 43.804 120.698 43.387 120.614 42.949C120.53 42.505 120.488 42.064 120.488 41.626V36.28H121.82V41.239C121.82 41.773 121.871 42.268 121.973 42.724C122.075 43.18 122.237 43.579 122.459 43.921C122.687 44.257 122.978 44.518 123.332 44.704C123.692 44.89 124.127 44.983 124.637 44.983C125.105 44.983 125.516 44.902 125.87 44.74C126.23 44.578 126.53 44.347 126.77 44.047C127.016 43.741 127.202 43.372 127.328 42.94C127.454 42.502 127.517 42.01 127.517 41.464L128.453 41.671C128.453 42.667 128.279 43.504 127.931 44.182C127.583 44.86 127.103 45.373 126.491 45.721C125.879 46.069 125.177 46.243 124.385 46.243ZM127.652 46V43.606H127.517V36.28H128.84V46H127.652ZM135.127 46.27C134.221 46.27 133.447 46.045 132.805 45.595C132.163 45.139 131.671 44.524 131.329 43.75C130.987 42.976 130.816 42.103 130.816 41.131C130.816 40.165 130.984 39.295 131.32 38.521C131.662 37.747 132.151 37.135 132.787 36.685C133.423 36.235 134.185 36.01 135.073 36.01C135.985 36.01 136.753 36.232 137.377 36.676C138.001 37.12 138.472 37.729 138.79 38.503C139.114 39.271 139.276 40.147 139.276 41.131C139.276 42.097 139.117 42.97 138.799 43.75C138.481 44.524 138.013 45.139 137.395 45.595C136.777 46.045 136.021 46.27 135.127 46.27ZM135.262 45.037C135.952 45.037 136.522 44.869 136.972 44.533C137.422 44.197 137.758 43.735 137.98 43.147C138.202 42.553 138.313 41.881 138.313 41.131C138.313 40.369 138.202 39.697 137.98 39.115C137.758 38.527 137.422 38.068 136.972 37.738C136.528 37.408 135.967 37.243 135.289 37.243C134.593 37.243 134.017 37.414 133.561 37.756C133.105 38.098 132.766 38.563 132.544 39.151C132.328 39.739 132.22 40.399 132.22 41.131C132.22 41.869 132.331 42.535 132.553 43.129C132.781 43.717 133.12 44.182 133.57 44.524C134.02 44.866 134.584 45.037 135.262 45.037ZM138.313 46V38.683H138.169V33.04H139.501V46H138.313ZM142.206 34.435V32.95H143.529V34.435H142.206ZM142.206 46V36.28H143.529V46H142.206ZM151.519 46C150.973 46.114 150.433 46.159 149.899 46.135C149.371 46.111 148.897 45.997 148.477 45.793C148.063 45.589 147.748 45.271 147.532 44.839C147.358 44.479 147.262 44.116 147.244 43.75C147.232 43.378 147.226 42.955 147.226 42.481V33.58H148.54V42.427C148.54 42.835 148.543 43.177 148.549 43.453C148.561 43.723 148.624 43.963 148.738 44.173C148.954 44.575 149.296 44.815 149.764 44.893C150.238 44.971 150.823 44.953 151.519 44.839V46ZM145.147 37.414V36.28H151.519V37.414H145.147ZM157.195 46.27C156.247 46.27 155.425 46.06 154.729 45.64C154.039 45.22 153.502 44.629 153.118 43.867C152.734 43.105 152.542 42.211 152.542 41.185C152.542 40.123 152.731 39.205 153.109 38.431C153.487 37.657 154.018 37.06 154.702 36.64C155.392 36.22 156.205 36.01 157.141 36.01C158.101 36.01 158.92 36.232 159.598 36.676C160.276 37.114 160.789 37.744 161.137 38.566C161.485 39.388 161.644 40.369 161.614 41.509H160.264V41.041C160.24 39.781 159.967 38.83 159.445 38.188C158.929 37.546 158.173 37.225 157.177 37.225C156.133 37.225 155.332 37.564 154.774 38.242C154.222 38.92 153.946 39.886 153.946 41.14C153.946 42.364 154.222 43.315 154.774 43.993C155.332 44.665 156.121 45.001 157.141 45.001C157.837 45.001 158.443 44.842 158.959 44.524C159.481 44.2 159.892 43.735 160.192 43.129L161.425 43.606C161.041 44.452 160.474 45.109 159.724 45.577C158.98 46.039 158.137 46.27 157.195 46.27ZM153.478 41.509V40.402H160.903V41.509H153.478ZM167.383 46.27C166.477 46.27 165.703 46.045 165.061 45.595C164.419 45.139 163.927 44.524 163.585 43.75C163.243 42.976 163.072 42.103 163.072 41.131C163.072 40.165 163.24 39.295 163.576 38.521C163.918 37.747 164.407 37.135 165.043 36.685C165.679 36.235 166.441 36.01 167.329 36.01C168.241 36.01 169.009 36.232 169.633 36.676C170.257 37.12 170.728 37.729 171.046 38.503C171.37 39.271 171.532 40.147 171.532 41.131C171.532 42.097 171.373 42.97 171.055 43.75C170.737 44.524 170.269 45.139 169.651 45.595C169.033 46.045 168.277 46.27 167.383 46.27ZM167.518 45.037C168.208 45.037 168.778 44.869 169.228 44.533C169.678 44.197 170.014 43.735 170.236 43.147C170.458 42.553 170.569 41.881 170.569 41.131C170.569 40.369 170.458 39.697 170.236 39.115C170.014 38.527 169.678 38.068 169.228 37.738C168.784 37.408 168.223 37.243 167.545 37.243C166.849 37.243 166.273 37.414 165.817 37.756C165.361 38.098 165.022 38.563 164.8 39.151C164.584 39.739 164.476 40.399 164.476 41.131C164.476 41.869 164.587 42.535 164.809 43.129C165.037 43.717 165.376 44.182 165.826 44.524C166.276 44.866 166.84 45.037 167.518 45.037ZM170.569 46V38.683H170.425V33.04H171.757V46H170.569ZM182.25 46.27C181.356 46.27 180.6 46.045 179.982 45.595C179.364 45.139 178.896 44.524 178.578 43.75C178.26 42.97 178.101 42.097 178.101 41.131C178.101 40.147 178.26 39.271 178.578 38.503C178.902 37.729 179.376 37.12 180 36.676C180.624 36.232 181.392 36.01 182.304 36.01C183.192 36.01 183.954 36.235 184.59 36.685C185.226 37.135 185.712 37.747 186.048 38.521C186.39 39.295 186.561 40.165 186.561 41.131C186.561 42.103 186.39 42.976 186.048 43.75C185.706 44.524 185.214 45.139 184.572 45.595C183.93 46.045 183.156 46.27 182.25 46.27ZM177.876 46V33.04H179.208V38.683H179.064V46H177.876ZM182.115 45.037C182.793 45.037 183.357 44.866 183.807 44.524C184.257 44.182 184.593 43.717 184.815 43.129C185.043 42.535 185.157 41.869 185.157 41.131C185.157 40.399 185.046 39.739 184.824 39.151C184.602 38.563 184.263 38.098 183.807 37.756C183.357 37.414 182.784 37.243 182.088 37.243C181.41 37.243 180.846 37.408 180.396 37.738C179.952 38.068 179.619 38.527 179.397 39.115C179.175 39.697 179.064 40.369 179.064 41.131C179.064 41.881 179.175 42.553 179.397 43.147C179.619 43.735 179.955 44.197 180.405 44.533C180.855 44.869 181.425 45.037 182.115 45.037ZM189.449 50.32L191.33 45.217L191.357 46.729L187.1 36.28H188.504L191.996 45.019H191.42L194.642 36.28H195.992L190.772 50.32H189.449Z" fill="#F3F5F7"/>
<circle cx="54" cy="56" r="38" fill="#11151B"/>
<path fill-rule="evenodd" clip-rule="evenodd" d="M53.4216 34.0011C53.3843 34.0048 53.3473 34.0103 53.3103 34.0177C53.0998 34.0501 52.9031 34.1431 52.7442 34.2861C52.7387 34.2913 52.7332 34.2972 52.7277 34.3027C52.6241 34.3773 50.6609 35.7898 47.6736 37.2949C44.6086 38.8382 40.6185 40.3503 37.0917 40.3503H36V56.0779C36 64.1093 40.3518 69.6365 44.615 73.0471C48.8782 76.4585 53.1571 77.8864 53.1571 77.8864L53.4969 78L53.8429 77.8864C53.8429 77.8864 58.1222 76.4585 62.385 73.0471C66.6483 69.6358 71 64.1089 71 56.0779V40.3503H69.9C66.3725 40.3503 62.3891 38.8382 59.3237 37.2933C56.3158 35.7775 54.3146 34.3328 54.2377 34.2773L54.2381 34.2776C54.0751 34.132 53.873 34.0386 53.6569 34.0096H53.6404C53.6078 34.0051 53.5749 34.0026 53.5419 34.0011H53.5255C53.4907 33.9996 53.4555 33.9996 53.4207 34.0011L53.4216 34.0011ZM53.4985 44.9927C56.3991 44.9927 59.1811 46.1499 61.2321 48.2095C63.2831 50.2692 64.4352 53.0628 64.4352 55.9755C64.4352 58.8882 63.2831 61.6819 61.2321 63.7415C59.1811 65.8011 56.3991 66.958 53.4985 66.958C50.598 66.958 47.816 65.8011 45.765 63.7415C43.7139 61.6819 42.5615 58.8882 42.5615 55.9755C42.5615 53.0628 43.7139 50.2692 45.765 48.2095C47.816 46.1499 50.598 44.9927 53.4985 44.9927ZM59.4861 50.4754C59.0595 50.4868 58.6541 50.6644 58.356 50.9711L51.8642 57.4986L48.6429 54.2638H48.6432C48.3364 53.9475 47.9163 53.7681 47.4769 53.7655C47.0375 53.7629 46.6157 53.9376 46.3051 54.2498C45.995 54.5624 45.8225 54.9867 45.8261 55.428C45.8302 55.8693 46.01 56.2907 46.3253 56.5974L50.7023 60.9925V60.9929C51.0099 61.3003 51.4263 61.4731 51.8602 61.4731C52.2942 61.4731 52.7105 61.3003 53.0178 60.9929L60.6716 53.2986C60.9865 52.9883 61.1634 52.5639 61.163 52.1208C61.1623 51.678 60.9843 51.254 60.669 50.9444C60.3534 50.6348 59.9271 50.466 59.4862 50.4756L59.4861 50.4754Z" fill="url(#paint0_linear_588_984)"/>
<g filter="url(#filter1_f_588_984)">
<ellipse cx="2.22231" cy="113.258" rx="23.2223" ry="22.7417" fill="#00C2FF" fill-opacity="0.5"/>
<ellipse cx="16.0192" cy="90.7417" rx="23.2223" ry="22.7417" fill="#C4C4C4" fill-opacity="0.5"/>
<ellipse cx="16.0192" cy="90.7417" rx="23.2223" ry="22.7417" fill="#00A3FF" fill-opacity="0.5"/>
<ellipse cx="13.8961" cy="94.4943" rx="23.2223" ry="22.7417" fill="#00FF66" fill-opacity="0.4"/>
</g>
<path d="M157.683 74.0917C158.448 74.2548 159.063 74.6374 159.527 75.2396C159.991 75.8292 160.223 76.5066 160.223 77.2719C160.223 78.3759 159.835 79.254 159.057 79.9064C158.292 80.5462 157.219 80.8661 155.839 80.8661H149.686V67.656H155.632C156.974 67.656 158.022 67.9634 158.775 68.5781C159.54 69.1928 159.922 70.0271 159.922 71.0809C159.922 71.8587 159.715 72.5047 159.301 73.0191C158.9 73.5334 158.361 73.891 157.683 74.0917ZM152.903 73.0003H155.011C155.538 73.0003 155.939 72.8874 156.215 72.6616C156.504 72.4232 156.648 72.0782 156.648 71.6266C156.648 71.175 156.504 70.83 156.215 70.5916C155.939 70.3532 155.538 70.2341 155.011 70.2341H152.903V73.0003ZM155.274 78.2692C155.814 78.2692 156.228 78.1501 156.516 77.9117C156.817 77.6608 156.968 77.3033 156.968 76.8391C156.968 76.3749 156.811 76.0111 156.498 75.7477C156.197 75.4842 155.776 75.3525 155.237 75.3525H152.903V78.2692H155.274ZM165.308 66.941V80.8661H162.09V66.941H165.308ZM172.419 81.0166C171.391 81.0166 170.462 80.7971 169.634 80.358C168.819 79.9189 168.173 79.2917 167.696 78.4762C167.232 77.6608 167 76.7074 167 75.6159C167 74.5371 167.238 73.5899 167.715 72.7745C168.192 71.9465 168.844 71.313 169.672 70.8739C170.5 70.4348 171.428 70.2153 172.457 70.2153C173.486 70.2153 174.414 70.4348 175.242 70.8739C176.07 71.313 176.722 71.9465 177.199 72.7745C177.676 73.5899 177.914 74.5371 177.914 75.6159C177.914 76.6948 177.669 77.6483 177.18 78.4762C176.703 79.2917 176.045 79.9189 175.204 80.358C174.376 80.7971 173.448 81.0166 172.419 81.0166ZM172.419 78.2316C173.034 78.2316 173.555 78.0058 173.981 77.5542C174.42 77.1025 174.64 76.4565 174.64 75.6159C174.64 74.7754 174.427 74.1293 174 73.6777C173.586 73.2261 173.072 73.0003 172.457 73.0003C171.83 73.0003 171.309 73.2261 170.895 73.6777C170.481 74.1168 170.274 74.7629 170.274 75.6159C170.274 76.4565 170.475 77.1025 170.876 77.5542C171.29 78.0058 171.805 78.2316 172.419 78.2316ZM178.981 75.6159C178.981 74.5245 179.201 73.5711 179.64 72.7556C180.092 71.9402 180.713 71.313 181.503 70.8739C182.306 70.4348 183.222 70.2153 184.25 70.2153C185.568 70.2153 186.665 70.5602 187.543 71.2502C188.434 71.9402 189.018 72.9125 189.294 74.167H185.869C185.58 73.3641 185.022 72.9626 184.194 72.9626C183.604 72.9626 183.134 73.1947 182.783 73.6589C182.431 74.1105 182.256 74.7629 182.256 75.6159C182.256 76.469 182.431 77.1276 182.783 77.5918C183.134 78.0434 183.604 78.2692 184.194 78.2692C185.022 78.2692 185.58 77.8678 185.869 77.0649H189.294C189.018 78.2943 188.434 79.2603 187.543 79.9628C186.653 80.6654 185.555 81.0166 184.25 81.0166C183.222 81.0166 182.306 80.7971 181.503 80.358C180.713 79.9189 180.092 79.2917 179.64 78.4762C179.201 77.6608 178.981 76.7074 178.981 75.6159ZM197.432 80.8661L194.233 76.4627V80.8661H191.015V66.941H194.233V74.6374L197.413 70.3658H201.383L197.018 75.6348L201.421 80.8661H197.432ZM207.427 80.9978C206.461 80.9978 205.595 80.841 204.83 80.5274C204.065 80.2137 203.45 79.7496 202.986 79.1349C202.534 78.5201 202.296 77.78 202.271 76.9144H205.696C205.746 77.4036 205.915 77.78 206.204 78.0434C206.492 78.2943 206.869 78.4198 207.333 78.4198C207.81 78.4198 208.186 78.3131 208.462 78.0999C208.738 77.8741 208.876 77.5667 208.876 77.1778C208.876 76.8516 208.763 76.5819 208.537 76.3687C208.324 76.1554 208.054 75.9798 207.728 75.8418C207.414 75.7038 206.963 75.5469 206.373 75.3713C205.52 75.1079 204.824 74.8444 204.284 74.581C203.745 74.3175 203.281 73.9286 202.892 73.4143C202.503 72.8999 202.308 72.2287 202.308 71.4008C202.308 70.1713 202.754 69.2116 203.645 68.5217C204.535 67.8191 205.696 67.4679 207.126 67.4679C208.581 67.4679 209.754 67.8191 210.645 68.5217C211.535 69.2116 212.012 70.1776 212.075 71.4196H208.594C208.569 70.9931 208.412 70.6606 208.123 70.4222C207.835 70.1713 207.465 70.0459 207.013 70.0459C206.624 70.0459 206.31 70.1525 206.072 70.3658C205.834 70.5665 205.714 70.8613 205.714 71.2502C205.714 71.6768 205.915 72.0092 206.317 72.2476C206.718 72.4859 207.345 72.7431 208.198 73.0191C209.051 73.3076 209.741 73.5836 210.268 73.8471C210.808 74.1105 211.272 74.4931 211.661 74.995C212.05 75.4968 212.244 76.1428 212.244 76.9332C212.244 77.6859 212.05 78.3696 211.661 78.9843C211.285 79.599 210.733 80.0883 210.005 80.4521C209.277 80.8159 208.418 80.9978 207.427 80.9978ZM224.123 75.4466C224.123 75.7477 224.104 76.0613 224.066 76.3875H216.784C216.834 77.0398 217.041 77.5416 217.405 77.8929C217.781 78.2316 218.239 78.401 218.778 78.401C219.581 78.401 220.14 78.0622 220.453 77.3848H223.878C223.702 78.0748 223.382 78.6958 222.918 79.2478C222.467 79.7998 221.896 80.2326 221.206 80.5462C220.516 80.8598 219.744 81.0166 218.891 81.0166C217.863 81.0166 216.947 80.7971 216.144 80.358C215.341 79.9189 214.714 79.2917 214.262 78.4762C213.811 77.6608 213.585 76.7074 213.585 75.6159C213.585 74.5245 213.804 73.5711 214.243 72.7556C214.695 71.9402 215.322 71.313 216.125 70.8739C216.928 70.4348 217.85 70.2153 218.891 70.2153C219.907 70.2153 220.811 70.4285 221.601 70.8551C222.391 71.2816 223.006 71.89 223.445 72.6804C223.897 73.4707 224.123 74.3928 224.123 75.4466ZM220.83 74.5998C220.83 74.0478 220.641 73.6087 220.265 73.2825C219.889 72.9564 219.418 72.7933 218.854 72.7933C218.314 72.7933 217.856 72.9501 217.48 73.2637C217.116 73.5774 216.89 74.0227 216.803 74.5998H220.83ZM225.18 75.6159C225.18 74.5245 225.4 73.5711 225.839 72.7556C226.291 71.9402 226.912 71.313 227.702 70.8739C228.505 70.4348 229.421 70.2153 230.449 70.2153C231.767 70.2153 232.864 70.5602 233.742 71.2502C234.633 71.9402 235.217 72.9125 235.493 74.167H232.068C231.779 73.3641 231.221 72.9626 230.393 72.9626C229.803 72.9626 229.333 73.1947 228.982 73.6589C228.63 74.1105 228.455 74.7629 228.455 75.6159C228.455 76.469 228.63 77.1276 228.982 77.5918C229.333 78.0434 229.803 78.2692 230.393 78.2692C231.221 78.2692 231.779 77.8678 232.068 77.0649H235.493C235.217 78.2943 234.633 79.2603 233.742 79.9628C232.852 80.6654 231.754 81.0166 230.449 81.0166C229.421 81.0166 228.505 80.7971 227.702 80.358C226.912 79.9189 226.291 79.2917 225.839 78.4762C225.4 77.6608 225.18 76.7074 225.18 75.6159Z" fill="white"/>
<path d="M122.82 81.4538L110.988 80.1807C109.612 80.0327 108.871 78.4915 109.615 77.325L115.531 68.0387C116.288 66.8496 118.041 66.8992 118.73 68.1292L124.646 78.6886C125.386 80.0099 124.326 81.6158 122.82 81.4538Z" fill="white" stroke="white" stroke-width="0.233063"/>
<path d="M118.383 63.4576L119.773 60.3123C120.072 59.6357 120.917 59.4052 121.518 59.8366L133.938 68.7512C134.428 69.1024 134.569 69.7689 134.263 70.2882L129.153 78.9849C128.705 79.7469 127.605 79.7525 127.15 78.9951L118.45 64.5292C118.255 64.2042 118.229 63.8045 118.383 63.4576Z" fill="white" stroke="white" stroke-width="0.233063"/>
<path d="M111.892 65.1536L114.67 61.6304C115.06 61.1356 115.819 61.1624 116.173 61.6834L116.822 62.6381C117.146 63.1133 116.966 63.7649 116.445 64.0075L112.455 65.8648C112.01 66.072 111.588 65.5391 111.892 65.1536Z" fill="white" stroke="white" stroke-width="0.233063"/>
<path d="M108.741 74.1628L109.229 68.4754C109.261 68.1006 109.515 67.7818 109.873 67.6671L112.614 66.7902C113.449 66.5229 114.158 67.4519 113.679 68.1868L109.596 74.4569C109.332 74.8632 108.7 74.6458 108.741 74.1628Z" fill="white" stroke="white" stroke-width="0.233063"/>
<path d="M118.858 90.4761L111.546 83.0773C110.935 82.4585 111.429 81.4134 112.295 81.4938L125.439 82.7124C126.213 82.7841 126.564 83.7153 126.031 84.2805L120.199 90.4606C119.837 90.8444 119.229 90.8514 118.858 90.4761Z" fill="white" stroke="white" stroke-width="0.233063"/>
<path d="M125.247 87.3169L127.892 83.7904C127.986 83.6642 128.138 83.5945 128.296 83.605L133.105 83.9255C133.593 83.9581 133.707 84.6254 133.258 84.8188L125.804 88.0247C125.365 88.2134 124.96 87.6989 125.247 87.3169Z" fill="white" stroke="white" stroke-width="0.233063"/>
<path d="M138.478 68.7175L136.877 68.7675C136.459 68.7806 136.08 69.0167 135.884 69.3862L129.455 81.5052C129.291 81.8157 129.516 82.1898 129.867 82.1898H136.401C136.961 82.1898 137.441 81.7916 137.546 81.2416L139.659 70.0994C139.798 69.3669 139.223 68.6942 138.478 68.7175Z" fill="white" stroke="white" stroke-width="0.233063"/>
<path d="M134.484 68.0173L126.722 61.5973C126.616 61.5098 126.722 61.3433 126.846 61.4022L137.157 66.3021C137.452 66.4426 137.515 66.8357 137.278 67.0611L136.338 67.9536C135.825 68.4409 135.029 68.4683 134.484 68.0173Z" fill="white" stroke="white" stroke-width="0.233063"/>
</g>
<rect x="0.5" y="0.5" width="305" height="117" rx="9.5" stroke="#32323B"/>
<defs>
<filter id="filter0_f_588_984" x="-240" y="-203" width="1233" height="1263.01" filterUnits="userSpaceOnUse" color-interpolation-filters="sRGB">
<feFlood flood-opacity="0" result="BackgroundImageFix"/>
<feBlend mode="normal" in="SourceGraphic" in2="BackgroundImageFix" result="shape"/>
<feGaussianBlur stdDeviation="250" result="effect1_foregroundBlur_588_984"/>
</filter>
<filter id="filter1_f_588_984" x="-150.27" y="-61.2705" width="318.782" height="326.541" filterUnits="userSpaceOnUse" color-interpolation-filters="sRGB">
<feFlood flood-opacity="0" result="BackgroundImageFix"/>
<feBlend mode="normal" in="SourceGraphic" in2="BackgroundImageFix" result="shape"/>
<feGaussianBlur stdDeviation="64.6352" result="effect1_foregroundBlur_588_984"/>
</filter>
<linearGradient id="paint0_linear_588_984" x1="53.5" y1="34" x2="53.5" y2="78" gradientUnits="userSpaceOnUse">
<stop stop-color="#3F8FE3"/>
<stop offset="0.0364583" stop-color="#3D8CE5"/>
<stop offset="1" stop-color="#80F5AE"/>
</linearGradient>
<clipPath id="clip0_588_984">
<rect width="306" height="118" rx="10" fill="white"/>
</clipPath>
</defs>
</svg>
