<svg width="40" height="40" viewBox="0 0 40 40" fill="none" xmlns="http://www.w3.org/2000/svg">
<rect width="40" height="40" rx="5.66667" fill="white" fill-opacity="0.1"/>
<path d="M17.834 7V11.3333H15.6673L20.0007 15.6667L24.334 11.3333H22.1673V7H17.834ZM8.08398 9.16667V11.3333H10.2507L14.1507 19.5558L12.6882 22.21C12.5148 22.5133 12.4173 22.8708 12.4173 23.25C12.4173 23.8246 12.6456 24.3757 13.0519 24.7821C13.4582 25.1884 14.0093 25.4167 14.584 25.4167H27.584V23.25H15.039C14.8982 23.25 14.7682 23.1308 14.7682 22.9792L14.8007 22.8492L15.7757 21.0833H23.8465C24.659 21.0833 25.374 20.6392 25.7423 19.9675L29.924 12.3733L28.039 11.3333H28.0282L26.8365 13.5L23.8465 18.9167H16.2415L16.1007 18.6242L13.674 13.5L12.6448 11.3333L11.6265 9.16667H8.08398ZM14.584 26.5C14.0093 26.5 13.4582 26.7283 13.0519 27.1346C12.6456 27.5409 12.4173 28.092 12.4173 28.6667C12.4173 29.2413 12.6456 29.7924 13.0519 30.1987C13.4582 30.6051 14.0093 30.8333 14.584 30.8333C15.1586 30.8333 15.7097 30.6051 16.116 30.1987C16.5224 29.7924 16.7507 29.2413 16.7507 28.6667C16.7507 28.092 16.5224 27.5409 16.116 27.1346C15.7097 26.7283 15.1586 26.5 14.584 26.5ZM25.4173 26.5C24.8427 26.5 24.2916 26.7283 23.8853 27.1346C23.4789 27.5409 23.2507 28.092 23.2507 28.6667C23.2507 29.2413 23.4789 29.7924 23.8853 30.1987C24.2916 30.6051 24.8427 30.8333 25.4173 30.8333C25.992 30.8333 26.5431 30.6051 26.9494 30.1987C27.3557 29.7924 27.584 29.2413 27.584 28.6667C27.584 28.092 27.3557 27.5409 26.9494 27.1346C26.5431 26.7283 25.992 26.5 25.4173 26.5Z" fill="white"/>
<path d="M17.8333 7V11.3333H15.6667L20 15.6667L24.3333 11.3333H22.1667V7H17.8333ZM14.5833 26.5C14.0087 26.5 13.4576 26.7283 13.0513 27.1346C12.6449 27.5409 12.4167 28.092 12.4167 28.6667C12.4167 29.2413 12.6449 29.7924 13.0513 30.1987C13.4576 30.6051 14.0087 30.8333 14.5833 30.8333C15.158 30.8333 15.7091 30.6051 16.1154 30.1987C16.5217 29.7924 16.75 29.2413 16.75 28.6667C16.75 28.092 16.5217 27.5409 16.1154 27.1346C15.7091 26.7283 15.158 26.5 14.5833 26.5ZM25.4167 26.5C24.842 26.5 24.2909 26.7283 23.8846 27.1346C23.4783 27.5409 23.25 28.092 23.25 28.6667C23.25 29.2413 23.4783 29.7924 23.8846 30.1987C24.2909 30.6051 24.842 30.8333 25.4167 30.8333C25.9913 30.8333 26.5424 30.6051 26.9487 30.1987C27.3551 29.7924 27.5833 29.2413 27.5833 28.6667C27.5833 28.092 27.3551 27.5409 26.9487 27.1346C26.5424 26.7283 25.9913 26.5 25.4167 26.5Z" fill="#00FFA4"/>
</svg>
