<svg width="39" height="39" viewBox="0 0 39 39" fill="none" xmlns="http://www.w3.org/2000/svg">
<rect width="39" height="39" rx="6.5" fill="white" fill-opacity="0.1"/>
<g clip-path="url(#clip0_343_2216)">
<path d="M19.4987 6.49994L15.1654 10.8333H17.332V15.1666H21.6654V10.8333H23.832L19.4987 6.49994ZM7.58203 8.66661V10.8333H9.7487L13.6487 19.0558L12.1862 21.7099C12.0129 22.0133 11.9154 22.3708 11.9154 22.7499C11.9154 23.3246 12.1436 23.8757 12.55 24.282C12.9563 24.6883 13.5074 24.9166 14.082 24.9166H27.082V22.7499H14.537C14.3962 22.7499 14.2662 22.6308 14.2662 22.4791L14.2987 22.3491L15.2737 20.5833H23.3445C24.157 20.5833 24.872 20.1391 25.2404 19.4674L29.422 11.8733L27.537 10.8333H27.5262L26.3345 12.9999L23.3445 18.4166H15.7395L15.5987 18.1241L13.172 12.9999L12.1429 10.8333L11.1245 8.66661H7.58203ZM14.082 25.9999C13.5074 25.9999 12.9563 26.2282 12.55 26.6345C12.1436 27.0409 11.9154 27.592 11.9154 28.1666C11.9154 28.7412 12.1436 29.2923 12.55 29.6987C12.9563 30.105 13.5074 30.3333 14.082 30.3333C14.6567 30.3333 15.2078 30.105 15.6141 29.6987C16.0204 29.2923 16.2487 28.7412 16.2487 28.1666C16.2487 27.592 16.0204 27.0409 15.6141 26.6345C15.2078 26.2282 14.6567 25.9999 14.082 25.9999ZM24.9154 25.9999C24.3407 25.9999 23.7896 26.2282 23.3833 26.6345C22.977 27.0409 22.7487 27.592 22.7487 28.1666C22.7487 28.7412 22.977 29.2923 23.3833 29.6987C23.7896 30.105 24.3407 30.3333 24.9154 30.3333C25.49 30.3333 26.0411 30.105 26.4474 29.6987C26.8538 29.2923 27.082 28.7412 27.082 28.1666C27.082 27.592 26.8538 27.0409 26.4474 26.6345C26.0411 26.2282 25.49 25.9999 24.9154 25.9999Z" fill="#E6E9ED"/>
<path d="M19.5 6.49994L15.1667 10.8333H17.3333V15.1666H21.6667V10.8333H23.8333L19.5 6.49994ZM14.0833 25.9999C13.5087 25.9999 12.9576 26.2282 12.5513 26.6345C12.1449 27.0409 11.9167 27.592 11.9167 28.1666C11.9167 28.7412 12.1449 29.2923 12.5513 29.6987C12.9576 30.105 13.5087 30.3333 14.0833 30.3333C14.658 30.3333 15.2091 30.105 15.6154 29.6987C16.0217 29.2923 16.25 28.7412 16.25 28.1666C16.25 27.592 16.0217 27.0409 15.6154 26.6345C15.2091 26.2282 14.658 25.9999 14.0833 25.9999ZM24.9167 25.9999C24.342 25.9999 23.7909 26.2282 23.3846 26.6345C22.9783 27.0409 22.75 27.592 22.75 28.1666C22.75 28.7412 22.9783 29.2923 23.3846 29.6987C23.7909 30.105 24.342 30.3333 24.9167 30.3333C25.4913 30.3333 26.0424 30.105 26.4487 29.6987C26.8551 29.2923 27.0833 28.7412 27.0833 28.1666C27.0833 27.592 26.8551 27.0409 26.4487 26.6345C26.0424 26.2282 25.4913 25.9999 24.9167 25.9999Z" fill="#00FFA4"/>
</g>
<defs>
<clipPath id="clip0_343_2216">
<rect width="26" height="26" fill="white" transform="translate(6.5 6.5)"/>
</clipPath>
</defs>
</svg>
