<svg width="26" height="26" viewBox="0 0 26 26" fill="none" xmlns="http://www.w3.org/2000/svg">
<g clip-path="url(#clip0_408_3098)">
<path d="M12.9987 -6.10352e-05L8.66536 4.33327H10.832V8.66661H15.1654V4.33327H17.332L12.9987 -6.10352e-05ZM1.08203 2.16661V4.33327H3.2487L7.1487 12.5558L5.6862 15.2099C5.51286 15.5133 5.41536 15.8708 5.41536 16.2499C5.41536 16.8246 5.64364 17.3757 6.04997 17.782C6.4563 18.1883 7.0074 18.4166 7.58203 18.4166H20.582V16.2499H8.03703C7.8962 16.2499 7.7662 16.1308 7.7662 15.9791L7.7987 15.8491L8.7737 14.0833H16.8445C17.657 14.0833 18.372 13.6391 18.7404 12.9674L22.922 5.37327L21.037 4.33327H21.0262L19.8345 6.49994L16.8445 11.9166H9.23953L9.0987 11.6241L6.67203 6.49994L5.64286 4.33327L4.62453 2.16661H1.08203ZM7.58203 19.4999C7.0074 19.4999 6.4563 19.7282 6.04997 20.1345C5.64364 20.5409 5.41536 21.092 5.41536 21.6666C5.41536 22.2412 5.64364 22.7923 6.04997 23.1987C6.4563 23.605 7.0074 23.8333 7.58203 23.8333C8.15667 23.8333 8.70777 23.605 9.11409 23.1987C9.52042 22.7923 9.7487 22.2412 9.7487 21.6666C9.7487 21.092 9.52042 20.5409 9.11409 20.1345C8.70777 19.7282 8.15667 19.4999 7.58203 19.4999ZM18.4154 19.4999C17.8407 19.4999 17.2896 19.7282 16.8833 20.1345C16.477 20.5409 16.2487 21.092 16.2487 21.6666C16.2487 22.2412 16.477 22.7923 16.8833 23.1987C17.2896 23.605 17.8407 23.8333 18.4154 23.8333C18.99 23.8333 19.5411 23.605 19.9474 23.1987C20.3538 22.7923 20.582 22.2412 20.582 21.6666C20.582 21.092 20.3538 20.5409 19.9474 20.1345C19.5411 19.7282 18.99 19.4999 18.4154 19.4999Z" fill="#E6E9ED"/>
<path d="M13 -4.57764e-05L8.66667 4.33329H10.8333V8.66662H15.1667V4.33329H17.3333L13 -4.57764e-05ZM7.58333 19.5C7.0087 19.5 6.4576 19.7282 6.05127 20.1346C5.64494 20.5409 5.41667 21.092 5.41667 21.6666C5.41667 22.2413 5.64494 22.7924 6.05127 23.1987C6.4576 23.605 7.0087 23.8333 7.58333 23.8333C8.15797 23.8333 8.70907 23.605 9.1154 23.1987C9.52173 22.7924 9.75 22.2413 9.75 21.6666C9.75 21.092 9.52173 20.5409 9.1154 20.1346C8.70907 19.7282 8.15797 19.5 7.58333 19.5ZM18.4167 19.5C17.842 19.5 17.2909 19.7282 16.8846 20.1346C16.4783 20.5409 16.25 21.092 16.25 21.6666C16.25 22.2413 16.4783 22.7924 16.8846 23.1987C17.2909 23.605 17.842 23.8333 18.4167 23.8333C18.9913 23.8333 19.5424 23.605 19.9487 23.1987C20.3551 22.7924 20.5833 22.2413 20.5833 21.6666C20.5833 21.092 20.3551 20.5409 19.9487 20.1346C19.5424 19.7282 18.9913 19.5 18.4167 19.5Z" fill="#878D96"/>
</g>
<defs>
<clipPath id="clip0_408_3098">
<rect width="26" height="26" fill="white"/>
</clipPath>
</defs>
</svg>
