<svg width="26" height="26" viewBox="0 0 26 26" fill="none" xmlns="http://www.w3.org/2000/svg">
<path d="M10.834 0V4.33333H8.66732L13.0007 8.66667L17.334 4.33333H15.1673V0H10.834ZM1.08398 2.16667V4.33333H3.25065L7.15065 12.5558L5.68815 15.21C5.51482 15.5133 5.41732 15.8708 5.41732 16.25C5.41732 16.8246 5.64559 17.3757 6.05192 17.7821C6.45825 18.1884 7.00935 18.4167 7.58398 18.4167H20.584V16.25H8.03898C7.89815 16.25 7.76815 16.1308 7.76815 15.9792L7.80065 15.8492L8.77565 14.0833H16.8465C17.659 14.0833 18.374 13.6392 18.7423 12.9675L22.924 5.37333L21.039 4.33333H21.0282L19.8365 6.5L16.8465 11.9167H9.24148L9.10065 11.6242L6.67398 6.5L5.64482 4.33333L4.62648 2.16667H1.08398ZM7.58398 19.5C7.00935 19.5 6.45825 19.7283 6.05192 20.1346C5.64559 20.5409 5.41732 21.092 5.41732 21.6667C5.41732 22.2413 5.64559 22.7924 6.05192 23.1987C6.45825 23.6051 7.00935 23.8333 7.58398 23.8333C8.15862 23.8333 8.70972 23.6051 9.11605 23.1987C9.52238 22.7924 9.75065 22.2413 9.75065 21.6667C9.75065 21.092 9.52238 20.5409 9.11605 20.1346C8.70972 19.7283 8.15862 19.5 7.58398 19.5ZM18.4173 19.5C17.8427 19.5 17.2916 19.7283 16.8853 20.1346C16.4789 20.5409 16.2507 21.092 16.2507 21.6667C16.2507 22.2413 16.4789 22.7924 16.8853 23.1987C17.2916 23.6051 17.8427 23.8333 18.4173 23.8333C18.992 23.8333 19.5431 23.6051 19.9494 23.1987C20.3557 22.7924 20.584 22.2413 20.584 21.6667C20.584 21.092 20.3557 20.5409 19.9494 20.1346C19.5431 19.7283 18.992 19.5 18.4173 19.5Z" fill="white"/>
<path d="M10.8333 0V4.33333H8.66667L13 8.66667L17.3333 4.33333H15.1667V0H10.8333ZM7.58333 19.5C7.0087 19.5 6.4576 19.7283 6.05127 20.1346C5.64494 20.5409 5.41667 21.092 5.41667 21.6667C5.41667 22.2413 5.64494 22.7924 6.05127 23.1987C6.4576 23.6051 7.0087 23.8333 7.58333 23.8333C8.15797 23.8333 8.70907 23.6051 9.1154 23.1987C9.52173 22.7924 9.75 22.2413 9.75 21.6667C9.75 21.092 9.52173 20.5409 9.1154 20.1346C8.70907 19.7283 8.15797 19.5 7.58333 19.5ZM18.4167 19.5C17.842 19.5 17.2909 19.7283 16.8846 20.1346C16.4783 20.5409 16.25 21.092 16.25 21.6667C16.25 22.2413 16.4783 22.7924 16.8846 23.1987C17.2909 23.6051 17.842 23.8333 18.4167 23.8333C18.9913 23.8333 19.5424 23.6051 19.9487 23.1987C20.3551 22.7924 20.5833 22.2413 20.5833 21.6667C20.5833 21.092 20.3551 20.5409 19.9487 20.1346C19.5424 19.7283 18.9913 19.5 18.4167 19.5Z" fill="#878D96"/>
</svg>
