<svg width="55" height="55" viewBox="0 0 55 55" fill="none" xmlns="http://www.w3.org/2000/svg">
<path d="M51.0646 35.2673C47.6078 49.133 33.5641 57.5714 19.6968 54.1137C5.8353 50.6569 -2.60308 36.6124 0.855216 22.7478C4.31047 8.88063 18.3542 0.441615 32.2172 3.89839C46.0835 7.35516 54.5214 21.4013 51.0642 35.2676L51.0645 35.2673H51.0646Z" fill="#F7931A"/>
<g clip-path="url(#clip0_343_2017)">
<path d="M19.0835 25.5553L26.3948 18.244L33.7096 25.5585L37.9638 21.3044L26.3948 9.73572L14.8296 21.3009L19.0836 25.555L19.0835 25.5553ZM7.57129 28.5592L11.8256 24.3044L16.0795 28.5583L11.8253 32.8126L7.57129 28.5592ZM19.0835 31.5636L26.3948 38.8745L33.7095 31.5602L37.9659 35.812L37.9638 35.8143L26.3948 47.3828L14.8296 35.8176L14.8236 35.8116L19.0839 31.5632L19.0835 31.5636ZM36.7101 28.5611L40.9644 24.3068L45.2183 28.5608L40.9642 32.815L36.7101 28.5611Z" fill="white"/>
<path d="M30.7087 28.5559H30.7105L26.3939 24.2393L23.2034 27.4288L22.8368 27.7955L22.0809 28.5516L22.0748 28.5575L22.0809 28.5636L26.3939 32.8772L30.7108 28.5605L30.7129 28.5581L30.709 28.5559" fill="white"/>
</g>
<defs>
<clipPath id="clip0_343_2017">
<rect width="40" height="40" fill="white" transform="translate(7.5 7.5)"/>
</clipPath>
</defs>
</svg>
