<svg width="40" height="40" viewBox="0 0 40 40" fill="none" xmlns="http://www.w3.org/2000/svg">
<rect width="40" height="40" rx="5.66667" fill="white" fill-opacity="0.1"/>
<path d="M10.8497 23.8232C10.4349 23.1132 10.1445 22.3982 9.97861 21.6783C9.81269 20.9584 9.72974 20.2237 9.72974 19.4742C9.72974 16.8905 10.7097 14.6667 12.6696 12.8029C14.6294 10.939 16.9678 10.0071 19.6847 10.0071H21.0224L18.5336 7.64029L19.7469 6.48648L24.3822 10.8946L19.7469 15.3028L18.5025 14.1194L20.9602 11.7822H19.6847C17.4656 11.7822 15.5627 12.5366 13.9761 14.0454C12.3896 15.5542 11.5963 17.3639 11.5963 19.4742C11.5963 20.0462 11.6533 20.5886 11.7674 21.1014C11.8815 21.6142 12.0214 22.0974 12.1874 22.5511L10.8497 23.8232ZM19.5603 32.4324L14.925 28.0243L19.5603 23.6161L20.7735 24.7699L18.2848 27.1367H19.6847C21.9038 27.1367 23.8067 26.3823 25.3932 24.8735C26.9798 23.3647 27.7731 21.5551 27.7731 19.4447C27.7731 18.8727 27.7212 18.3303 27.6175 17.8175C27.5138 17.3047 27.3583 16.8215 27.1509 16.3678L28.4886 15.0957C28.9034 15.8057 29.1989 16.5207 29.3752 17.2406C29.5515 17.9605 29.6396 18.6952 29.6396 19.4447C29.6396 22.0284 28.6597 24.2522 26.6998 26.1161C24.7399 27.9799 22.4016 28.9118 19.6847 28.9118H18.2848L20.7735 31.2786L19.5603 32.4324Z" fill="#E6E9ED"/>
<ellipse cx="19.7298" cy="19.4595" rx="3.51351" ry="3.24324" fill="#00FFA4"/>
<path d="M19.6397 21.6216L18.9154 20.128L17.2974 19.4594L18.9154 18.7767L19.6397 17.2973L20.3794 18.7767L21.982 19.4594L20.3794 20.128L19.6397 21.6216Z" fill="white"/>
</svg>
