<svg width="21" height="27" viewBox="0 0 21 27" fill="none" xmlns="http://www.w3.org/2000/svg">
<path d="M1.84967 17.8232C1.43488 17.1132 1.14453 16.3982 0.97861 15.6783C0.812694 14.9584 0.729736 14.2237 0.729736 13.4743C0.729736 10.8905 1.70968 8.66671 3.66956 6.80286C5.62944 4.93901 7.96782 4.00709 10.6847 4.00709H12.0224L9.53365 1.6403L10.7469 0.486488L15.3822 4.89464L10.7469 9.30278L9.50254 8.11939L11.9602 5.78218H10.6847C8.46557 5.78218 6.56272 6.5366 4.97615 8.04543C3.38958 9.55426 2.59629 11.3639 2.59629 13.4743C2.59629 14.0462 2.65332 14.5886 2.76739 15.1014C2.88146 15.6142 3.02145 16.0974 3.18737 16.5511L1.84967 17.8232ZM10.5603 26.4324L5.92498 22.0243L10.5603 17.6161L11.7735 18.77L9.28477 21.1367H10.6847C12.9038 21.1367 14.8067 20.3823 16.3932 18.8735C17.9798 17.3647 18.7731 15.5551 18.7731 13.4447C18.7731 12.8727 18.7212 12.3303 18.6175 11.8175C18.5138 11.3047 18.3583 10.8215 18.1509 10.3678L19.4886 9.09569C19.9034 9.80573 20.1989 10.5207 20.3752 11.2406C20.5515 11.9605 20.6396 12.6952 20.6396 13.4447C20.6396 16.0284 19.6597 18.2522 17.6998 20.1161C15.7399 21.9799 13.4016 22.9118 10.6847 22.9118H9.28477L11.7735 25.2786L10.5603 26.4324Z" fill="#E6E9ED"/>
<ellipse cx="10.7298" cy="13.4595" rx="3.51351" ry="3.24324" fill="#878D96"/>
<path d="M10.6397 15.6216L9.91543 14.128L8.29736 13.4595L9.91543 12.7767L10.6397 11.2973L11.3794 12.7767L12.982 13.4595L11.3794 14.128L10.6397 15.6216Z" fill="white"/>
</svg>
