<svg width="29" height="28" viewBox="0 0 29 28" fill="none" xmlns="http://www.w3.org/2000/svg">
<g clip-path="url(#clip0_576_665)">
<path d="M28.189 14C28.189 6.26801 21.9209 0 14.189 0C6.45698 0 0.188965 6.26801 0.188965 14C0.188965 21.732 6.45698 28 14.189 28C21.9209 28 28.189 21.732 28.189 14Z" fill="#5865F2"/>
<path d="M20.5525 9.46591C20.5525 9.46591 18.7286 8.03807 16.5754 7.875L16.3812 8.26358C18.3277 8.74046 19.221 9.42216 20.1548 10.2614C18.5453 9.43966 16.9571 8.67046 14.189 8.67046C11.4208 8.67046 9.83265 9.43966 8.22305 10.2614C9.15692 9.42216 10.2196 8.66409 11.9967 8.26358L11.8026 7.875C9.54351 8.08779 7.82532 9.46591 7.82532 9.46591C7.82532 9.46591 5.78857 12.4194 5.43896 18.2159C7.49124 20.5836 10.6094 20.6023 10.6094 20.6023L11.2617 19.7336C10.1544 19.3486 8.90555 18.6618 7.82532 17.4204C9.11317 18.3948 11.0569 19.4091 14.189 19.4091C17.3211 19.4091 19.2648 18.3948 20.5525 17.4204C19.4728 18.6618 18.2239 19.3486 17.1162 19.7336L17.7685 20.6023C17.7685 20.6023 20.8867 20.5836 22.939 18.2159C22.5893 12.4194 20.5525 9.46591 20.5525 9.46591ZM11.6037 16.625C10.8345 16.625 10.2117 15.9131 10.2117 15.0341C10.2117 14.1552 10.8345 13.4432 11.6037 13.4432C12.3729 13.4432 12.9958 14.1552 12.9958 15.0341C12.9958 15.9131 12.3729 16.625 11.6037 16.625ZM16.7742 16.625C16.005 16.625 15.3821 15.9131 15.3821 15.0341C15.3821 14.1552 16.005 13.4432 16.7742 13.4432C17.5434 13.4432 18.1662 14.1552 18.1662 15.0341C18.1662 15.9131 17.5434 16.625 16.7742 16.625Z" fill="white"/>
</g>
<defs>
<clipPath id="clip0_576_665">
<rect width="28" height="28" fill="white" transform="translate(0.188965)"/>
</clipPath>
</defs>
</svg>
