<svg width="103" height="74" viewBox="0 0 103 74" fill="none" xmlns="http://www.w3.org/2000/svg">
<path fill-rule="evenodd" clip-rule="evenodd" d="M28 0L27.7821 0.598815L27.0647 2.51468L26.5884 3.75015C22.9727 13.0101 20.1595 17.4049 17.1696 17.4049C15.4465 17.4049 14.4267 16.8907 13.1064 15.684L12.7253 15.3259C11.7754 14.4189 11.3754 14.196 10.4616 14.196C9.98525 14.196 9.13303 14.8272 8.05466 16.3006C6.93635 17.8285 5.70999 20.0858 4.39201 23.0588L4.26927 23.3371L17.0971 23.3376L15.4999 26.7654H3.52107V40.841H0V0H28ZM23.0088 3.42893L3.52086 3.42768V17.0389C5.85581 12.8496 8.07455 10.7463 10.4616 10.7463C12.3174 10.7463 13.4109 11.2868 14.7905 12.5448L15.1842 12.9143C16.0711 13.7609 16.4128 13.9553 17.1696 13.9553C18.0066 13.9553 20.2229 10.3168 23.0088 3.42893Z" fill="white"/>
<path fill-rule="evenodd" clip-rule="evenodd" d="M11.8071 56.1579L11.7152 56.4172L11.4127 57.2468L11.2119 57.7817C9.68719 61.7913 8.50093 63.6942 7.24015 63.6942C6.51351 63.6942 6.08349 63.4716 5.52675 62.9491L5.36605 62.794C4.96548 62.4013 4.7968 62.3048 4.41146 62.3048C4.21061 62.3048 3.85125 62.5781 3.39652 63.2161C2.92494 63.8777 2.4078 64.8551 1.85204 66.1424L1.80028 66.2629L7.20957 66.2631L6.53605 67.7474H1.48478V73.8421H0V56.1579H11.8071ZM9.70244 57.6426L1.48469 57.6421V63.5358C2.4693 61.7218 3.4049 60.8111 4.41146 60.8111C5.19405 60.8111 5.65515 61.0451 6.2369 61.5898L6.40293 61.7498C6.77691 62.1164 6.921 62.2006 7.24015 62.2006C7.59309 62.2006 8.52768 60.6251 9.70244 57.6426ZM18.0259 56.1584L19.2102 56.1579C21.598 56.1579 24.8125 57.3263 24.8125 62.0316C24.8125 64.8255 23.4524 66.6044 21.7452 67.3976L21.598 67.4632L24.8125 73.8421H23.0368L20.0367 67.8737C19.9219 67.8974 19.7899 67.9033 19.6665 67.9047L16.1488 67.9053V73.8421H14.5875V56.1895L15.614 56.1732C16.4408 56.1628 17.2098 56.1594 18.0259 56.1584ZM19.1184 57.6737H16.1488V66.421H19.302C21.3225 66.421 23.2818 65 23.2818 61.9684C23.2818 58.9086 21.5517 57.7243 19.268 57.6753L19.1184 57.6737ZM95.6586 56.1596L97.3978 56.1579C99.7861 56.1579 103 57.3263 103 62.0316C103 64.8255 101.64 66.6044 99.9325 67.3976L99.7861 67.4632L103 73.8421H101.225L98.2249 67.8737C98.11 67.8974 97.9777 67.9033 97.8538 67.9047L94.3363 67.9053V73.8421H92.7752V56.1895L93.6549 56.1755C94.3596 56.166 95.0035 56.1616 95.6586 56.1596ZM97.3061 57.6737H94.3363V66.421H97.4894C99.5103 66.421 101.47 65 101.47 61.9684C101.47 58.9086 99.7395 57.7243 97.4556 57.6753L97.3061 57.6737ZM35.007 56C38.4431 56 41.8797 58.7553 41.9844 64.4468L41.987 64.7158V65.2842C41.987 71.1579 38.4967 74 35.007 74C31.5405 74 28.1334 71.2447 28.0294 65.5532L28.0269 65.2842V64.7158C28.0269 58.8421 31.4863 56 35.007 56ZM35.007 57.4842C32.3879 57.4842 29.6505 59.5301 29.56 64.4625L29.5577 64.7158V65.2842C29.5577 70.3684 32.3435 72.4842 34.9764 72.4842C37.6247 72.4842 40.3617 70.4395 40.4538 65.5402L40.456 65.2842V64.7158C40.456 59.6 37.6701 57.4842 35.007 57.4842ZM67.5188 73.8422V57.6736H71.2535L71.9269 56.1577H61.5802V57.6736H65.9882V73.8422H67.5188ZM76.5199 56.0632V73.8423H74.9888V56.0632H76.5199ZM89.0399 73.8422L89.7137 72.3576H81.4783V66.2002H86.9588L87.632 64.7155H81.4783V57.6424H89.0399L89.7137 56.1577H79.9788V73.8422H89.0399ZM58.5962 56.2203V73.8648H58.2964L48.1517 61.663C47.6769 61.0702 46.9773 60.1701 46.9773 60.1701V62.0342V73.8648L45.4284 73.8545V56.1472H45.7282L55.8728 68.4518C56.3476 69.0447 57.0037 69.7856 57.0037 69.7856V68.091V56.2203H58.5962Z" fill="white"/>
</svg>
