<svg width="306" height="118" viewBox="0 0 306 118" fill="none" xmlns="http://www.w3.org/2000/svg">
<g clip-path="url(#clip0_343_1887)">
<rect width="306" height="118" rx="10" fill="#1D1D24"/>
<g filter="url(#filter0_f_343_1887)">
</g>
<circle cx="54" cy="56" r="38" fill="#11151B"/>
<path d="M69.2505 49.5833C68.5985 49.5833 67.9732 49.3243 67.5122 48.8633C67.0512 48.4023 66.7922 47.777 66.7922 47.125C66.7922 46.473 67.0512 45.8477 67.5122 45.3867C67.9732 44.9257 68.5985 44.6667 69.2505 44.6667C69.9025 44.6667 70.5278 44.9257 70.9888 45.3867C71.4499 45.8477 71.7089 46.473 71.7089 47.125C71.7089 47.777 71.4499 48.4023 70.9888 48.8633C70.5278 49.3243 69.9025 49.5833 69.2505 49.5833ZM54.5005 49.5833H39.7505V37.2917H54.5005V49.5833ZM73.6018 42.7737L73.6264 42.7492L64.4814 33.6042L61.8755 36.21L67.0626 41.3971C64.7518 42.2083 63.1047 44.4946 63.1047 47.125C63.1047 47.9321 63.2637 48.7313 63.5725 49.4769C63.8814 50.2226 64.3341 50.9001 64.9048 51.4708C66.0573 52.6233 67.6206 53.2708 69.2505 53.2708C70.1355 53.2708 70.9468 53.0742 71.7089 52.7546V70.4792C71.7089 71.1312 71.4499 71.7564 70.9888 72.2175C70.5278 72.6785 69.9025 72.9375 69.2505 72.9375C68.5985 72.9375 67.9732 72.6785 67.5122 72.2175C67.0512 71.7564 66.7922 71.1312 66.7922 70.4792V59.4167C66.7922 56.6879 64.5797 54.5 61.8755 54.5H59.4172V37.2917C59.4172 34.5629 57.2047 32.375 54.5005 32.375H39.7505C37.0218 32.375 34.8339 34.5629 34.8339 37.2917V76.625H59.4172V58.1875H63.1047V70.4792C63.1047 72.1091 63.7522 73.6724 64.9048 74.8249C66.0573 75.9775 67.6206 76.625 69.2505 76.625C70.0576 76.625 70.8568 76.466 71.6024 76.1572C72.3481 75.8483 73.0256 75.3956 73.5963 74.8249C74.167 74.2542 74.6197 73.5767 74.9285 72.8311C75.2374 72.0854 75.3964 71.2862 75.3964 70.4792V47.125C75.3964 45.4287 74.708 43.88 73.6018 42.7737Z" fill="url(#paint0_linear_343_1887)"/>
<path d="M53.8186 62.7967L49.4772 61.2166L51.9378 54.4563L41.3003 62.5938L45.9074 64.2707L42.123 72.6008L53.8186 62.7967Z" fill="black" stroke="#F1FFF9" stroke-width="0.318311"/>
<path d="M53.8197 62.7967L49.4784 61.2165L50.0313 59.8117L46.3809 58.6383L41.3015 62.5938L45.9086 64.2706L44.4255 67.5037L47.6848 68.0252L53.8197 62.7967Z" fill="#64EBD2" fill-opacity="0.2"/>
<path d="M115.4 52.3C114.393 52.3 113.487 52.1333 112.68 51.8C111.88 51.46 111.217 50.98 110.69 50.36C110.17 49.74 109.83 49.0033 109.67 48.15L111.17 47.9C111.41 48.8333 111.917 49.5667 112.69 50.1C113.463 50.6267 114.387 50.89 115.46 50.89C116.167 50.89 116.8 50.78 117.36 50.56C117.92 50.3333 118.36 50.0133 118.68 49.6C119 49.1867 119.16 48.6967 119.16 48.13C119.16 47.7567 119.093 47.44 118.96 47.18C118.827 46.9133 118.65 46.6933 118.43 46.52C118.21 46.3467 117.97 46.2033 117.71 46.09C117.45 45.97 117.197 45.8733 116.95 45.8L113.3 44.71C112.86 44.5833 112.453 44.4233 112.08 44.23C111.707 44.03 111.38 43.7933 111.1 43.52C110.827 43.24 110.613 42.9133 110.46 42.54C110.307 42.1667 110.23 41.74 110.23 41.26C110.23 40.4467 110.443 39.7433 110.87 39.15C111.297 38.5567 111.88 38.1 112.62 37.78C113.36 37.46 114.203 37.3033 115.15 37.31C116.11 37.31 116.967 37.48 117.72 37.82C118.48 38.16 119.107 38.6467 119.6 39.28C120.093 39.9067 120.42 40.65 120.58 41.51L119.04 41.79C118.94 41.1633 118.71 40.62 118.35 40.16C117.99 39.7 117.53 39.3467 116.97 39.1C116.417 38.8467 115.807 38.7167 115.14 38.71C114.493 38.71 113.917 38.82 113.41 39.04C112.91 39.2533 112.513 39.5467 112.22 39.92C111.927 40.2933 111.78 40.72 111.78 41.2C111.78 41.6867 111.913 42.0767 112.18 42.37C112.453 42.6633 112.787 42.8933 113.18 43.06C113.58 43.2267 113.967 43.3633 114.34 43.47L117.16 44.3C117.453 44.38 117.797 44.4967 118.19 44.65C118.59 44.7967 118.977 45.01 119.35 45.29C119.73 45.5633 120.043 45.9233 120.29 46.37C120.537 46.8167 120.66 47.3833 120.66 48.07C120.66 48.7367 120.527 49.3333 120.26 49.86C120 50.3867 119.63 50.83 119.15 51.19C118.677 51.55 118.12 51.8233 117.48 52.01C116.847 52.2033 116.153 52.3 115.4 52.3ZM125.814 52.3C125.001 52.3 124.318 52.1533 123.764 51.86C123.218 51.5667 122.808 51.1767 122.534 50.69C122.261 50.2033 122.124 49.6733 122.124 49.1C122.124 48.5133 122.241 48.0133 122.474 47.6C122.714 47.18 123.038 46.8367 123.444 46.57C123.858 46.3033 124.334 46.1 124.874 45.96C125.421 45.8267 126.024 45.71 126.684 45.61C127.351 45.5033 128.001 45.4133 128.634 45.34C129.274 45.26 129.834 45.1833 130.314 45.11L129.794 45.43C129.814 44.3633 129.608 43.5733 129.174 43.06C128.741 42.5467 127.988 42.29 126.914 42.29C126.174 42.29 125.548 42.4567 125.034 42.79C124.528 43.1233 124.171 43.65 123.964 44.37L122.534 43.95C122.781 42.9833 123.278 42.2333 124.024 41.7C124.771 41.1667 125.741 40.9 126.934 40.9C127.921 40.9 128.758 41.0867 129.444 41.46C130.138 41.8267 130.628 42.36 130.914 43.06C131.048 43.3733 131.134 43.7233 131.174 44.11C131.214 44.4967 131.234 44.89 131.234 45.29V52H129.924V49.29L130.304 49.45C129.938 50.3767 129.368 51.0833 128.594 51.57C127.821 52.0567 126.894 52.3 125.814 52.3ZM125.984 51.03C126.671 51.03 127.271 50.9067 127.784 50.66C128.298 50.4133 128.711 50.0767 129.024 49.65C129.338 49.2167 129.541 48.73 129.634 48.19C129.714 47.8433 129.758 47.4633 129.764 47.05C129.771 46.63 129.774 46.3167 129.774 46.11L130.334 46.4C129.834 46.4667 129.291 46.5333 128.704 46.6C128.124 46.6667 127.551 46.7433 126.984 46.83C126.424 46.9167 125.918 47.02 125.464 47.14C125.158 47.2267 124.861 47.35 124.574 47.51C124.288 47.6633 124.051 47.87 123.864 48.13C123.684 48.39 123.594 48.7133 123.594 49.1C123.594 49.4133 123.671 49.7167 123.824 50.01C123.984 50.3033 124.238 50.5467 124.584 50.74C124.938 50.9333 125.404 51.03 125.984 51.03ZM136.367 52L132.447 41.2H133.937L137.127 50.08L140.297 41.2H141.807L137.887 52H136.367ZM147.783 52.3C146.729 52.3 145.816 52.0667 145.043 51.6C144.276 51.1333 143.679 50.4767 143.253 49.63C142.826 48.7833 142.613 47.79 142.613 46.65C142.613 45.47 142.823 44.45 143.243 43.59C143.663 42.73 144.253 42.0667 145.013 41.6C145.779 41.1333 146.683 40.9 147.723 40.9C148.789 40.9 149.699 41.1467 150.453 41.64C151.206 42.1267 151.776 42.8267 152.163 43.74C152.549 44.6533 152.726 45.7433 152.693 47.01H151.193V46.49C151.166 45.09 150.863 44.0333 150.283 43.32C149.709 42.6067 148.869 42.25 147.763 42.25C146.603 42.25 145.713 42.6267 145.093 43.38C144.479 44.1333 144.173 45.2067 144.173 46.6C144.173 47.96 144.479 49.0167 145.093 49.77C145.713 50.5167 146.589 50.89 147.723 50.89C148.496 50.89 149.169 50.7133 149.743 50.36C150.323 50 150.779 49.4833 151.113 48.81L152.483 49.34C152.056 50.28 151.426 51.01 150.593 51.53C149.766 52.0433 148.829 52.3 147.783 52.3ZM143.653 47.01V45.78H151.903V47.01H143.653ZM163.046 52.27C162.399 52.27 161.832 52.17 161.346 51.97C160.866 51.77 160.456 51.5 160.116 51.16C159.782 50.82 159.512 50.4333 159.306 50C159.099 49.56 158.949 49.0967 158.856 48.61C158.762 48.1167 158.716 47.6267 158.716 47.14V41.2H160.196V46.71C160.196 47.3033 160.252 47.8533 160.366 48.36C160.479 48.8667 160.659 49.31 160.906 49.69C161.159 50.0633 161.482 50.3533 161.876 50.56C162.276 50.7667 162.759 50.87 163.326 50.87C163.846 50.87 164.302 50.78 164.696 50.6C165.096 50.42 165.429 50.1633 165.696 49.83C165.969 49.49 166.176 49.08 166.316 48.6C166.456 48.1133 166.526 47.5667 166.526 46.96L167.566 47.19C167.566 48.2967 167.372 49.2267 166.986 49.98C166.599 50.7333 166.066 51.3033 165.386 51.69C164.706 52.0767 163.926 52.27 163.046 52.27ZM166.676 52V49.34H166.526V41.2H167.996V52H166.676ZM175.641 52.3C174.647 52.3 173.807 52.05 173.121 51.55C172.434 51.0433 171.914 50.36 171.561 49.5C171.207 48.6333 171.031 47.6633 171.031 46.59C171.031 45.4967 171.207 44.5233 171.561 43.67C171.921 42.81 172.447 42.1333 173.141 41.64C173.834 41.1467 174.687 40.9 175.701 40.9C176.687 40.9 177.534 41.15 178.241 41.65C178.947 42.15 179.487 42.83 179.861 43.69C180.241 44.55 180.431 45.5167 180.431 46.59C180.431 47.67 180.241 48.64 179.861 49.5C179.481 50.36 178.934 51.0433 178.221 51.55C177.507 52.05 176.647 52.3 175.641 52.3ZM170.781 56.8V41.2H172.101V49.33H172.261V56.8H170.781ZM175.491 50.93C176.244 50.93 176.871 50.74 177.371 50.36C177.871 49.98 178.244 49.4633 178.491 48.81C178.744 48.15 178.871 47.41 178.871 46.59C178.871 45.7767 178.747 45.0433 178.501 44.39C178.254 43.7367 177.877 43.22 177.371 42.84C176.871 42.46 176.234 42.27 175.461 42.27C174.707 42.27 174.081 42.4533 173.581 42.82C173.087 43.1867 172.717 43.6967 172.471 44.35C172.224 44.9967 172.101 45.7433 172.101 46.59C172.101 47.4233 172.224 48.17 172.471 48.83C172.717 49.4833 173.091 49.9967 173.591 50.37C174.091 50.7433 174.724 50.93 175.491 50.93ZM192.51 52C191.904 52.1267 191.304 52.1767 190.71 52.15C190.124 52.1233 189.597 51.9967 189.13 51.77C188.67 51.5433 188.32 51.19 188.08 50.71C187.887 50.31 187.78 49.9067 187.76 49.5C187.747 49.0867 187.74 48.6167 187.74 48.09V38.2H189.2V48.03C189.2 48.4833 189.204 48.8633 189.21 49.17C189.224 49.47 189.294 49.7367 189.42 49.97C189.66 50.4167 190.04 50.6833 190.56 50.77C191.087 50.8567 191.737 50.8367 192.51 50.71V52ZM185.43 42.46V41.2H192.51V42.46H185.43ZM198.758 52.3C197.684 52.3 196.768 52.0567 196.008 51.57C195.248 51.0833 194.664 50.41 194.258 49.55C193.851 48.69 193.648 47.7033 193.648 46.59C193.648 45.4567 193.854 44.4633 194.268 43.61C194.681 42.7567 195.268 42.0933 196.028 41.62C196.794 41.14 197.704 40.9 198.758 40.9C199.838 40.9 200.758 41.1433 201.518 41.63C202.284 42.11 202.868 42.78 203.268 43.64C203.674 44.4933 203.878 45.4767 203.878 46.59C203.878 47.7233 203.674 48.72 203.268 49.58C202.861 50.4333 202.274 51.1 201.508 51.58C200.741 52.06 199.824 52.3 198.758 52.3ZM198.758 50.89C199.958 50.89 200.851 50.4933 201.438 49.7C202.024 48.9 202.318 47.8633 202.318 46.59C202.318 45.2833 202.021 44.2433 201.428 43.47C200.841 42.6967 199.951 42.31 198.758 42.31C197.951 42.31 197.284 42.4933 196.758 42.86C196.238 43.22 195.848 43.7233 195.588 44.37C195.334 45.01 195.208 45.75 195.208 46.59C195.208 47.89 195.508 48.9333 196.108 49.72C196.708 50.5 197.591 50.89 198.758 50.89ZM216.068 52V49.62H209.688V47.37L214.298 37.6H217.048L212.438 47.37H216.068V43.62H218.508V47.37H219.858V49.62H218.508V52H216.068ZM221.855 51.98V49.88L228.015 44.39C228.495 43.9633 228.829 43.56 229.015 43.18C229.202 42.8 229.295 42.4333 229.295 42.08C229.295 41.6 229.192 41.1733 228.985 40.8C228.779 40.42 228.492 40.12 228.125 39.9C227.765 39.68 227.349 39.57 226.875 39.57C226.375 39.57 225.932 39.6867 225.545 39.92C225.165 40.1467 224.869 40.45 224.655 40.83C224.442 41.21 224.342 41.62 224.355 42.06H221.875C221.875 41.1 222.089 40.2633 222.515 39.55C222.949 38.8367 223.542 38.2833 224.295 37.89C225.055 37.4967 225.932 37.3 226.925 37.3C227.845 37.3 228.672 37.5067 229.405 37.92C230.139 38.3267 230.715 38.8933 231.135 39.62C231.555 40.34 231.765 41.17 231.765 42.11C231.765 42.7967 231.672 43.3733 231.485 43.84C231.299 44.3067 231.019 44.7367 230.645 45.13C230.279 45.5233 229.822 45.96 229.275 46.44L224.905 50.31L224.685 49.71H231.765V51.98H221.855ZM236.17 52L234.57 50.4L247.38 37.6L248.98 39.21L236.17 52ZM245.98 52.3C245.32 52.3 244.716 52.14 244.17 51.82C243.63 51.4933 243.196 51.06 242.87 50.52C242.543 49.9733 242.38 49.3667 242.38 48.7C242.38 48.0467 242.546 47.4467 242.88 46.9C243.213 46.3533 243.653 45.9167 244.2 45.59C244.746 45.2633 245.34 45.1 245.98 45.1C246.64 45.1 247.243 45.2633 247.79 45.59C248.336 45.91 248.77 46.3433 249.09 46.89C249.416 47.43 249.58 48.0333 249.58 48.7C249.58 49.3667 249.416 49.9733 249.09 50.52C248.77 51.06 248.336 51.4933 247.79 51.82C247.243 52.14 246.64 52.3 245.98 52.3ZM245.98 50.24C246.253 50.24 246.506 50.17 246.74 50.03C246.98 49.89 247.17 49.7033 247.31 49.47C247.45 49.2367 247.52 48.98 247.52 48.7C247.52 48.42 247.45 48.1633 247.31 47.93C247.17 47.6967 246.98 47.51 246.74 47.37C246.506 47.23 246.253 47.16 245.98 47.16C245.7 47.16 245.443 47.23 245.21 47.37C244.976 47.51 244.786 47.6967 244.64 47.93C244.5 48.1633 244.43 48.42 244.43 48.7C244.43 48.98 244.5 49.2367 244.64 49.47C244.786 49.7033 244.976 49.89 245.21 50.03C245.443 50.17 245.7 50.24 245.98 50.24ZM237.57 44.5C236.91 44.5 236.306 44.34 235.76 44.02C235.213 43.6933 234.776 43.26 234.45 42.72C234.13 42.1733 233.97 41.5667 233.97 40.9C233.97 40.2467 234.136 39.6467 234.47 39.1C234.803 38.5533 235.243 38.1167 235.79 37.79C236.336 37.4633 236.93 37.3 237.57 37.3C238.23 37.3 238.83 37.4633 239.37 37.79C239.916 38.11 240.353 38.5433 240.68 39.09C241.006 39.63 241.17 40.2333 241.17 40.9C241.17 41.5667 241.006 42.1733 240.68 42.72C240.353 43.26 239.916 43.6933 239.37 44.02C238.83 44.34 238.23 44.5 237.57 44.5ZM237.57 42.44C237.85 42.44 238.106 42.37 238.34 42.23C238.573 42.09 238.76 41.9033 238.9 41.67C239.04 41.4367 239.11 41.18 239.11 40.9C239.11 40.62 239.04 40.3633 238.9 40.13C238.76 39.8967 238.573 39.71 238.34 39.57C238.106 39.43 237.85 39.36 237.57 39.36C237.29 39.36 237.033 39.43 236.8 39.57C236.566 39.71 236.38 39.8967 236.24 40.13C236.1 40.3633 236.03 40.62 236.03 40.9C236.03 41.18 236.1 41.4367 236.24 41.67C236.38 41.9033 236.566 42.09 236.8 42.23C237.033 42.37 237.29 42.44 237.57 42.44ZM255.981 39.15V37.5H257.451V39.15H255.981ZM255.981 52V41.2H257.451V52H255.981ZM268.249 52V46.49C268.249 45.89 268.192 45.34 268.079 44.84C267.965 44.3333 267.782 43.8933 267.529 43.52C267.282 43.14 266.959 42.8467 266.559 42.64C266.165 42.4333 265.685 42.33 265.119 42.33C264.599 42.33 264.139 42.42 263.739 42.6C263.345 42.78 263.012 43.04 262.739 43.38C262.472 43.7133 262.269 44.12 262.129 44.6C261.989 45.08 261.919 45.6267 261.919 46.24L260.879 46.01C260.879 44.9033 261.072 43.9733 261.459 43.22C261.845 42.4667 262.379 41.8967 263.059 41.51C263.739 41.1233 264.519 40.93 265.399 40.93C266.045 40.93 266.609 41.03 267.089 41.23C267.575 41.43 267.985 41.7 268.319 42.04C268.659 42.38 268.932 42.77 269.139 43.21C269.345 43.6433 269.495 44.1067 269.589 44.6C269.682 45.0867 269.729 45.5733 269.729 46.06V52H268.249ZM260.439 52V41.2H261.769V43.86H261.919V52H260.439ZM114.69 85.1C114.137 85.1 113.59 85.0167 113.05 84.85C112.517 84.69 112.023 84.4333 111.57 84.08C111.117 83.7333 110.737 83.28 110.43 82.72L111.76 81.98C112.06 82.58 112.48 83.01 113.02 83.27C113.567 83.5367 114.123 83.67 114.69 83.67C115.47 83.67 116.1 83.5233 116.58 83.23C117.067 82.9433 117.42 82.5167 117.64 81.95C117.86 81.3833 117.967 80.6767 117.96 79.83V76.95H118.13V69.2H119.44V79.85C119.44 80.1567 119.43 80.45 119.41 80.73C119.397 81.0167 119.367 81.2967 119.32 81.57C119.193 82.3767 118.93 83.04 118.53 83.56C118.137 84.08 117.617 84.4667 116.97 84.72C116.33 84.9733 115.57 85.1 114.69 85.1ZM114.59 80.3C113.583 80.3 112.723 80.05 112.01 79.55C111.297 79.0433 110.75 78.36 110.37 77.5C109.99 76.64 109.8 75.67 109.8 74.59C109.8 73.5167 109.987 72.55 110.36 71.69C110.74 70.83 111.283 70.15 111.99 69.65C112.697 69.15 113.543 68.9 114.53 68.9C115.543 68.9 116.397 69.1467 117.09 69.64C117.783 70.1333 118.307 70.81 118.66 71.67C119.02 72.5233 119.2 73.4967 119.2 74.59C119.2 75.6633 119.023 76.6333 118.67 77.5C118.317 78.36 117.797 79.0433 117.11 79.55C116.423 80.05 115.583 80.3 114.59 80.3ZM114.74 78.93C115.507 78.93 116.14 78.7433 116.64 78.37C117.14 77.9967 117.513 77.4833 117.76 76.83C118.007 76.17 118.13 75.4233 118.13 74.59C118.13 73.7433 118.007 72.9967 117.76 72.35C117.513 71.6967 117.14 71.1867 116.64 70.82C116.147 70.4533 115.523 70.27 114.77 70.27C113.997 70.27 113.357 70.46 112.85 70.84C112.343 71.22 111.967 71.7367 111.72 72.39C111.48 73.0433 111.36 73.7767 111.36 74.59C111.36 75.41 111.483 76.15 111.73 76.81C111.983 77.4633 112.36 77.98 112.86 78.36C113.36 78.74 113.987 78.93 114.74 78.93ZM125.326 80.3C124.513 80.3 123.829 80.1533 123.276 79.86C122.729 79.5667 122.319 79.1767 122.046 78.69C121.773 78.2033 121.636 77.6733 121.636 77.1C121.636 76.5133 121.753 76.0133 121.986 75.6C122.226 75.18 122.549 74.8367 122.956 74.57C123.369 74.3033 123.846 74.1 124.386 73.96C124.933 73.8267 125.536 73.71 126.196 73.61C126.863 73.5033 127.513 73.4133 128.146 73.34C128.786 73.26 129.346 73.1833 129.826 73.11L129.306 73.43C129.326 72.3633 129.119 71.5733 128.686 71.06C128.253 70.5467 127.499 70.29 126.426 70.29C125.686 70.29 125.059 70.4567 124.546 70.79C124.039 71.1233 123.683 71.65 123.476 72.37L122.046 71.95C122.293 70.9833 122.789 70.2333 123.536 69.7C124.283 69.1667 125.253 68.9 126.446 68.9C127.433 68.9 128.269 69.0867 128.956 69.46C129.649 69.8267 130.139 70.36 130.426 71.06C130.559 71.3733 130.646 71.7233 130.686 72.11C130.726 72.4967 130.746 72.89 130.746 73.29V80H129.436V77.29L129.816 77.45C129.449 78.3767 128.879 79.0833 128.106 79.57C127.333 80.0567 126.406 80.3 125.326 80.3ZM125.496 79.03C126.183 79.03 126.783 78.9067 127.296 78.66C127.809 78.4133 128.223 78.0767 128.536 77.65C128.849 77.2167 129.053 76.73 129.146 76.19C129.226 75.8433 129.269 75.4633 129.276 75.05C129.283 74.63 129.286 74.3167 129.286 74.11L129.846 74.4C129.346 74.4667 128.803 74.5333 128.216 74.6C127.636 74.6667 127.063 74.7433 126.496 74.83C125.936 74.9167 125.429 75.02 124.976 75.14C124.669 75.2267 124.373 75.35 124.086 75.51C123.799 75.6633 123.563 75.87 123.376 76.13C123.196 76.39 123.106 76.7133 123.106 77.1C123.106 77.4133 123.183 77.7167 123.336 78.01C123.496 78.3033 123.749 78.5467 124.096 78.74C124.449 78.9333 124.916 79.03 125.496 79.03ZM137.379 80.29C136.113 80.29 135.069 80.0167 134.249 79.47C133.436 78.9233 132.936 78.1633 132.749 77.19L134.249 76.94C134.409 77.5533 134.773 78.0433 135.339 78.41C135.913 78.77 136.619 78.95 137.459 78.95C138.279 78.95 138.926 78.78 139.399 78.44C139.873 78.0933 140.109 77.6233 140.109 77.03C140.109 76.6967 140.033 76.4267 139.879 76.22C139.733 76.0067 139.429 75.81 138.969 75.63C138.509 75.45 137.823 75.2367 136.909 74.99C135.929 74.7233 135.163 74.4567 134.609 74.19C134.056 73.9233 133.663 73.6167 133.429 73.27C133.196 72.9167 133.079 72.4867 133.079 71.98C133.079 71.3667 133.253 70.83 133.599 70.37C133.946 69.9033 134.426 69.5433 135.039 69.29C135.653 69.03 136.366 68.9 137.179 68.9C137.993 68.9 138.719 69.0333 139.359 69.3C140.006 69.56 140.526 69.9267 140.919 70.4C141.313 70.8733 141.546 71.4233 141.619 72.05L140.119 72.32C140.019 71.6867 139.703 71.1867 139.169 70.82C138.643 70.4467 137.973 70.2533 137.159 70.24C136.393 70.22 135.769 70.3667 135.289 70.68C134.809 70.9867 134.569 71.3967 134.569 71.91C134.569 72.1967 134.656 72.4433 134.829 72.65C135.003 72.85 135.316 73.04 135.769 73.22C136.229 73.4 136.883 73.5967 137.729 73.81C138.723 74.0633 139.503 74.33 140.069 74.61C140.636 74.89 141.039 75.22 141.279 75.6C141.519 75.98 141.639 76.45 141.639 77.01C141.639 78.03 141.259 78.8333 140.499 79.42C139.746 80 138.706 80.29 137.379 80.29ZM148.931 80V68.4C148.931 68.12 148.944 67.8433 148.971 67.57C149.004 67.2967 149.068 67.0367 149.161 66.79C149.254 66.5367 149.401 66.3033 149.601 66.09C149.821 65.85 150.061 65.6767 150.321 65.57C150.581 65.4567 150.851 65.3833 151.131 65.35C151.418 65.3167 151.698 65.3 151.971 65.3H153.351V66.54H152.071C151.511 66.54 151.091 66.6767 150.811 66.95C150.538 67.2233 150.401 67.6533 150.401 68.24V80H148.931ZM147.061 70.46V69.2H153.351V70.46H147.061ZM159.13 80.3C158.077 80.3 157.163 80.0667 156.39 79.6C155.623 79.1333 155.027 78.4767 154.6 77.63C154.173 76.7833 153.96 75.79 153.96 74.65C153.96 73.47 154.17 72.45 154.59 71.59C155.01 70.73 155.6 70.0667 156.36 69.6C157.127 69.1333 158.03 68.9 159.07 68.9C160.137 68.9 161.047 69.1467 161.8 69.64C162.553 70.1267 163.123 70.8267 163.51 71.74C163.897 72.6533 164.073 73.7433 164.04 75.01H162.54V74.49C162.513 73.09 162.21 72.0333 161.63 71.32C161.057 70.6067 160.217 70.25 159.11 70.25C157.95 70.25 157.06 70.6267 156.44 71.38C155.827 72.1333 155.52 73.2067 155.52 74.6C155.52 75.96 155.827 77.0167 156.44 77.77C157.06 78.5167 157.937 78.89 159.07 78.89C159.843 78.89 160.517 78.7133 161.09 78.36C161.67 78 162.127 77.4833 162.46 76.81L163.83 77.34C163.403 78.28 162.773 79.01 161.94 79.53C161.113 80.0433 160.177 80.3 159.13 80.3ZM155 75.01V73.78H163.25V75.01H155ZM170.829 80.3C169.776 80.3 168.863 80.0667 168.089 79.6C167.323 79.1333 166.726 78.4767 166.299 77.63C165.873 76.7833 165.659 75.79 165.659 74.65C165.659 73.47 165.869 72.45 166.289 71.59C166.709 70.73 167.299 70.0667 168.059 69.6C168.826 69.1333 169.729 68.9 170.769 68.9C171.836 68.9 172.746 69.1467 173.499 69.64C174.253 70.1267 174.823 70.8267 175.209 71.74C175.596 72.6533 175.773 73.7433 175.739 75.01H174.239V74.49C174.213 73.09 173.909 72.0333 173.329 71.32C172.756 70.6067 171.916 70.25 170.809 70.25C169.649 70.25 168.759 70.6267 168.139 71.38C167.526 72.1333 167.219 73.2067 167.219 74.6C167.219 75.96 167.526 77.0167 168.139 77.77C168.759 78.5167 169.636 78.89 170.769 78.89C171.543 78.89 172.216 78.7133 172.789 78.36C173.369 78 173.826 77.4833 174.159 76.81L175.529 77.34C175.103 78.28 174.473 79.01 173.639 79.53C172.813 80.0433 171.876 80.3 170.829 80.3ZM166.699 75.01V73.78H174.949V75.01H166.699ZM181.989 80.29C180.722 80.29 179.679 80.0167 178.859 79.47C178.045 78.9233 177.545 78.1633 177.359 77.19L178.859 76.94C179.019 77.5533 179.382 78.0433 179.949 78.41C180.522 78.77 181.229 78.95 182.069 78.95C182.889 78.95 183.535 78.78 184.009 78.44C184.482 78.0933 184.719 77.6233 184.719 77.03C184.719 76.6967 184.642 76.4267 184.489 76.22C184.342 76.0067 184.039 75.81 183.579 75.63C183.119 75.45 182.432 75.2367 181.519 74.99C180.539 74.7233 179.772 74.4567 179.219 74.19C178.665 73.9233 178.272 73.6167 178.039 73.27C177.805 72.9167 177.689 72.4867 177.689 71.98C177.689 71.3667 177.862 70.83 178.209 70.37C178.555 69.9033 179.035 69.5433 179.649 69.29C180.262 69.03 180.975 68.9 181.789 68.9C182.602 68.9 183.329 69.0333 183.969 69.3C184.615 69.56 185.135 69.9267 185.529 70.4C185.922 70.8733 186.155 71.4233 186.229 72.05L184.729 72.32C184.629 71.6867 184.312 71.1867 183.779 70.82C183.252 70.4467 182.582 70.2533 181.769 70.24C181.002 70.22 180.379 70.3667 179.899 70.68C179.419 70.9867 179.179 71.3967 179.179 71.91C179.179 72.1967 179.265 72.4433 179.439 72.65C179.612 72.85 179.925 73.04 180.379 73.22C180.839 73.4 181.492 73.5967 182.339 73.81C183.332 74.0633 184.112 74.33 184.679 74.61C185.245 74.89 185.649 75.22 185.889 75.6C186.129 75.98 186.249 76.45 186.249 77.01C186.249 78.03 185.869 78.8333 185.109 79.42C184.355 80 183.315 80.29 181.989 80.29ZM188.578 80V78.461H190.117V80H188.578Z" fill="#F3F5F7"/>
<g filter="url(#filter1_f_343_1887)">
<ellipse cx="158.65" cy="20.2366" rx="15.801" ry="15.474" transform="rotate(-15 158.65 20.2366)" fill="#00C2FF" fill-opacity="0.5"/>
<ellipse cx="163.752" cy="3.00849" rx="15.801" ry="15.474" transform="rotate(-15 163.752 3.00849)" fill="#C4C4C4" fill-opacity="0.5"/>
<ellipse cx="163.752" cy="3.00849" rx="15.801" ry="15.474" transform="rotate(-15 163.752 3.00849)" fill="#00A3FF" fill-opacity="0.5"/>
<ellipse cx="163.019" cy="5.84845" rx="15.801" ry="15.474" transform="rotate(-15 163.019 5.84845)" fill="#00FF66" fill-opacity="0.4"/>
</g>
</g>
<rect x="0.5" y="0.5" width="305" height="117" rx="9.5" stroke="#32323B"/>
<defs>
<filter id="filter0_f_343_1887" x="-240" y="-203" width="1233" height="1263.01" filterUnits="userSpaceOnUse" color-interpolation-filters="sRGB">
<feFlood flood-opacity="0" result="BackgroundImageFix"/>
<feBlend mode="normal" in="SourceGraphic" in2="BackgroundImageFix" result="shape"/>
<feGaussianBlur stdDeviation="250" result="effect1_foregroundBlur_343_1887"/>
</filter>
<filter id="filter1_f_343_1887" x="54.9086" y="-100.45" width="212.585" height="224.145" filterUnits="userSpaceOnUse" color-interpolation-filters="sRGB">
<feFlood flood-opacity="0" result="BackgroundImageFix"/>
<feBlend mode="normal" in="SourceGraphic" in2="BackgroundImageFix" result="shape"/>
<feGaussianBlur stdDeviation="43.9793" result="effect1_foregroundBlur_343_1887"/>
</filter>
<linearGradient id="paint0_linear_343_1887" x1="55.1151" y1="32.375" x2="55.1151" y2="76.625" gradientUnits="userSpaceOnUse">
<stop stop-color="#3F8FE3"/>
<stop offset="0.0364583" stop-color="#3D8CE5"/>
<stop offset="1" stop-color="#80F5AE"/>
</linearGradient>
<clipPath id="clip0_343_1887">
<rect width="306" height="118" rx="10" fill="white"/>
</clipPath>
</defs>
</svg>
