<svg width="306" height="118" viewBox="0 0 306 118" fill="none" xmlns="http://www.w3.org/2000/svg">
<g clip-path="url(#clip0_576_544)">
<rect width="306" height="118" rx="10" fill="#1D1D24"/>
<g filter="url(#filter0_f_576_544)">
</g>
<circle cx="54" cy="56" r="38" fill="#11151B"/>
<path fill-rule="evenodd" clip-rule="evenodd" d="M54.5 74C64.7173 74 73 65.7173 73 55.5C73 45.2827 64.7173 37 54.5 37C44.2827 37 36 45.2827 36 55.5C36 65.7173 44.2827 74 54.5 74ZM43.172 60.0692C44.3245 61.2571 45.7509 61.8511 47.4513 61.8511C48.1125 61.8511 48.7643 61.7468 49.4067 61.5383C50.0491 61.3297 50.6158 61.0078 51.1071 60.5725L60.0623 52.4651C60.4024 52.1568 60.7944 51.921 61.2384 51.7578C61.6824 51.5945 62.1406 51.5129 62.6129 51.5129C63.822 51.5129 64.847 51.9346 65.6877 52.778C66.5285 53.6214 66.9488 54.6325 66.9488 55.8114C66.9488 57.0085 66.5332 58.0423 65.7019 58.9129C64.8706 59.7835 63.8409 60.2188 62.6129 60.2188C62.1406 60.2188 61.6777 60.1462 61.2242 60.0011C60.7708 59.856 60.3835 59.6293 60.0623 59.321L57.5968 56.9541L56.4065 58.0967L58.9854 60.5453C59.4578 60.9987 60.0151 61.3297 60.6575 61.5383C61.2998 61.7468 61.9516 61.8511 62.6129 61.8511C64.3132 61.8511 65.7444 61.2571 66.9063 60.0692C68.0682 58.8812 68.6492 57.4619 68.6492 55.8114C68.6492 54.1791 68.0682 52.7825 66.9063 51.6217C65.7444 50.4609 64.3132 49.8806 62.6129 49.8806C61.9516 49.8806 61.3045 49.9894 60.6716 50.207C60.0387 50.4247 59.4766 50.7602 58.9854 51.2136L50.0302 59.321C49.6712 59.6293 49.2697 59.856 48.8257 60.0011C48.3817 60.1462 47.9236 60.2188 47.4513 60.2188C46.2232 60.2188 45.1983 59.7835 44.3764 58.9129C43.5546 58.0423 43.1437 57.0085 43.1437 55.8114C43.1437 54.6325 43.5593 53.6214 44.3906 52.778C45.2219 51.9346 46.2421 51.5129 47.4513 51.5129C47.9425 51.5129 48.4101 51.5855 48.8541 51.7306C49.2981 51.8756 49.6901 52.1114 50.0302 52.4379L52.5524 54.8048L53.7426 53.6622L51.1071 51.2136C50.6158 50.7602 50.0538 50.4247 49.4209 50.207C48.7879 49.9894 48.1314 49.8806 47.4513 49.8806C45.7698 49.8806 44.3481 50.4609 43.1862 51.6217C42.0243 52.7825 41.4433 54.1791 41.4433 55.8114C41.4433 57.4619 42.0195 58.8812 43.172 60.0692Z" fill="url(#paint0_linear_576_544)"/>
<path d="M111.4 63.3C110.393 63.3 109.487 63.1333 108.68 62.8C107.88 62.46 107.217 61.98 106.69 61.36C106.17 60.74 105.83 60.0033 105.67 59.15L107.17 58.9C107.41 59.8333 107.917 60.5667 108.69 61.1C109.463 61.6267 110.387 61.89 111.46 61.89C112.167 61.89 112.8 61.78 113.36 61.56C113.92 61.3333 114.36 61.0133 114.68 60.6C115 60.1867 115.16 59.6967 115.16 59.13C115.16 58.7567 115.093 58.44 114.96 58.18C114.827 57.9133 114.65 57.6933 114.43 57.52C114.21 57.3467 113.97 57.2033 113.71 57.09C113.45 56.97 113.197 56.8733 112.95 56.8L109.3 55.71C108.86 55.5833 108.453 55.4233 108.08 55.23C107.707 55.03 107.38 54.7933 107.1 54.52C106.827 54.24 106.613 53.9133 106.46 53.54C106.307 53.1667 106.23 52.74 106.23 52.26C106.23 51.4467 106.443 50.7433 106.87 50.15C107.297 49.5567 107.88 49.1 108.62 48.78C109.36 48.46 110.203 48.3033 111.15 48.31C112.11 48.31 112.967 48.48 113.72 48.82C114.48 49.16 115.107 49.6467 115.6 50.28C116.093 50.9067 116.42 51.65 116.58 52.51L115.04 52.79C114.94 52.1633 114.71 51.62 114.35 51.16C113.99 50.7 113.53 50.3467 112.97 50.1C112.417 49.8467 111.807 49.7167 111.14 49.71C110.493 49.71 109.917 49.82 109.41 50.04C108.91 50.2533 108.513 50.5467 108.22 50.92C107.927 51.2933 107.78 51.72 107.78 52.2C107.78 52.6867 107.913 53.0767 108.18 53.37C108.453 53.6633 108.787 53.8933 109.18 54.06C109.58 54.2267 109.967 54.3633 110.34 54.47L113.16 55.3C113.453 55.38 113.797 55.4967 114.19 55.65C114.59 55.7967 114.977 56.01 115.35 56.29C115.73 56.5633 116.043 56.9233 116.29 57.37C116.537 57.8167 116.66 58.3833 116.66 59.07C116.66 59.7367 116.527 60.3333 116.26 60.86C116 61.3867 115.63 61.83 115.15 62.19C114.677 62.55 114.12 62.8233 113.48 63.01C112.847 63.2033 112.153 63.3 111.4 63.3ZM123.294 63.3C122.241 63.3 121.328 63.0667 120.554 62.6C119.788 62.1333 119.191 61.4767 118.764 60.63C118.338 59.7833 118.124 58.79 118.124 57.65C118.124 56.47 118.334 55.45 118.754 54.59C119.174 53.73 119.764 53.0667 120.524 52.6C121.291 52.1333 122.194 51.9 123.234 51.9C124.301 51.9 125.211 52.1467 125.964 52.64C126.718 53.1267 127.288 53.8267 127.674 54.74C128.061 55.6533 128.238 56.7433 128.204 58.01H126.704V57.49C126.678 56.09 126.374 55.0333 125.794 54.32C125.221 53.6067 124.381 53.25 123.274 53.25C122.114 53.25 121.224 53.6267 120.604 54.38C119.991 55.1333 119.684 56.2067 119.684 57.6C119.684 58.96 119.991 60.0167 120.604 60.77C121.224 61.5167 122.101 61.89 123.234 61.89C124.008 61.89 124.681 61.7133 125.254 61.36C125.834 61 126.291 60.4833 126.624 59.81L127.994 60.34C127.568 61.28 126.938 62.01 126.104 62.53C125.278 63.0433 124.341 63.3 123.294 63.3ZM119.164 58.01V56.78H127.414V58.01H119.164ZM133.318 63.3C132.505 63.3 131.821 63.1533 131.268 62.86C130.721 62.5667 130.311 62.1767 130.038 61.69C129.765 61.2033 129.628 60.6733 129.628 60.1C129.628 59.5133 129.745 59.0133 129.978 58.6C130.218 58.18 130.541 57.8367 130.948 57.57C131.361 57.3033 131.838 57.1 132.378 56.96C132.925 56.8267 133.528 56.71 134.188 56.61C134.855 56.5033 135.505 56.4133 136.138 56.34C136.778 56.26 137.338 56.1833 137.818 56.11L137.298 56.43C137.318 55.3633 137.111 54.5733 136.678 54.06C136.245 53.5467 135.491 53.29 134.418 53.29C133.678 53.29 133.051 53.4567 132.538 53.79C132.031 54.1233 131.675 54.65 131.468 55.37L130.038 54.95C130.285 53.9833 130.781 53.2333 131.528 52.7C132.275 52.1667 133.245 51.9 134.438 51.9C135.425 51.9 136.261 52.0867 136.948 52.46C137.641 52.8267 138.131 53.36 138.418 54.06C138.551 54.3733 138.638 54.7233 138.678 55.11C138.718 55.4967 138.738 55.89 138.738 56.29V63H137.428V60.29L137.808 60.45C137.441 61.3767 136.871 62.0833 136.098 62.57C135.325 63.0567 134.398 63.3 133.318 63.3ZM133.488 62.03C134.175 62.03 134.775 61.9067 135.288 61.66C135.801 61.4133 136.215 61.0767 136.528 60.65C136.841 60.2167 137.045 59.73 137.138 59.19C137.218 58.8433 137.261 58.4633 137.268 58.05C137.275 57.63 137.278 57.3167 137.278 57.11L137.838 57.4C137.338 57.4667 136.795 57.5333 136.208 57.6C135.628 57.6667 135.055 57.7433 134.488 57.83C133.928 57.9167 133.421 58.02 132.968 58.14C132.661 58.2267 132.365 58.35 132.078 58.51C131.791 58.6633 131.555 58.87 131.368 59.13C131.188 59.39 131.098 59.7133 131.098 60.1C131.098 60.4133 131.175 60.7167 131.328 61.01C131.488 61.3033 131.741 61.5467 132.088 61.74C132.441 61.9333 132.908 62.03 133.488 62.03ZM154.221 63L154.231 55.91C154.231 55.0767 153.998 54.4233 153.531 53.95C153.071 53.47 152.485 53.23 151.771 53.23C151.365 53.23 150.968 53.3233 150.581 53.51C150.195 53.6967 149.875 53.9967 149.621 54.41C149.375 54.8233 149.251 55.3633 149.251 56.03L148.381 55.78C148.361 55.0067 148.511 54.33 148.831 53.75C149.158 53.17 149.605 52.72 150.171 52.4C150.745 52.0733 151.391 51.91 152.111 51.91C153.198 51.91 154.068 52.2467 154.721 52.92C155.375 53.5867 155.701 54.49 155.701 55.63L155.691 63H154.221ZM141.331 63V52.2H142.651V54.86H142.811V63H141.331ZM147.791 63L147.801 56.01C147.801 55.15 147.571 54.4733 147.111 53.98C146.658 53.48 146.058 53.23 145.311 53.23C144.565 53.23 143.961 53.4867 143.501 54C143.041 54.5067 142.811 55.1833 142.811 56.03L141.931 55.55C141.931 54.8567 142.095 54.2367 142.421 53.69C142.748 53.1367 143.195 52.7033 143.761 52.39C144.328 52.07 144.971 51.91 145.691 51.91C146.378 51.91 146.988 52.0567 147.521 52.35C148.061 52.6433 148.485 53.07 148.791 53.63C149.098 54.19 149.251 54.87 149.251 55.67L149.241 63H147.791ZM158.495 63V48.3H159.965V63H158.495ZM167.533 63.3C166.479 63.3 165.566 63.0667 164.793 62.6C164.026 62.1333 163.429 61.4767 163.003 60.63C162.576 59.7833 162.363 58.79 162.363 57.65C162.363 56.47 162.573 55.45 162.993 54.59C163.413 53.73 164.003 53.0667 164.763 52.6C165.529 52.1333 166.433 51.9 167.473 51.9C168.539 51.9 169.449 52.1467 170.203 52.64C170.956 53.1267 171.526 53.8267 171.913 54.74C172.299 55.6533 172.476 56.7433 172.443 58.01H170.943V57.49C170.916 56.09 170.613 55.0333 170.033 54.32C169.459 53.6067 168.619 53.25 167.513 53.25C166.353 53.25 165.463 53.6267 164.843 54.38C164.229 55.1333 163.923 56.2067 163.923 57.6C163.923 58.96 164.229 60.0167 164.843 60.77C165.463 61.5167 166.339 61.89 167.473 61.89C168.246 61.89 168.919 61.7133 169.493 61.36C170.073 61 170.529 60.4833 170.863 59.81L172.233 60.34C171.806 61.28 171.176 62.01 170.343 62.53C169.516 63.0433 168.579 63.3 167.533 63.3ZM163.403 58.01V56.78H171.653V58.01H163.403ZM178.692 63.29C177.425 63.29 176.382 63.0167 175.562 62.47C174.748 61.9233 174.248 61.1633 174.062 60.19L175.562 59.94C175.722 60.5533 176.085 61.0433 176.652 61.41C177.225 61.77 177.932 61.95 178.772 61.95C179.592 61.95 180.238 61.78 180.712 61.44C181.185 61.0933 181.422 60.6233 181.422 60.03C181.422 59.6967 181.345 59.4267 181.192 59.22C181.045 59.0067 180.742 58.81 180.282 58.63C179.822 58.45 179.135 58.2367 178.222 57.99C177.242 57.7233 176.475 57.4567 175.922 57.19C175.368 56.9233 174.975 56.6167 174.742 56.27C174.508 55.9167 174.392 55.4867 174.392 54.98C174.392 54.3667 174.565 53.83 174.912 53.37C175.258 52.9033 175.738 52.5433 176.352 52.29C176.965 52.03 177.678 51.9 178.492 51.9C179.305 51.9 180.032 52.0333 180.672 52.3C181.318 52.56 181.838 52.9267 182.232 53.4C182.625 53.8733 182.858 54.4233 182.932 55.05L181.432 55.32C181.332 54.6867 181.015 54.1867 180.482 53.82C179.955 53.4467 179.285 53.2533 178.472 53.24C177.705 53.22 177.082 53.3667 176.602 53.68C176.122 53.9867 175.882 54.3967 175.882 54.91C175.882 55.1967 175.968 55.4433 176.142 55.65C176.315 55.85 176.628 56.04 177.082 56.22C177.542 56.4 178.195 56.5967 179.042 56.81C180.035 57.0633 180.815 57.33 181.382 57.61C181.948 57.89 182.352 58.22 182.592 58.6C182.832 58.98 182.952 59.45 182.952 60.01C182.952 61.03 182.572 61.8333 181.812 62.42C181.058 63 180.018 63.29 178.692 63.29ZM189.2 63.29C187.933 63.29 186.89 63.0167 186.07 62.47C185.256 61.9233 184.756 61.1633 184.57 60.19L186.07 59.94C186.23 60.5533 186.593 61.0433 187.16 61.41C187.733 61.77 188.44 61.95 189.28 61.95C190.1 61.95 190.746 61.78 191.22 61.44C191.693 61.0933 191.93 60.6233 191.93 60.03C191.93 59.6967 191.853 59.4267 191.7 59.22C191.553 59.0067 191.25 58.81 190.79 58.63C190.33 58.45 189.643 58.2367 188.73 57.99C187.75 57.7233 186.983 57.4567 186.43 57.19C185.876 56.9233 185.483 56.6167 185.25 56.27C185.016 55.9167 184.9 55.4867 184.9 54.98C184.9 54.3667 185.073 53.83 185.42 53.37C185.766 52.9033 186.246 52.5433 186.86 52.29C187.473 52.03 188.186 51.9 189 51.9C189.813 51.9 190.54 52.0333 191.18 52.3C191.826 52.56 192.346 52.9267 192.74 53.4C193.133 53.8733 193.366 54.4233 193.44 55.05L191.94 55.32C191.84 54.6867 191.523 54.1867 190.99 53.82C190.463 53.4467 189.793 53.2533 188.98 53.24C188.213 53.22 187.59 53.3667 187.11 53.68C186.63 53.9867 186.39 54.3967 186.39 54.91C186.39 55.1967 186.476 55.4433 186.65 55.65C186.823 55.85 187.136 56.04 187.59 56.22C188.05 56.4 188.703 56.5967 189.55 56.81C190.543 57.0633 191.323 57.33 191.89 57.61C192.456 57.89 192.86 58.22 193.1 58.6C193.34 58.98 193.46 59.45 193.46 60.01C193.46 61.03 193.08 61.8333 192.32 62.42C191.566 63 190.526 63.29 189.2 63.29ZM205.301 63.3C204.201 63.3 203.228 63.0733 202.381 62.62C201.541 62.1667 200.881 61.5267 200.401 60.7C199.921 59.8733 199.681 58.9067 199.681 57.8V48.61L201.161 48.6V57.61C201.161 58.3567 201.288 59.0033 201.541 59.55C201.795 60.09 202.125 60.5367 202.531 60.89C202.945 61.2367 203.395 61.4933 203.881 61.66C204.368 61.8267 204.841 61.91 205.301 61.91C205.768 61.91 206.245 61.8267 206.731 61.66C207.218 61.4933 207.665 61.2367 208.071 60.89C208.478 60.5367 208.808 60.09 209.061 59.55C209.315 59.0033 209.441 58.3567 209.441 57.61V48.6H210.921V57.8C210.921 58.9067 210.681 59.8733 210.201 60.7C209.721 61.52 209.058 62.16 208.211 62.62C207.371 63.0733 206.401 63.3 205.301 63.3ZM213.924 63V48.6H215.394V63H213.924ZM222.032 48.6H223.542L219.702 63H218.192L222.032 48.6ZM231.766 63.3C230.666 63.3 229.693 63.0733 228.846 62.62C228.006 62.1667 227.346 61.5267 226.866 60.7C226.386 59.8733 226.146 58.9067 226.146 57.8V48.61L227.626 48.6V57.61C227.626 58.3567 227.753 59.0033 228.006 59.55C228.259 60.09 228.589 60.5367 228.996 60.89C229.409 61.2367 229.859 61.4933 230.346 61.66C230.833 61.8267 231.306 61.91 231.766 61.91C232.233 61.91 232.709 61.8267 233.196 61.66C233.683 61.4933 234.129 61.2367 234.536 60.89C234.943 60.5367 235.273 60.09 235.526 59.55C235.779 59.0033 235.906 58.3567 235.906 57.61V48.6H237.386V57.8C237.386 58.9067 237.146 59.8733 236.666 60.7C236.186 61.52 235.523 62.16 234.676 62.62C233.836 63.0733 232.866 63.3 231.766 63.3ZM238.989 63L243.979 55.71L239.119 48.6H240.899L244.849 54.48L248.799 48.6H250.589L245.729 55.71L250.709 63H248.929L244.849 56.95L240.779 63H238.989ZM252.598 63V61.29H254.308V63H252.598Z" fill="#F3F5F7"/>
<g filter="url(#filter1_f_576_544)">
<ellipse cx="253.49" cy="75.9338" rx="20.4903" ry="20.0662" fill="#00C2FF" fill-opacity="0.5"/>
<ellipse cx="265.664" cy="56.0662" rx="20.4903" ry="20.0662" fill="#C4C4C4" fill-opacity="0.5"/>
<ellipse cx="265.664" cy="56.0662" rx="20.4903" ry="20.0662" fill="#00A3FF" fill-opacity="0.5"/>
<ellipse cx="263.791" cy="59.3774" rx="20.4903" ry="20.0662" fill="#00FF66" fill-opacity="0.4"/>
</g>
</g>
<rect x="0.5" y="0.5" width="305" height="117" rx="9.5" stroke="#32323B"/>
<defs>
<filter id="filter0_f_576_544" x="-240" y="-203" width="1233" height="1263.01" filterUnits="userSpaceOnUse" color-interpolation-filters="sRGB">
<feFlood flood-opacity="0" result="BackgroundImageFix"/>
<feBlend mode="normal" in="SourceGraphic" in2="BackgroundImageFix" result="shape"/>
<feGaussianBlur stdDeviation="250" result="effect1_foregroundBlur_576_544"/>
</filter>
<filter id="filter1_f_576_544" x="118.938" y="-78.0622" width="281.279" height="288.124" filterUnits="userSpaceOnUse" color-interpolation-filters="sRGB">
<feFlood flood-opacity="0" result="BackgroundImageFix"/>
<feBlend mode="normal" in="SourceGraphic" in2="BackgroundImageFix" result="shape"/>
<feGaussianBlur stdDeviation="57.0311" result="effect1_foregroundBlur_576_544"/>
</filter>
<linearGradient id="paint0_linear_576_544" x1="49.0875" y1="31.584" x2="49.0875" y2="68.584" gradientUnits="userSpaceOnUse">
<stop stop-color="#3F8FE3"/>
<stop offset="0.0364583" stop-color="#3D8CE5"/>
<stop offset="1" stop-color="#80F5AE"/>
</linearGradient>
<clipPath id="clip0_576_544">
<rect width="306" height="118" rx="10" fill="white"/>
</clipPath>
</defs>
</svg>
