<svg width="51" height="51" viewBox="0 0 51 51" fill="none" xmlns="http://www.w3.org/2000/svg">
<g clip-path="url(#clip0_1242_4425)">
<path d="M24.8645 50.0642C38.6893 50.0642 49.8966 38.857 49.8966 25.0322C49.8966 11.2074 38.6893 0.00012207 24.8645 0.00012207C11.0397 0.00012207 -0.167542 11.2074 -0.167542 25.0322C-0.167542 38.857 11.0397 50.0642 24.8645 50.0642Z" fill="#FF0420"/>
<path d="M17.7446 32.0103C16.4422 32.0658 15.157 31.6967 14.0825 30.9585C13.6184 30.604 13.2475 30.1417 13.0022 29.6117C12.7568 29.0817 12.6442 28.4998 12.6742 27.9165C12.6799 27.5766 12.7113 27.2377 12.7681 26.9025C12.9309 25.9997 13.1625 24.9168 13.4629 23.6537C14.3143 20.2108 16.5113 18.4893 20.0541 18.4893C20.9421 18.4747 21.8238 18.6409 22.6456 18.9776C23.375 19.2635 24.0027 19.7604 24.4483 20.4048C24.8976 21.0688 25.1273 21.8571 25.1048 22.6586C25.0984 22.9921 25.067 23.3248 25.0109 23.6537C24.8229 24.768 24.5976 25.8509 24.335 26.9025C23.8973 28.6176 23.1399 29.9008 22.0628 30.7521C20.9869 31.5909 19.5475 32.0103 17.7446 32.0103ZM18.0076 29.306C18.6581 29.324 19.2926 29.1036 19.7919 28.6864C20.3437 28.1859 20.719 27.5207 20.8621 26.7897C21.1502 25.6133 21.3691 24.5867 21.5187 23.7099C21.5691 23.4437 21.5942 23.1733 21.5938 22.9023C21.5938 21.7629 20.9992 21.1933 19.81 21.1936C19.1543 21.1778 18.5147 21.3977 18.0072 21.8132C17.4657 22.3189 17.0976 22.9827 16.9555 23.7099C16.7301 24.5487 16.5048 25.5753 16.2796 26.7897C16.2287 27.0495 16.2035 27.3136 16.2045 27.5784C16.2045 28.7301 16.8056 29.306 18.0076 29.306Z" fill="white"/>
<path d="M25.9684 31.8227C25.9088 31.8262 25.8491 31.8162 25.7938 31.7934C25.7386 31.7707 25.6891 31.7358 25.6492 31.6914C25.5867 31.5904 25.5665 31.4689 25.593 31.3532L28.1844 19.1466C28.2073 19.0119 28.2807 18.891 28.3896 18.8085C28.4902 18.7254 28.6161 18.6791 28.7466 18.6771H33.7419C34.918 18.6194 36.0838 18.9207 37.0847 19.541C37.4962 19.8105 37.8304 20.1826 38.0543 20.6206C38.2783 21.0586 38.3842 21.5474 38.3618 22.0388C38.36 22.3675 38.3221 22.695 38.2489 23.0155C38.0418 24.2808 37.3644 25.4211 36.3522 26.2081C35.4133 26.8967 34.1238 27.241 32.4837 27.241H29.9489L29.0851 31.3536C29.0622 31.4883 28.9888 31.6092 28.88 31.6918C28.7794 31.7747 28.6537 31.821 28.5233 31.8231L25.9684 31.8227ZM32.6163 24.6487C33.1083 24.6596 33.5902 24.5078 33.9873 24.217C34.3959 23.917 34.6772 23.4749 34.776 22.9777C34.8109 22.7919 34.8297 22.6034 34.8322 22.4143C34.8429 22.2616 34.8199 22.1083 34.7647 21.9655C34.7095 21.8227 34.6236 21.6937 34.513 21.5878C34.1996 21.3564 33.8116 21.2494 33.4239 21.2875H31.1706L30.457 24.6487H32.6163Z" fill="white"/>
</g>
<defs>
<clipPath id="clip0_1242_4425">
<rect width="50.0641" height="50.0641" fill="white" transform="translate(0.206055 0.339844)"/>
</clipPath>
</defs>
</svg>
