<svg width="62" height="62" viewBox="0 0 62 62" fill="none" xmlns="http://www.w3.org/2000/svg">
<g filter="url(#filter0_d_343_2022)">
<circle cx="33" cy="31" r="27" fill="#7950DD"/>
<path d="M42.166 24.8731C41.5018 24.4736 40.6383 24.4736 39.9077 24.8731L34.7268 27.9365L31.2065 29.9344L26.0258 32.9979C25.3616 33.3974 24.4981 33.3974 23.7675 32.9979L19.6494 30.6004C18.9852 30.2009 18.5202 29.4683 18.5202 28.6691V23.9408C18.5202 23.1416 18.9188 22.4091 19.6494 22.0095L23.701 19.6786C24.3652 19.2791 25.2287 19.2791 25.9594 19.6786L30.011 22.0095C30.6752 22.4091 31.1401 23.1416 31.1401 23.9408V27.0042L34.6604 24.9397V21.8763C34.6604 21.0772 34.262 20.3446 33.5313 19.945L26.0258 15.5497C25.3616 15.1501 24.4981 15.1501 23.7675 15.5497L16.1291 19.945C15.3985 20.3446 14.9999 21.0772 14.9999 21.8763V30.7336C14.9999 31.5327 15.3985 32.2653 16.1291 32.6649L23.7675 37.0602C24.4317 37.4598 25.2952 37.4598 26.0258 37.0602L31.2065 34.0634L34.7268 31.9989L39.9077 29.0021C40.5719 28.6025 41.4354 28.6025 42.166 29.0021L46.2176 31.333C46.8819 31.7326 47.3468 32.4651 47.3468 33.2642V37.9926C47.3468 38.7917 46.9483 39.5243 46.2176 39.9238L42.166 42.3214C41.5018 42.7209 40.6383 42.7209 39.9077 42.3214L35.8561 39.9905C35.1918 39.5909 34.7268 38.8583 34.7268 38.0591V34.9958L31.2065 37.0602V40.1237C31.2065 40.9228 31.6051 41.6553 32.3358 42.0549L39.9741 46.4503C40.6383 46.8499 41.5018 46.8499 42.2324 46.4503L49.8708 42.0549C50.535 41.6553 50.9999 40.9228 50.9999 40.1237V31.2664C50.9999 30.4672 50.6014 29.7347 49.8708 29.3351L42.166 24.8731Z" fill="white"/>
</g>
<defs>
<filter id="filter0_d_343_2022" x="0" y="0" width="62" height="62" filterUnits="userSpaceOnUse" color-interpolation-filters="sRGB">
<feFlood flood-opacity="0" result="BackgroundImageFix"/>
<feColorMatrix in="SourceAlpha" type="matrix" values="0 0 0 0 0 0 0 0 0 0 0 0 0 0 0 0 0 0 127 0" result="hardAlpha"/>
<feOffset dx="-2"/>
<feGaussianBlur stdDeviation="2"/>
<feComposite in2="hardAlpha" operator="out"/>
<feColorMatrix type="matrix" values="0 0 0 0 0 0 0 0 0 0 0 0 0 0 0 0 0 0 0.1 0"/>
<feBlend mode="normal" in2="BackgroundImageFix" result="effect1_dropShadow_343_2022"/>
<feBlend mode="normal" in="SourceGraphic" in2="effect1_dropShadow_343_2022" result="shape"/>
</filter>
</defs>
</svg>
