<svg width="306" height="118" viewBox="0 0 306 118" fill="none" xmlns="http://www.w3.org/2000/svg">
<g clip-path="url(#clip0_343_1907)">
<rect width="306" height="118" rx="10" fill="#1D1D24"/>
<circle cx="54" cy="56" r="38" fill="#11151B"/>
<path fill-rule="evenodd" clip-rule="evenodd" d="M50.2458 50.2214C53.2863 49.8623 54.9919 49.9247 58.0326 50.2214C58.0973 48.4909 58.4576 47.357 60.0524 44.853L63.8794 38.8999L65.7642 35.6016C65.9224 35.3248 66.0055 35.0116 66.0055 34.6928V34.2138C66.0055 33.9832 65.9048 33.7641 65.7297 33.614C65.6659 33.5593 65.5939 33.5152 65.5163 33.4833L65.4028 33.4366C65.2568 33.3764 65.1004 33.3455 64.9425 33.3455C64.8047 33.3455 64.6708 33.3914 64.5621 33.476L64.4907 33.5315L64.1452 33.7441L63.9865 33.8711C63.9158 33.9277 63.8563 33.9971 63.8114 34.0758C63.786 34.1203 63.7558 34.162 63.7215 34.2001L63.5339 34.4085L63.3213 34.6743L63.029 35.0198L62.6569 35.445L62.3646 35.7905L62.0722 36.0828L61.6204 36.4283L61.2928 36.6563C61.1043 36.7874 60.9023 36.8981 60.6903 36.9864L60.6189 37.0124C60.4718 37.0659 60.3209 37.1082 60.1674 37.1388C59.9672 37.1789 59.7636 37.199 59.5594 37.199H59.4943H59.0957C59.0073 37.199 58.919 37.1917 58.8317 37.1772L58.8034 37.1725L58.5907 37.1193L58.2453 36.9864L57.9795 36.8536L57.868 36.7935C57.7122 36.7096 57.5629 36.6142 57.4214 36.5081L57.129 36.2423L56.9754 36.0631C56.8654 35.9347 56.7651 35.7982 56.6755 35.6549C56.5882 35.5151 56.5112 35.3692 56.4452 35.2183L56.3583 35.0198L56.2488 34.713C56.2332 34.6695 56.2142 34.6275 56.1918 34.5871L56.139 34.4921C56.1085 34.4372 56.0653 34.3903 56.013 34.3555C55.9605 34.3205 55.9004 34.2986 55.8377 34.2916L55.6939 34.2757H55.6492C55.5729 34.2757 55.4966 34.282 55.4213 34.2945C55.2849 34.3172 55.1527 34.3602 55.029 34.4221L54.8435 34.5148L54.7576 34.5721C54.5496 34.7108 54.3558 34.8696 54.1791 35.0464L54.0462 35.1792L53.8867 35.3653L53.7007 35.5779L53.4349 35.8702L53.1426 36.136L52.744 36.5081L52.5313 36.7207L52.2656 36.9333L52.053 37.0927L51.8669 37.199L51.6543 37.3319L51.4151 37.4382L51.1494 37.518L50.9368 37.5445L50.7507 37.5711H50.5115H50.1926L49.8737 37.518L49.4485 37.3585L49.4287 37.35C49.1943 37.2496 48.9697 37.1279 48.7575 36.9864L48.4386 36.7738L48.0134 36.4283L47.6945 36.1891L47.2427 35.8171L46.9769 35.5779L46.9664 35.5674C46.7787 35.3798 46.578 35.2056 46.3656 35.0464L45.9936 34.7009L45.7012 34.4617L45.3557 34.1428L44.6116 33.5847L44.2395 33.3455L43.8591 33.1553C43.7589 33.1052 43.6521 33.0692 43.5419 33.0486L43.4098 33.0238C43.3261 33.0081 43.24 33.0107 43.1574 33.0313C43.0319 33.0627 42.9201 33.1345 42.8392 33.2355L42.8279 33.2496C42.7773 33.313 42.739 33.3853 42.7152 33.4628L42.676 33.5901C42.6553 33.6573 42.64 33.7259 42.63 33.7954L42.6171 33.8862C42.6002 34.0039 42.5918 34.1227 42.5918 34.2417V34.4617L42.6449 34.9135L42.7247 35.3121L42.9107 36.0297L43.1765 36.7738L43.4157 37.3851L43.8143 38.1824L44.2395 38.8734L44.585 39.4846L45.2229 40.4414L45.8607 41.3715L46.4985 42.3017L47.1363 43.1521L48.0134 44.3481L49.0233 45.7832L49.2625 46.1818L49.4219 46.4476L49.5814 46.7665L49.7674 47.1652L49.9534 47.6435L50.0597 47.989L50.1395 48.4143L50.1926 48.9192L50.2192 49.4242V49.9025L50.2458 50.2214ZM49.2893 51.9489C48.6235 52.6502 48.2161 53.0091 47.4024 53.5701C45.9042 54.67 45.1029 55.3417 43.7348 56.6263C42.3485 58.0797 41.6992 59.0185 40.6786 60.8254C39.6873 62.7823 39.3576 64.0183 39.0308 66.3798C38.942 68.1977 39.0363 69.1729 39.4295 70.8447C40.1448 73.1853 40.7868 74.214 42.2997 75.5753C43.4486 76.3336 44.1366 76.6336 45.4623 76.8775C50.3751 77.8728 53.4945 78.0732 60.4248 77.0901C62.5262 76.7597 63.6819 76.4825 65.6603 75.655C67.113 74.7197 67.7685 74.0639 68.4242 72.4658C68.9093 70.6414 69.1476 69.5971 68.9026 67.31C68.5345 64.8127 68.2567 63.4452 67.2283 61.2506C65.7418 58.3279 64.6702 56.9384 62.418 54.8191C62.3877 54.7945 62.3578 54.7703 62.3283 54.7464C61.6109 54.1639 61.1503 53.7899 60.4248 53.4106C59.5918 52.9841 59.1768 52.718 58.5379 52.1881C55.6055 51.4951 53.5002 51.5141 49.2893 51.9489Z" fill="url(#paint0_linear_343_1907)"/>
<path d="M58.0326 50.2214L58.0301 50.2479L58.0581 50.2506L58.0592 50.2224L58.0326 50.2214ZM50.2458 50.2214L50.2193 50.2237L50.2216 50.2511L50.2489 50.2478L50.2458 50.2214ZM60.0524 44.853L60.0301 44.8387L60.03 44.8388L60.0524 44.853ZM63.8794 38.8999L63.9018 38.9143L63.9025 38.9131L63.8794 38.8999ZM65.7642 35.6016L65.7873 35.6147L65.7642 35.6016ZM65.7297 33.614L65.7124 33.6341V33.6341L65.7297 33.614ZM65.5163 33.4833L65.5062 33.5079V33.5079L65.5163 33.4833ZM65.4028 33.4366L65.413 33.412V33.412L65.4028 33.4366ZM64.5621 33.476L64.5457 33.455V33.455L64.5621 33.476ZM64.4907 33.5315L64.5047 33.5543L64.507 33.5525L64.4907 33.5315ZM64.1452 33.7441L64.1312 33.7213L64.1286 33.7234L64.1452 33.7441ZM63.9865 33.8711L64.0031 33.8918V33.8918L63.9865 33.8711ZM63.8114 34.0758L63.8345 34.089V34.089L63.8114 34.0758ZM63.7215 34.2001L63.7413 34.2179V34.2179L63.7215 34.2001ZM63.5339 34.4085L63.5142 34.3907L63.5132 34.3919L63.5339 34.4085ZM63.3213 34.6743L63.3416 34.6915L63.3421 34.6909L63.3213 34.6743ZM63.029 35.0198L63.049 35.0373L63.0493 35.037L63.029 35.0198ZM62.6569 35.445L62.6369 35.4275L62.6366 35.4278L62.6569 35.445ZM62.3646 35.7905L62.3834 35.8094L62.3849 35.8077L62.3646 35.7905ZM62.0722 36.0828L62.0885 36.1041L62.091 36.1016L62.0722 36.0828ZM61.6204 36.4283L61.6356 36.4502L61.6366 36.4494L61.6204 36.4283ZM61.2928 36.6563L61.308 36.6781L61.2928 36.6563ZM60.6903 36.9864L60.6994 37.0114L60.7005 37.011L60.6903 36.9864ZM60.6189 37.0124L60.6098 36.9874L60.6189 37.0124ZM60.1674 37.1388L60.1622 37.1128L60.1674 37.1388ZM58.8317 37.1772L58.8361 37.151L58.8317 37.1772ZM58.8034 37.1725L58.7969 37.1983L58.799 37.1987L58.8034 37.1725ZM58.5907 37.1193L58.5811 37.1443L58.5843 37.1451L58.5907 37.1193ZM58.2453 36.9864L58.2333 37.0103L58.2357 37.0112L58.2453 36.9864ZM57.9795 36.8536L57.9669 36.877L57.9676 36.8773L57.9795 36.8536ZM57.868 36.7935L57.8806 36.7701V36.7701L57.868 36.7935ZM57.4214 36.5081L57.4034 36.5278L57.4054 36.5293L57.4214 36.5081ZM57.129 36.2423L57.1087 36.2597L57.1112 36.262L57.129 36.2423ZM56.9754 36.0631L56.9552 36.0804L56.9754 36.0631ZM56.6755 35.6549L56.653 35.6689V35.6689L56.6755 35.6549ZM56.4452 35.2183L56.4695 35.2076V35.2076L56.4452 35.2183ZM56.3583 35.0198L56.3332 35.0287L56.334 35.0304L56.3583 35.0198ZM56.2488 34.713L56.2738 34.704V34.704L56.2488 34.713ZM56.1918 34.5871L56.1686 34.6001V34.6001L56.1918 34.5871ZM56.139 34.4921L56.1158 34.5051L56.139 34.4921ZM56.013 34.3555L55.9982 34.3776L56.013 34.3555ZM55.8377 34.2916L55.8406 34.2652L55.8377 34.2916ZM55.6939 34.2757L55.6969 34.2491H55.6939V34.2757ZM55.4213 34.2945L55.4169 34.2683L55.4213 34.2945ZM55.029 34.4221L55.0409 34.4458V34.4458L55.029 34.4221ZM54.8435 34.5148L54.8315 34.4909L54.8287 34.4927L54.8435 34.5148ZM54.7576 34.5721L54.7723 34.5942L54.7576 34.5721ZM54.1791 35.0464L54.1603 35.0276L54.1791 35.0464ZM54.0462 35.1792L54.0273 35.1604L54.026 35.162L54.0462 35.1792ZM53.8867 35.3653L53.9067 35.3828L53.9069 35.3826L53.8867 35.3653ZM53.7007 35.5779L53.7204 35.5958L53.7207 35.5954L53.7007 35.5779ZM53.4349 35.8702L53.4529 35.89L53.4546 35.8881L53.4349 35.8702ZM53.1426 36.136L53.1247 36.1163L53.1245 36.1166L53.1426 36.136ZM52.744 36.5081L52.7258 36.4886L52.7252 36.4893L52.744 36.5081ZM52.5313 36.7207L52.548 36.7416L52.5501 36.7395L52.5313 36.7207ZM52.2656 36.9333L52.2815 36.9546L52.2822 36.954L52.2656 36.9333ZM52.053 37.0927L52.0663 37.116L52.0689 37.114L52.053 37.0927ZM51.8669 37.199L51.8537 37.176L51.8528 37.1765L51.8669 37.199ZM51.6543 37.3319L51.6652 37.3565L51.6684 37.3545L51.6543 37.3319ZM51.4151 37.4382L51.4228 37.4639L51.4259 37.4625L51.4151 37.4382ZM51.1494 37.518L51.1527 37.5447L51.157 37.5434L51.1494 37.518ZM50.9368 37.5445L50.9335 37.5182L50.933 37.5182L50.9368 37.5445ZM50.7507 37.5711V37.598L50.7545 37.5974L50.7507 37.5711ZM50.1926 37.5711L50.1882 37.5977H50.1926V37.5711ZM49.8737 37.518L49.8642 37.5433L49.8693 37.5442L49.8737 37.518ZM49.4485 37.3585L49.438 37.383L49.4392 37.3834L49.4485 37.3585ZM49.4287 37.35L49.4183 37.3745L49.4287 37.35ZM48.7575 36.9864L48.7722 36.9643L48.7575 36.9864ZM48.4386 36.7738L48.4218 36.7945L48.4238 36.7959L48.4386 36.7738ZM48.0134 36.4283L48.0301 36.4077L48.0293 36.4071L48.0134 36.4283ZM47.6945 36.1891L47.6775 36.2097L47.6785 36.2104L47.6945 36.1891ZM47.2427 35.8171L47.2249 35.8369L47.2258 35.8376L47.2427 35.8171ZM46.9769 35.5779L46.9581 35.5967L46.9591 35.5976L46.9769 35.5779ZM46.9664 35.5674L46.9852 35.5486L46.9664 35.5674ZM46.3656 35.0464L46.3475 35.0659L46.3497 35.0676L46.3656 35.0464ZM45.9936 34.7009L46.0117 34.6814L46.0104 34.6803L45.9936 34.7009ZM45.7012 34.4617L45.6832 34.4812L45.6844 34.4823L45.7012 34.4617ZM45.3557 34.1428L45.3739 34.1231L45.3717 34.1215L45.3557 34.1428ZM44.6116 33.5847L44.6276 33.5634L44.626 33.5623L44.6116 33.5847ZM44.2395 33.3455L44.254 33.323L44.2514 33.3217L44.2395 33.3455ZM43.8591 33.1553L43.871 33.1315V33.1315L43.8591 33.1553ZM43.5419 33.0486L43.5468 33.0225V33.0225L43.5419 33.0486ZM43.4098 33.0238L43.4049 33.0499V33.0499L43.4098 33.0238ZM43.1574 33.0313L43.151 33.0055L43.1574 33.0313ZM42.8392 33.2355L42.8185 33.2189V33.2189L42.8392 33.2355ZM42.8279 33.2496L42.8487 33.2662V33.2662L42.8279 33.2496ZM42.7152 33.4628L42.7406 33.4706L42.7152 33.4628ZM42.676 33.5901L42.6506 33.5823V33.5823L42.676 33.5901ZM42.63 33.7954L42.6037 33.7917V33.7917L42.63 33.7954ZM42.6171 33.8862L42.6434 33.89V33.89L42.6171 33.8862ZM42.5918 34.4617H42.565L42.5654 34.4648L42.5918 34.4617ZM42.6449 34.9135L42.6185 34.9166L42.6189 34.9187L42.6449 34.9135ZM42.7247 35.3121L42.6986 35.3173L42.699 35.3188L42.7247 35.3121ZM42.9107 36.0297L42.8849 36.0364L42.8857 36.0386L42.9107 36.0297ZM43.1765 36.7738L43.1514 36.7828L43.1517 36.7835L43.1765 36.7738ZM43.4157 37.3851L43.3908 37.3948L43.3919 37.397L43.4157 37.3851ZM43.8143 38.1824L43.7904 38.1943L43.7917 38.1963L43.8143 38.1824ZM44.2395 38.8734L44.2627 38.8603L44.2622 38.8594L44.2395 38.8734ZM44.585 39.4846L44.5618 39.4977L44.5629 39.4994L44.585 39.4846ZM45.2229 40.4414L45.2007 40.4561L45.2009 40.4564L45.2229 40.4414ZM45.8607 41.3715L45.8826 41.3565L45.8607 41.3715ZM46.4985 42.3017L46.4766 42.3167L46.4773 42.3176L46.4985 42.3017ZM47.1363 43.1521L47.1578 43.1364L47.1576 43.1362L47.1363 43.1521ZM48.0134 44.3481L48.0351 44.3328L48.0348 44.3324L48.0134 44.3481ZM49.0233 45.7832L49.0461 45.7695L49.045 45.7679L49.0233 45.7832ZM49.2625 46.1818L49.2852 46.1682L49.2625 46.1818ZM49.4219 46.4476L49.4458 46.4357L49.4447 46.4339L49.4219 46.4476ZM49.5814 46.7665L49.6055 46.7553L49.6051 46.7546L49.5814 46.7665ZM49.7674 47.1652L49.7922 47.1555L49.7915 47.1539L49.7674 47.1652ZM49.9534 47.6435L49.9789 47.6357L49.9782 47.6339L49.9534 47.6435ZM50.0597 47.989L50.086 47.9841L50.0851 47.9812L50.0597 47.989ZM50.1395 48.4143L50.166 48.4115L50.1656 48.4094L50.1395 48.4143ZM50.1926 48.9192L50.2192 48.9178L50.2191 48.9164L50.1926 48.9192ZM50.2192 49.4242H50.2458L50.2457 49.4228L50.2192 49.4242ZM50.2192 49.9025H50.1925L50.1927 49.9047L50.2192 49.9025ZM47.4024 53.5701L47.3873 53.5482L47.3866 53.5486L47.4024 53.5701ZM49.2893 51.9489L49.2866 51.9225L49.2768 51.9235L49.27 51.9306L49.2893 51.9489ZM43.7348 56.6263L43.7166 56.6069L43.7156 56.608L43.7348 56.6263ZM40.6786 60.8254L40.6554 60.8123L40.6549 60.8134L40.6786 60.8254ZM39.0308 66.3798L39.0044 66.3762L39.0043 66.3786L39.0308 66.3798ZM39.4295 70.8447L39.4035 70.8508L39.4041 70.8524L39.4295 70.8447ZM42.2997 75.5753L42.2817 75.5952L42.2851 75.5974L42.2997 75.5753ZM45.4623 76.8775L45.4676 76.8514L45.4671 76.8514L45.4623 76.8775ZM60.4248 77.0901L60.4285 77.1164L60.4289 77.1164L60.4248 77.0901ZM65.6603 75.655L65.6707 75.6799L65.6747 75.6773L65.6603 75.655ZM68.4242 72.4658L68.449 72.476L68.4499 72.4727L68.4242 72.4658ZM68.9026 67.31L68.9291 67.3072L68.9289 67.3061L68.9026 67.31ZM67.2283 61.2506L67.2524 61.2393L67.252 61.2386L67.2283 61.2506ZM62.418 54.8191L62.4363 54.7997L62.4347 54.7985L62.418 54.8191ZM62.3283 54.7464L62.3116 54.767H62.3116L62.3283 54.7464ZM60.4248 53.4106L60.4371 53.387L60.4369 53.3869L60.4248 53.4106ZM58.5379 52.1881L58.5568 52.1653L58.544 52.1622L58.5379 52.1881ZM58.0352 50.195C54.9932 49.8981 53.2856 49.8356 50.2427 50.1951L50.2489 50.2478C53.2869 49.8889 54.9906 49.9512 58.0301 50.2479L58.0352 50.195ZM60.03 44.8388C59.2323 46.0913 58.7423 47.0027 58.4438 47.8182C58.1451 48.6342 58.0385 49.3532 58.0061 50.2205L58.0592 50.2224C58.0915 49.3591 58.1974 48.6459 58.4937 47.8364C58.7902 47.0263 59.2778 46.1188 60.0749 44.8673L60.03 44.8388ZM63.8571 38.8856L60.0301 44.8387L60.0748 44.8674L63.9018 38.9143L63.8571 38.8856ZM65.7411 35.5884L63.8564 38.8867L63.9025 38.9131L65.7873 35.6147L65.7411 35.5884ZM65.979 34.6928C65.979 35.007 65.897 35.3156 65.7411 35.5884L65.7873 35.6147C65.9477 35.334 66.0321 35.0162 66.0321 34.6928H65.979ZM65.979 34.2138V34.6928H66.0321V34.2138H65.979ZM65.7124 33.6341C65.8816 33.7792 65.979 33.9909 65.979 34.2138H66.0321C66.0321 33.9754 65.9279 33.7489 65.747 33.5938L65.7124 33.6341ZM65.5062 33.5079C65.5812 33.5387 65.6508 33.5814 65.7124 33.6341L65.747 33.5938C65.6811 33.5373 65.6067 33.4917 65.5264 33.4587L65.5062 33.5079ZM65.3927 33.4611L65.5062 33.5079L65.5264 33.4587L65.413 33.412L65.3927 33.4611ZM64.9425 33.3721C65.0969 33.3721 65.2499 33.4023 65.3927 33.4611L65.413 33.412C65.2637 33.3505 65.1039 33.3189 64.9425 33.3189V33.3721ZM64.5784 33.497C64.6825 33.416 64.8106 33.3721 64.9425 33.3721V33.3189C64.7988 33.3189 64.6592 33.3668 64.5457 33.455L64.5784 33.497ZM64.507 33.5525L64.5784 33.497L64.5457 33.455L64.4744 33.5105L64.507 33.5525ZM64.1591 33.7668L64.5046 33.5541L64.4768 33.5089L64.1313 33.7215L64.1591 33.7668ZM64.0031 33.8918L64.1618 33.7649L64.1286 33.7234L63.9699 33.8503L64.0031 33.8918ZM63.8345 34.089C63.8778 34.0132 63.935 33.9463 64.0031 33.8918L63.9699 33.8503C63.8966 33.909 63.8349 33.981 63.7883 34.0626L63.8345 34.089ZM63.7413 34.2179C63.7769 34.1784 63.8081 34.1352 63.8345 34.089L63.7883 34.0626C63.7638 34.1055 63.7348 34.1456 63.7018 34.1823L63.7413 34.2179ZM63.5537 34.4263L63.7413 34.2179L63.7018 34.1823L63.5142 34.3908L63.5537 34.4263ZM63.3421 34.6909L63.5547 34.4251L63.5132 34.3919L63.3006 34.6577L63.3421 34.6909ZM63.0493 35.037L63.3416 34.6915L63.301 34.6571L63.0087 35.0026L63.0493 35.037ZM62.6769 35.4625L63.049 35.0373L63.009 35.0023L62.6369 35.4275L62.6769 35.4625ZM62.3849 35.8077L62.6772 35.4622L62.6366 35.4278L62.3443 35.7733L62.3849 35.8077ZM62.091 36.1016L62.3834 35.8093L62.3458 35.7717L62.0535 36.064L62.091 36.1016ZM61.6366 36.4494L62.0884 36.104L62.0561 36.0617L61.6043 36.4072L61.6366 36.4494ZM61.308 36.6781L61.6356 36.4502L61.6053 36.4065L61.2776 36.6344L61.308 36.6781ZM60.7005 37.011C60.9142 36.9219 61.1179 36.8103 61.308 36.6781L61.2776 36.6344C61.0906 36.7645 60.8903 36.8743 60.6801 36.9619L60.7005 37.011ZM60.628 37.0374L60.6994 37.0114L60.6812 36.9615L60.6098 36.9874L60.628 37.0374ZM60.1726 37.1649C60.3274 37.134 60.4796 37.0913 60.628 37.0374L60.6098 36.9874C60.464 37.0405 60.3143 37.0824 60.1622 37.1128L60.1726 37.1649ZM59.5594 37.2256C59.7653 37.2256 59.9707 37.2053 60.1726 37.1649L60.1622 37.1128C59.9637 37.1525 59.7618 37.1725 59.5594 37.1725V37.2256ZM59.4943 37.2256H59.5594V37.1725H59.4943V37.2256ZM59.0957 37.2256H59.4943V37.1725H59.0957V37.2256ZM58.8274 37.2034C58.916 37.2182 59.0058 37.2256 59.0957 37.2256V37.1725C59.0087 37.1725 58.9219 37.1653 58.8361 37.151L58.8274 37.2034ZM58.799 37.1987L58.8274 37.2034L58.8361 37.151L58.8077 37.1463L58.799 37.1987ZM58.5843 37.1451L58.7969 37.1983L58.8098 37.1467L58.5972 37.0935L58.5843 37.1451ZM58.2357 37.0112L58.5812 37.1441L58.6003 37.0945L58.2548 36.9616L58.2357 37.0112ZM57.9676 36.8773L58.2334 37.0102L58.2571 36.9627L57.9914 36.8298L57.9676 36.8773ZM57.8554 36.8169L57.9669 36.877L57.9921 36.8302L57.8806 36.7701L57.8554 36.8169ZM57.4054 36.5293C57.548 36.6363 57.6984 36.7324 57.8554 36.8169L57.8806 36.7701C57.726 36.6869 57.5778 36.5922 57.4373 36.4868L57.4054 36.5293ZM57.1112 36.262L57.4035 36.5277L57.4393 36.4884L57.1469 36.2226L57.1112 36.262ZM56.9552 36.0804L57.1089 36.2596L57.1492 36.225L56.9956 36.0458L56.9552 36.0804ZM56.653 35.6689C56.7433 35.8135 56.8443 35.951 56.9552 36.0804L56.9956 36.0458C56.8864 35.9184 56.787 35.783 56.6981 35.6408L56.653 35.6689ZM56.4208 35.229C56.4874 35.3811 56.565 35.5281 56.653 35.6689L56.6981 35.6408C56.6114 35.5022 56.535 35.3574 56.4695 35.2076L56.4208 35.229ZM56.334 35.0304L56.4208 35.229L56.4695 35.2076L56.3827 35.0091L56.334 35.0304ZM56.2237 34.7219L56.3333 35.0287L56.3834 35.0109L56.2738 34.704L56.2237 34.7219ZM56.1686 34.6001C56.1903 34.6391 56.2087 34.6799 56.2237 34.7219L56.2738 34.704C56.2578 34.6592 56.2381 34.6158 56.215 34.5742L56.1686 34.6001ZM56.1158 34.5051L56.1686 34.6001L56.215 34.5742L56.1623 34.4792L56.1158 34.5051ZM55.9982 34.3776C56.047 34.4101 56.0873 34.4538 56.1158 34.5051L56.1623 34.4792C56.1297 34.4206 56.0835 34.3706 56.0277 34.3334L55.9982 34.3776ZM55.8348 34.318C55.8932 34.3245 55.9493 34.345 55.9982 34.3776L56.0277 34.3334C55.9717 34.296 55.9076 34.2726 55.8406 34.2652L55.8348 34.318ZM55.691 34.3021L55.8348 34.318L55.8406 34.2652L55.6969 34.2492L55.691 34.3021ZM55.6492 34.3022H55.6939V34.2491H55.6492V34.3022ZM55.4256 34.3207C55.4995 34.3084 55.5743 34.3022 55.6492 34.3022V34.2491C55.5714 34.2491 55.4937 34.2555 55.4169 34.2683L55.4256 34.3207ZM55.0409 34.4458C55.1622 34.3852 55.2919 34.343 55.4256 34.3207L55.4169 34.2683C55.2779 34.2915 55.1432 34.3353 55.0171 34.3983L55.0409 34.4458ZM54.8554 34.5386L55.0409 34.4458L55.0171 34.3983L54.8316 34.4911L54.8554 34.5386ZM54.7723 34.5942L54.8582 34.537L54.8287 34.4927L54.7428 34.55L54.7723 34.5942ZM54.1979 35.0652C54.3734 34.8897 54.5658 34.7319 54.7723 34.5942L54.7428 34.55C54.5334 34.6896 54.3383 34.8496 54.1603 35.0276L54.1979 35.0652ZM54.065 35.198L54.1979 35.0652L54.1603 35.0276L54.0274 35.1605L54.065 35.198ZM53.9069 35.3826L54.0664 35.1965L54.026 35.162L53.8666 35.348L53.9069 35.3826ZM53.7207 35.5954L53.9067 35.3828L53.8667 35.3478L53.6807 35.5604L53.7207 35.5954ZM53.4546 35.8881L53.7204 35.5958L53.681 35.56L53.4153 35.8524L53.4546 35.8881ZM53.1605 36.1557L53.4528 35.8899L53.4171 35.8506L53.1247 36.1163L53.1605 36.1557ZM52.7621 36.5275L53.1607 36.1554L53.1245 36.1166L52.7258 36.4886L52.7621 36.5275ZM52.5501 36.7395L52.7627 36.5269L52.7252 36.4893L52.5126 36.7019L52.5501 36.7395ZM52.2822 36.954L52.5479 36.7414L52.5147 36.6999L52.249 36.9125L52.2822 36.954ZM52.0689 37.114L52.2815 36.9545L52.2496 36.912L52.037 37.0715L52.0689 37.114ZM51.8801 37.2221L52.0662 37.1158L52.0398 37.0697L51.8537 37.176L51.8801 37.2221ZM51.6684 37.3545L51.881 37.2216L51.8528 37.1765L51.6402 37.3094L51.6684 37.3545ZM51.4259 37.4625L51.6651 37.3562L51.6435 37.3076L51.4043 37.4139L51.4259 37.4625ZM51.157 37.5434L51.4228 37.4637L51.4075 37.4128L51.1417 37.4925L51.157 37.5434ZM50.9401 37.5709L51.1527 37.5443L51.1461 37.4916L50.9335 37.5182L50.9401 37.5709ZM50.7545 37.5974L50.9405 37.5708L50.933 37.5182L50.747 37.5448L50.7545 37.5974ZM50.5115 37.5977H50.7507V37.5445H50.5115V37.5977ZM50.1926 37.5977H50.5115V37.5445H50.1926V37.5977ZM49.8693 37.5442L50.1883 37.5973L50.197 37.5449L49.8781 37.4917L49.8693 37.5442ZM49.4392 37.3834L49.8644 37.5428L49.883 37.4931L49.4578 37.3336L49.4392 37.3834ZM49.4183 37.3745L49.438 37.3829L49.459 37.3341L49.4392 37.3256L49.4183 37.3745ZM48.7428 37.0086C48.9563 37.1509 49.1824 37.2734 49.4183 37.3745L49.4392 37.3256C49.2063 37.2258 48.9831 37.1049 48.7722 36.9643L48.7428 37.0086ZM48.4238 36.7959L48.7428 37.0086L48.7722 36.9643L48.4533 36.7517L48.4238 36.7959ZM47.9966 36.449L48.4218 36.7945L48.4553 36.7532L48.0301 36.4077L47.9966 36.449ZM47.6785 36.2104L47.9974 36.4496L48.0293 36.4071L47.7104 36.1679L47.6785 36.2104ZM47.2258 35.8376L47.6776 36.2097L47.7113 36.1686L47.2595 35.7966L47.2258 35.8376ZM46.9591 35.5976L47.2249 35.8368L47.2604 35.7973L46.9947 35.5581L46.9591 35.5976ZM46.9476 35.5862L46.9581 35.5967L46.9957 35.5591L46.9852 35.5486L46.9476 35.5862ZM46.3497 35.0676C46.561 35.2261 46.7608 35.3994 46.9476 35.5862L46.9852 35.5486C46.7967 35.3601 46.5949 35.1851 46.3816 35.0251L46.3497 35.0676ZM45.9755 34.7203L46.3476 35.0658L46.3837 35.0269L46.0117 34.6814L45.9755 34.7203ZM45.6844 34.4823L45.9767 34.7214L46.0104 34.6803L45.7181 34.4411L45.6844 34.4823ZM45.3377 34.1623L45.6832 34.4812L45.7193 34.4422L45.3738 34.1232L45.3377 34.1623ZM44.5957 33.6059L45.3398 34.164L45.3717 34.1215L44.6275 33.5634L44.5957 33.6059ZM44.2252 33.3678L44.5972 33.607L44.626 33.5623L44.2539 33.3231L44.2252 33.3678ZM43.8472 33.1791L44.2276 33.3693L44.2514 33.3217L43.871 33.1315L43.8472 33.1791ZM43.537 33.0747C43.6448 33.0949 43.7492 33.13 43.8472 33.1791L43.871 33.1315C43.7685 33.0803 43.6594 33.0436 43.5468 33.0225L43.537 33.0747ZM43.4049 33.0499L43.537 33.0747L43.5468 33.0225L43.4147 32.9977L43.4049 33.0499ZM43.1639 33.0571C43.2428 33.0374 43.325 33.0349 43.4049 33.0499L43.4147 32.9977C43.3272 32.9813 43.2373 32.984 43.151 33.0055L43.1639 33.0571ZM42.86 33.2521C42.9372 33.1556 43.044 33.0871 43.1639 33.0571L43.151 33.0055C43.0198 33.0383 42.903 33.1133 42.8185 33.2189L42.86 33.2521ZM42.8487 33.2662L42.86 33.2521L42.8185 33.2189L42.8072 33.233L42.8487 33.2662ZM42.7406 33.4706C42.7634 33.3963 42.8001 33.327 42.8487 33.2662L42.8072 33.233C42.7544 33.299 42.7146 33.3743 42.6898 33.455L42.7406 33.4706ZM42.7014 33.598L42.7406 33.4706L42.6898 33.455L42.6506 33.5823L42.7014 33.598ZM42.6563 33.7992C42.6661 33.731 42.6811 33.6637 42.7014 33.598L42.6506 33.5823C42.6295 33.6508 42.6138 33.7208 42.6037 33.7917L42.6563 33.7992ZM42.6434 33.89L42.6563 33.7992L42.6037 33.7917L42.5907 33.8824L42.6434 33.89ZM42.6184 34.2417C42.6184 34.124 42.6267 34.0065 42.6434 33.89L42.5907 33.8824C42.5738 34.0014 42.5652 34.1215 42.5652 34.2417H42.6184ZM42.6184 34.4617V34.2417H42.5652V34.4617H42.6184ZM42.6713 34.9104L42.6182 34.4586L42.5654 34.4648L42.6186 34.9166L42.6713 34.9104ZM42.7507 35.3069L42.671 34.9083L42.6189 34.9187L42.6986 35.3173L42.7507 35.3069ZM42.9364 36.023L42.7504 35.3055L42.699 35.3188L42.885 36.0364L42.9364 36.023ZM43.2015 36.7649L42.9357 36.0208L42.8857 36.0386L43.1514 36.7828L43.2015 36.7649ZM43.4404 37.3754L43.2012 36.7641L43.1517 36.7835L43.3909 37.3948L43.4404 37.3754ZM43.8381 38.1705L43.4394 37.3732L43.3919 37.397L43.7905 38.1943L43.8381 38.1705ZM44.2622 38.8594L43.8369 38.1684L43.7917 38.1963L44.2169 38.8873L44.2622 38.8594ZM44.6082 39.4715L44.2627 38.8603L44.2164 38.8864L44.5619 39.4977L44.6082 39.4715ZM45.245 40.4266L44.6071 39.4699L44.5629 39.4994L45.2007 40.4561L45.245 40.4266ZM45.8826 41.3565L45.2448 40.4263L45.2009 40.4564L45.8388 41.3866L45.8826 41.3565ZM46.5204 42.2867L45.8826 41.3565L45.8388 41.3866L46.4766 42.3167L46.5204 42.2867ZM47.1576 43.1362L46.5198 42.2858L46.4773 42.3176L47.1151 43.1681L47.1576 43.1362ZM48.0348 44.3324L47.1578 43.1364L47.1149 43.1679L47.9919 44.3638L48.0348 44.3324ZM49.045 45.7679L48.0351 44.3328L47.9916 44.3634L49.0015 45.7985L49.045 45.7679ZM49.2852 46.1682L49.0461 45.7695L49.0005 45.7969L49.2397 46.1955L49.2852 46.1682ZM49.4447 46.4339L49.2852 46.1682L49.2397 46.1955L49.3991 46.4613L49.4447 46.4339ZM49.6051 46.7546L49.4457 46.4357L49.3981 46.4595L49.5576 46.7784L49.6051 46.7546ZM49.7915 47.1539L49.6055 46.7553L49.5573 46.7778L49.7433 47.1764L49.7915 47.1539ZM49.9782 47.6339L49.7922 47.1555L49.7426 47.1748L49.9287 47.6532L49.9782 47.6339ZM50.0851 47.9812L49.9788 47.6357L49.928 47.6514L50.0343 47.9969L50.0851 47.9812ZM50.1656 48.4094L50.0859 47.9841L50.0336 47.9939L50.1134 48.4192L50.1656 48.4094ZM50.2191 48.9164L50.1659 48.4115L50.113 48.417L50.1662 48.922L50.2191 48.9164ZM50.2457 49.4228L50.2192 48.9178L50.1661 48.9206L50.1927 49.4256L50.2457 49.4228ZM50.2458 49.9025V49.4242H50.1926V49.9025H50.2458ZM50.2723 50.2192L50.2457 49.9003L50.1927 49.9047L50.2193 50.2237L50.2723 50.2192ZM47.4175 53.5919C48.2328 53.0299 48.6416 52.6697 49.3086 51.9672L49.27 51.9306C48.6053 52.6307 48.1993 52.9884 47.3873 53.5482L47.4175 53.5919ZM43.753 56.6457C45.1203 55.3617 45.9208 54.6908 47.4181 53.5915L47.3866 53.5486C45.8875 54.6493 45.0854 55.3216 43.7166 56.607L43.753 56.6457ZM40.7017 60.8385C41.7215 59.0331 42.3696 58.0961 43.7541 56.6447L43.7156 56.608C42.3275 58.0632 41.6769 59.004 40.6554 60.8123L40.7017 60.8385ZM39.0572 66.3835C39.3837 64.0241 39.7127 62.7911 40.7023 60.8374L40.6549 60.8134C39.662 62.7735 39.3316 64.0125 39.0045 66.3762L39.0572 66.3835ZM39.4553 70.8386C39.0627 69.1693 38.9687 68.1965 39.0574 66.3811L39.0043 66.3786C38.9153 68.1988 39.0098 69.1766 39.4036 70.8508L39.4553 70.8386ZM42.3175 75.5555C41.5622 74.8759 41.0254 74.2804 40.5882 73.5634C40.1508 72.8462 39.8123 72.0063 39.4549 70.8369L39.4041 70.8524C39.762 72.0237 40.1021 72.8684 40.5428 73.5911C40.9836 74.3139 41.5243 74.9134 42.2819 75.595L42.3175 75.5555ZM45.4671 76.8514C44.1453 76.6081 43.4607 76.3097 42.3144 75.5531L42.2851 75.5974C43.4366 76.3575 44.1278 76.659 45.4575 76.9036L45.4671 76.8514ZM60.421 77.0638C53.4936 78.0465 50.3772 77.8461 45.4676 76.8515L45.457 76.9035C50.373 77.8995 53.4955 78.0999 60.4285 77.1164L60.421 77.0638ZM65.6501 75.6305C63.674 76.4569 62.5205 76.7337 60.4206 77.0639L60.4289 77.1164C62.5319 76.7857 63.6897 76.508 65.6706 75.6795L65.6501 75.6305ZM68.3997 72.4557C68.0725 73.253 67.7461 73.8136 67.3213 74.2913C66.8962 74.7692 66.3716 75.1654 65.6459 75.6326L65.6747 75.6773C66.4017 75.2093 66.9312 74.8099 67.361 74.3266C67.791 73.8431 68.1202 73.2767 68.4488 72.4759L68.3997 72.4557ZM68.8762 67.3129C69.1207 69.5955 68.8832 70.6362 68.3986 72.459L68.4499 72.4727C68.9354 70.6465 69.1745 69.5988 68.929 67.3072L68.8762 67.3129ZM67.2043 61.2619C68.2311 63.4531 68.5084 64.8178 68.8763 67.3139L68.9289 67.3061C68.5606 64.8077 68.2823 63.4373 67.2524 61.2393L67.2043 61.2619ZM62.3998 54.8385C64.6498 56.9557 65.7196 58.3427 67.2046 61.2627L67.252 61.2386C65.7641 58.313 64.6906 56.9211 62.4362 54.7998L62.3998 54.8385ZM62.3116 54.767C62.341 54.7909 62.3709 54.8152 62.4013 54.8398L62.4347 54.7985C62.4044 54.7739 62.3745 54.7496 62.3451 54.7257L62.3116 54.767ZM60.4125 53.4341C61.1353 53.812 61.594 54.1844 62.3116 54.767L62.3451 54.7257C61.6278 54.1433 61.1652 53.7677 60.4371 53.387L60.4125 53.4341ZM58.5209 52.2085C59.1616 52.7399 59.5783 53.007 60.4127 53.4343L60.4369 53.3869C59.6054 52.9612 59.192 52.6961 58.5548 52.1676L58.5209 52.2085ZM49.292 51.9753C53.5018 51.5406 55.6037 51.522 58.5317 52.214L58.544 52.1622C55.6074 51.4683 53.4986 51.4875 49.2866 51.9225L49.292 51.9753Z" fill="black"/>
<path d="M53.2523 74.1515V71.7947H54.7718V74.1515H53.2523ZM53.2523 57.5397V55.1725H54.7718V57.5397H53.2523ZM54.193 72.4252C53.2075 72.4252 52.3185 72.2495 51.526 71.898C50.7404 71.5466 50.0891 71.0504 49.5722 70.4095C49.0623 69.7686 48.728 69.0105 48.5695 68.1353L50.0478 67.8769C50.2752 68.8279 50.7645 69.5825 51.5156 70.1407C52.2737 70.692 53.1868 70.9677 54.255 70.9677C55.3369 70.9677 56.2122 70.7058 56.8806 70.1821C57.5491 69.6514 57.8833 68.9588 57.8833 68.1043C57.8833 67.4703 57.6973 66.9638 57.3251 66.5847C56.953 66.2057 56.3224 65.8818 55.4334 65.613L52.1255 64.5793C50.127 63.9522 49.1278 62.7669 49.1278 61.0233C49.1278 60.2101 49.3276 59.4969 49.7273 58.8835C50.1339 58.2633 50.6956 57.7809 51.4123 57.4363C52.1359 57.0918 52.9801 56.9229 53.9449 56.9298C54.889 56.9298 55.7332 57.109 56.4775 57.4673C57.2287 57.8188 57.8454 58.3184 58.3278 58.9662C58.8102 59.614 59.1307 60.3824 59.2892 61.2714L57.7696 61.5609C57.6731 60.9268 57.4492 60.3721 57.0977 59.8966C56.7531 59.4211 56.3086 59.0524 55.7642 58.7905C55.2198 58.5217 54.6133 58.3839 53.9449 58.377C53.3109 58.377 52.7458 58.4873 52.2496 58.7078C51.7534 58.9283 51.3606 59.235 51.0711 59.6278C50.7886 60.0137 50.6473 60.4582 50.6473 60.9613C50.6473 61.5126 50.8437 61.9812 51.2365 62.3672C51.6362 62.7462 52.2668 63.0666 53.1282 63.3285L55.971 64.1865C57.1701 64.5449 58.035 65.0273 58.5656 65.6337C59.0962 66.2402 59.3616 67.0499 59.3616 68.0629C59.3616 68.9382 59.1479 69.7031 58.7206 70.3578C58.2934 71.0125 57.6904 71.5224 56.9116 71.8877C56.1398 72.246 55.2336 72.4252 54.193 72.4252Z" fill="black"/>
<path d="M106.26 50V37.04H111.264C111.99 37.04 112.623 37.19 113.163 37.49C113.703 37.79 114.123 38.195 114.423 38.705C114.723 39.209 114.873 39.767 114.873 40.379C114.873 41.075 114.687 41.696 114.315 42.242C113.943 42.782 113.445 43.157 112.821 43.367L112.803 42.926C113.643 43.166 114.303 43.586 114.783 44.186C115.263 44.786 115.503 45.512 115.503 46.364C115.503 47.114 115.344 47.762 115.026 48.308C114.708 48.848 114.261 49.265 113.685 49.559C113.109 49.853 112.44 50 111.678 50H106.26ZM107.592 48.731H111.354C111.882 48.731 112.356 48.638 112.776 48.452C113.196 48.26 113.526 47.99 113.766 47.642C114.012 47.294 114.135 46.874 114.135 46.382C114.135 45.902 114.024 45.47 113.802 45.086C113.58 44.702 113.277 44.396 112.893 44.168C112.515 43.934 112.083 43.817 111.597 43.817H107.592V48.731ZM107.592 42.566H111.255C111.669 42.566 112.047 42.473 112.389 42.287C112.731 42.095 113.001 41.834 113.199 41.504C113.403 41.174 113.505 40.793 113.505 40.361C113.505 39.749 113.292 39.251 112.866 38.867C112.446 38.483 111.909 38.291 111.255 38.291H107.592V42.566ZM121.412 50.27C120.464 50.27 119.642 50.06 118.946 49.64C118.256 49.22 117.719 48.629 117.335 47.867C116.951 47.105 116.759 46.211 116.759 45.185C116.759 44.123 116.948 43.205 117.326 42.431C117.704 41.657 118.235 41.06 118.919 40.64C119.609 40.22 120.422 40.01 121.358 40.01C122.318 40.01 123.137 40.232 123.815 40.676C124.493 41.114 125.006 41.744 125.354 42.566C125.702 43.388 125.861 44.369 125.831 45.509H124.481V45.041C124.457 43.781 124.184 42.83 123.662 42.188C123.146 41.546 122.39 41.225 121.394 41.225C120.35 41.225 119.549 41.564 118.991 42.242C118.439 42.92 118.163 43.886 118.163 45.14C118.163 46.364 118.439 47.315 118.991 47.993C119.549 48.665 120.338 49.001 121.358 49.001C122.054 49.001 122.66 48.842 123.176 48.524C123.698 48.2 124.109 47.735 124.409 47.129L125.642 47.606C125.258 48.452 124.691 49.109 123.941 49.577C123.197 50.039 122.354 50.27 121.412 50.27ZM117.695 45.509V44.402H125.12V45.509H117.695ZM131.455 50.261C130.315 50.261 129.376 50.015 128.638 49.523C127.906 49.031 127.456 48.347 127.288 47.471L128.638 47.246C128.782 47.798 129.109 48.239 129.619 48.569C130.135 48.893 130.771 49.055 131.527 49.055C132.265 49.055 132.847 48.902 133.273 48.596C133.699 48.284 133.912 47.861 133.912 47.327C133.912 47.027 133.843 46.784 133.705 46.598C133.573 46.406 133.3 46.229 132.886 46.067C132.472 45.905 131.854 45.713 131.032 45.491C130.15 45.251 129.46 45.011 128.962 44.771C128.464 44.531 128.11 44.255 127.9 43.943C127.69 43.625 127.585 43.238 127.585 42.782C127.585 42.23 127.741 41.747 128.053 41.333C128.365 40.913 128.797 40.589 129.349 40.361C129.901 40.127 130.543 40.01 131.275 40.01C132.007 40.01 132.661 40.13 133.237 40.37C133.819 40.604 134.287 40.934 134.641 41.36C134.995 41.786 135.205 42.281 135.271 42.845L133.921 43.088C133.831 42.518 133.546 42.068 133.066 41.738C132.592 41.402 131.989 41.228 131.257 41.216C130.567 41.198 130.006 41.33 129.574 41.612C129.142 41.888 128.926 42.257 128.926 42.719C128.926 42.977 129.004 43.199 129.16 43.385C129.316 43.565 129.598 43.736 130.006 43.898C130.42 44.06 131.008 44.237 131.77 44.429C132.664 44.657 133.366 44.897 133.876 45.149C134.386 45.401 134.749 45.698 134.965 46.04C135.181 46.382 135.289 46.805 135.289 47.309C135.289 48.227 134.947 48.95 134.263 49.478C133.585 50 132.649 50.261 131.455 50.261ZM142.577 50C142.031 50.114 141.491 50.159 140.957 50.135C140.429 50.111 139.955 49.997 139.535 49.793C139.121 49.589 138.806 49.271 138.59 48.839C138.416 48.479 138.32 48.116 138.302 47.75C138.29 47.378 138.284 46.955 138.284 46.481V37.58H139.598V46.427C139.598 46.835 139.601 47.177 139.607 47.453C139.619 47.723 139.682 47.963 139.796 48.173C140.012 48.575 140.354 48.815 140.822 48.893C141.296 48.971 141.881 48.953 142.577 48.839V50ZM136.205 41.414V40.28H142.577V41.414H136.205ZM152.461 50.27C151.567 50.27 150.811 50.045 150.193 49.595C149.575 49.139 149.107 48.524 148.789 47.75C148.471 46.97 148.312 46.097 148.312 45.131C148.312 44.147 148.471 43.271 148.789 42.503C149.113 41.729 149.587 41.12 150.211 40.676C150.835 40.232 151.603 40.01 152.515 40.01C153.403 40.01 154.165 40.235 154.801 40.685C155.437 41.135 155.923 41.747 156.259 42.521C156.601 43.295 156.772 44.165 156.772 45.131C156.772 46.103 156.601 46.976 156.259 47.75C155.917 48.524 155.425 49.139 154.783 49.595C154.141 50.045 153.367 50.27 152.461 50.27ZM148.087 54.32V40.28H149.275V47.597H149.419V54.32H148.087ZM152.326 49.037C153.004 49.037 153.568 48.866 154.018 48.524C154.468 48.182 154.804 47.717 155.026 47.129C155.254 46.535 155.368 45.869 155.368 45.131C155.368 44.399 155.257 43.739 155.035 43.151C154.813 42.563 154.474 42.098 154.018 41.756C153.568 41.414 152.995 41.243 152.299 41.243C151.621 41.243 151.057 41.408 150.607 41.738C150.163 42.068 149.83 42.527 149.608 43.115C149.386 43.697 149.275 44.369 149.275 45.131C149.275 45.881 149.386 46.553 149.608 47.147C149.83 47.735 150.166 48.197 150.616 48.533C151.066 48.869 151.636 49.037 152.326 49.037ZM158.748 50V40.28H159.936V42.62L159.702 42.314C159.81 42.026 159.951 41.762 160.125 41.522C160.299 41.276 160.488 41.075 160.692 40.919C160.944 40.697 161.238 40.529 161.574 40.415C161.91 40.295 162.249 40.226 162.591 40.208C162.933 40.184 163.245 40.208 163.527 40.28V41.522C163.173 41.432 162.786 41.411 162.366 41.459C161.946 41.507 161.559 41.675 161.205 41.963C160.881 42.215 160.638 42.518 160.476 42.872C160.314 43.22 160.206 43.592 160.152 43.988C160.098 44.378 160.071 44.765 160.071 45.149V50H158.748ZM165.415 38.435V36.95H166.738V38.435H165.415ZM165.415 50V40.28H166.738V50H165.415ZM173.468 50.27C172.49 50.27 171.662 50.051 170.984 49.613C170.306 49.175 169.79 48.572 169.436 47.804C169.088 47.03 168.908 46.142 168.896 45.14C168.908 44.12 169.094 43.226 169.454 42.458C169.814 41.684 170.333 41.084 171.011 40.658C171.689 40.226 172.511 40.01 173.477 40.01C174.461 40.01 175.316 40.25 176.042 40.73C176.774 41.21 177.275 41.867 177.545 42.701L176.249 43.115C176.021 42.533 175.658 42.083 175.16 41.765C174.668 41.441 174.104 41.279 173.468 41.279C172.754 41.279 172.163 41.444 171.695 41.774C171.227 42.098 170.879 42.551 170.651 43.133C170.423 43.715 170.306 44.384 170.3 45.14C170.312 46.304 170.582 47.24 171.11 47.948C171.638 48.65 172.424 49.001 173.468 49.001C174.128 49.001 174.689 48.851 175.151 48.551C175.619 48.245 175.973 47.801 176.213 47.219L177.545 47.615C177.185 48.479 176.657 49.139 175.961 49.595C175.265 50.045 174.434 50.27 173.468 50.27ZM183.252 50.27C182.304 50.27 181.482 50.06 180.786 49.64C180.096 49.22 179.559 48.629 179.175 47.867C178.791 47.105 178.599 46.211 178.599 45.185C178.599 44.123 178.788 43.205 179.166 42.431C179.544 41.657 180.075 41.06 180.759 40.64C181.449 40.22 182.262 40.01 183.198 40.01C184.158 40.01 184.977 40.232 185.655 40.676C186.333 41.114 186.846 41.744 187.194 42.566C187.542 43.388 187.701 44.369 187.671 45.509H186.321V45.041C186.297 43.781 186.024 42.83 185.502 42.188C184.986 41.546 184.23 41.225 183.234 41.225C182.19 41.225 181.389 41.564 180.831 42.242C180.279 42.92 180.003 43.886 180.003 45.14C180.003 46.364 180.279 47.315 180.831 47.993C181.389 48.665 182.178 49.001 183.198 49.001C183.894 49.001 184.5 48.842 185.016 48.524C185.538 48.2 185.949 47.735 186.249 47.129L187.482 47.606C187.098 48.452 186.531 49.109 185.781 49.577C185.037 50.039 184.194 50.27 183.252 50.27ZM179.535 45.509V44.402H186.96V45.509H179.535ZM193.295 50.261C192.155 50.261 191.216 50.015 190.478 49.523C189.746 49.031 189.296 48.347 189.128 47.471L190.478 47.246C190.622 47.798 190.949 48.239 191.459 48.569C191.975 48.893 192.611 49.055 193.367 49.055C194.105 49.055 194.687 48.902 195.113 48.596C195.539 48.284 195.752 47.861 195.752 47.327C195.752 47.027 195.683 46.784 195.545 46.598C195.413 46.406 195.14 46.229 194.726 46.067C194.312 45.905 193.694 45.713 192.872 45.491C191.99 45.251 191.3 45.011 190.802 44.771C190.304 44.531 189.95 44.255 189.74 43.943C189.53 43.625 189.425 43.238 189.425 42.782C189.425 42.23 189.581 41.747 189.893 41.333C190.205 40.913 190.637 40.589 191.189 40.361C191.741 40.127 192.383 40.01 193.115 40.01C193.847 40.01 194.501 40.13 195.077 40.37C195.659 40.604 196.127 40.934 196.481 41.36C196.835 41.786 197.045 42.281 197.111 42.845L195.761 43.088C195.671 42.518 195.386 42.068 194.906 41.738C194.432 41.402 193.829 41.228 193.097 41.216C192.407 41.198 191.846 41.33 191.414 41.612C190.982 41.888 190.766 42.257 190.766 42.719C190.766 42.977 190.844 43.199 191 43.385C191.156 43.565 191.438 43.736 191.846 43.898C192.26 44.06 192.848 44.237 193.61 44.429C194.504 44.657 195.206 44.897 195.716 45.149C196.226 45.401 196.589 45.698 196.805 46.04C197.021 46.382 197.129 46.805 197.129 47.309C197.129 48.227 196.787 48.95 196.103 49.478C195.425 50 194.489 50.261 193.295 50.261ZM205.357 50L201.829 40.28H203.17L206.041 48.272L208.894 40.28H210.253L206.725 50H205.357ZM212.049 38.435V36.95H213.372V38.435H212.049ZM212.049 50V40.28H213.372V50H212.049ZM218.852 50.27C218.12 50.27 217.505 50.138 217.007 49.874C216.515 49.61 216.146 49.259 215.9 48.821C215.654 48.383 215.531 47.906 215.531 47.39C215.531 46.862 215.636 46.412 215.846 46.04C216.062 45.662 216.353 45.353 216.719 45.113C217.091 44.873 217.52 44.69 218.006 44.564C218.498 44.444 219.041 44.339 219.635 44.249C220.235 44.153 220.82 44.072 221.39 44.006C221.966 43.934 222.47 43.865 222.902 43.799L222.434 44.087C222.452 43.127 222.266 42.416 221.876 41.954C221.486 41.492 220.808 41.261 219.842 41.261C219.176 41.261 218.612 41.411 218.15 41.711C217.694 42.011 217.373 42.485 217.187 43.133L215.9 42.755C216.122 41.885 216.569 41.21 217.241 40.73C217.913 40.25 218.786 40.01 219.86 40.01C220.748 40.01 221.501 40.178 222.119 40.514C222.743 40.844 223.184 41.324 223.442 41.954C223.562 42.236 223.64 42.551 223.676 42.899C223.712 43.247 223.73 43.601 223.73 43.961V50H222.551V47.561L222.893 47.705C222.563 48.539 222.05 49.175 221.354 49.613C220.658 50.051 219.824 50.27 218.852 50.27ZM219.005 49.127C219.623 49.127 220.163 49.016 220.625 48.794C221.087 48.572 221.459 48.269 221.741 47.885C222.023 47.495 222.206 47.057 222.29 46.571C222.362 46.259 222.401 45.917 222.407 45.545C222.413 45.167 222.416 44.885 222.416 44.699L222.92 44.96C222.47 45.02 221.981 45.08 221.453 45.14C220.931 45.2 220.415 45.269 219.905 45.347C219.401 45.425 218.945 45.518 218.537 45.626C218.261 45.704 217.994 45.815 217.736 45.959C217.478 46.097 217.265 46.283 217.097 46.517C216.935 46.751 216.854 47.042 216.854 47.39C216.854 47.672 216.923 47.945 217.061 48.209C217.205 48.473 217.433 48.692 217.745 48.866C218.063 49.04 218.483 49.127 219.005 49.127ZM241.268 50L241.277 43.619C241.277 42.869 241.067 42.281 240.647 41.855C240.233 41.423 239.705 41.207 239.063 41.207C238.697 41.207 238.34 41.291 237.992 41.459C237.644 41.627 237.356 41.897 237.128 42.269C236.906 42.641 236.795 43.127 236.795 43.727L236.012 43.502C235.994 42.806 236.129 42.197 236.417 41.675C236.711 41.153 237.113 40.748 237.623 40.46C238.139 40.166 238.721 40.019 239.369 40.019C240.347 40.019 241.13 40.322 241.718 40.928C242.306 41.528 242.6 42.341 242.6 43.367L242.591 50H241.268ZM229.667 50V40.28H230.855V42.674H230.999V50H229.667ZM235.481 50L235.49 43.709C235.49 42.935 235.283 42.326 234.869 41.882C234.461 41.432 233.921 41.207 233.249 41.207C232.577 41.207 232.034 41.438 231.62 41.9C231.206 42.356 230.999 42.965 230.999 43.727L230.207 43.295C230.207 42.671 230.354 42.113 230.648 41.621C230.942 41.123 231.344 40.733 231.854 40.451C232.364 40.163 232.943 40.019 233.591 40.019C234.209 40.019 234.758 40.151 235.238 40.415C235.724 40.679 236.105 41.063 236.381 41.567C236.657 42.071 236.795 42.683 236.795 43.403L236.786 50H235.481ZM248.651 50.243C248.069 50.243 247.559 50.153 247.121 49.973C246.689 49.793 246.32 49.55 246.014 49.244C245.714 48.938 245.471 48.59 245.285 48.2C245.099 47.804 244.964 47.387 244.88 46.949C244.796 46.505 244.754 46.064 244.754 45.626V40.28H246.086V45.239C246.086 45.773 246.137 46.268 246.239 46.724C246.341 47.18 246.503 47.579 246.725 47.921C246.953 48.257 247.244 48.518 247.598 48.704C247.958 48.89 248.393 48.983 248.903 48.983C249.371 48.983 249.782 48.902 250.136 48.74C250.496 48.578 250.796 48.347 251.036 48.047C251.282 47.741 251.468 47.372 251.594 46.94C251.72 46.502 251.783 46.01 251.783 45.464L252.719 45.671C252.719 46.667 252.545 47.504 252.197 48.182C251.849 48.86 251.369 49.373 250.757 49.721C250.145 50.069 249.443 50.243 248.651 50.243ZM251.918 50V47.606H251.783V40.28H253.106V50H251.918ZM255.801 50V36.77H257.124V50H255.801ZM265.115 50C264.569 50.114 264.029 50.159 263.495 50.135C262.967 50.111 262.493 49.997 262.073 49.793C261.659 49.589 261.344 49.271 261.128 48.839C260.954 48.479 260.858 48.116 260.84 47.75C260.828 47.378 260.822 46.955 260.822 46.481V37.58H262.136V46.427C262.136 46.835 262.139 47.177 262.145 47.453C262.157 47.723 262.22 47.963 262.334 48.173C262.55 48.575 262.892 48.815 263.36 48.893C263.834 48.971 264.419 48.953 265.115 48.839V50ZM258.743 41.414V40.28H265.115V41.414H258.743ZM267.21 38.435V36.95H268.533V38.435H267.21ZM267.21 50V40.28H268.533V50H267.21ZM275.596 50.27C274.702 50.27 273.946 50.045 273.328 49.595C272.71 49.139 272.242 48.524 271.924 47.75C271.606 46.97 271.447 46.097 271.447 45.131C271.447 44.147 271.606 43.271 271.924 42.503C272.248 41.729 272.722 41.12 273.346 40.676C273.97 40.232 274.738 40.01 275.65 40.01C276.538 40.01 277.3 40.235 277.936 40.685C278.572 41.135 279.058 41.747 279.394 42.521C279.736 43.295 279.907 44.165 279.907 45.131C279.907 46.103 279.736 46.976 279.394 47.75C279.052 48.524 278.56 49.139 277.918 49.595C277.276 50.045 276.502 50.27 275.596 50.27ZM271.222 54.32V40.28H272.41V47.597H272.554V54.32H271.222ZM275.461 49.037C276.139 49.037 276.703 48.866 277.153 48.524C277.603 48.182 277.939 47.717 278.161 47.129C278.389 46.535 278.503 45.869 278.503 45.131C278.503 44.399 278.392 43.739 278.17 43.151C277.948 42.563 277.609 42.098 277.153 41.756C276.703 41.414 276.13 41.243 275.434 41.243C274.756 41.243 274.192 41.408 273.742 41.738C273.298 42.068 272.965 42.527 272.743 43.115C272.521 43.697 272.41 44.369 272.41 45.131C272.41 45.881 272.521 46.553 272.743 47.147C272.965 47.735 273.301 48.197 273.751 48.533C274.201 48.869 274.771 49.037 275.461 49.037ZM282.063 50V36.77H283.386V50H282.063ZM290.197 50.27C289.249 50.27 288.427 50.06 287.731 49.64C287.041 49.22 286.504 48.629 286.12 47.867C285.736 47.105 285.544 46.211 285.544 45.185C285.544 44.123 285.733 43.205 286.111 42.431C286.489 41.657 287.02 41.06 287.704 40.64C288.394 40.22 289.207 40.01 290.143 40.01C291.103 40.01 291.922 40.232 292.6 40.676C293.278 41.114 293.791 41.744 294.139 42.566C294.487 43.388 294.646 44.369 294.616 45.509H293.266V45.041C293.242 43.781 292.969 42.83 292.447 42.188C291.931 41.546 291.175 41.225 290.179 41.225C289.135 41.225 288.334 41.564 287.776 42.242C287.224 42.92 286.948 43.886 286.948 45.14C286.948 46.364 287.224 47.315 287.776 47.993C288.334 48.665 289.123 49.001 290.143 49.001C290.839 49.001 291.445 48.842 291.961 48.524C292.483 48.2 292.894 47.735 293.194 47.129L294.427 47.606C294.043 48.452 293.476 49.109 292.726 49.577C291.982 50.039 291.139 50.27 290.197 50.27ZM286.48 45.509V44.402H293.905V45.509H286.48ZM106.26 75V62.04H110.391C110.499 62.04 110.712 62.043 111.03 62.049C111.354 62.055 111.666 62.076 111.966 62.112C112.992 62.244 113.859 62.61 114.567 63.21C115.281 63.804 115.821 64.563 116.187 65.487C116.553 66.411 116.736 67.422 116.736 68.52C116.736 69.618 116.553 70.629 116.187 71.553C115.821 72.477 115.281 73.239 114.567 73.839C113.859 74.433 112.992 74.796 111.966 74.928C111.672 74.964 111.363 74.985 111.039 74.991C110.715 74.997 110.499 75 110.391 75H106.26ZM108.465 72.957H110.391C110.571 72.957 110.799 72.951 111.075 72.939C111.357 72.927 111.606 72.9 111.822 72.858C112.434 72.744 112.932 72.471 113.316 72.039C113.7 71.607 113.982 71.082 114.162 70.464C114.348 69.846 114.441 69.198 114.441 68.52C114.441 67.818 114.348 67.158 114.162 66.54C113.976 65.922 113.688 65.403 113.298 64.983C112.914 64.563 112.422 64.296 111.822 64.182C111.606 64.134 111.357 64.107 111.075 64.101C110.799 64.089 110.571 64.083 110.391 64.083H108.465V72.957ZM118.864 75V62.04H127.234V64.074H121.033V67.269H126.154V69.303H121.033V72.966H127.234V75H118.864ZM128.313 75L132.705 68.448L128.439 62.04H131.094L134.046 66.603L136.971 62.04H139.644L135.378 68.448L139.752 75H137.097L134.046 70.293L130.986 75H128.313ZM147.509 75.27C146.807 75.27 146.213 75.138 145.727 74.874C145.241 74.604 144.872 74.247 144.62 73.803C144.374 73.359 144.251 72.87 144.251 72.336C144.251 71.868 144.329 71.448 144.485 71.076C144.641 70.698 144.881 70.374 145.205 70.104C145.529 69.828 145.949 69.603 146.465 69.429C146.855 69.303 147.311 69.189 147.833 69.087C148.361 68.985 148.931 68.892 149.543 68.808C150.161 68.718 150.806 68.622 151.478 68.52L150.704 68.961C150.71 68.289 150.56 67.794 150.254 67.476C149.948 67.158 149.432 66.999 148.706 66.999C148.268 66.999 147.845 67.101 147.437 67.305C147.029 67.509 146.744 67.86 146.582 68.358L144.602 67.737C144.842 66.915 145.298 66.255 145.97 65.757C146.648 65.259 147.56 65.01 148.706 65.01C149.57 65.01 150.329 65.151 150.983 65.433C151.643 65.715 152.132 66.177 152.45 66.819C152.624 67.161 152.729 67.512 152.765 67.872C152.801 68.226 152.819 68.613 152.819 69.033V75H150.92V72.894L151.235 73.236C150.797 73.938 150.284 74.454 149.696 74.784C149.114 75.108 148.385 75.27 147.509 75.27ZM147.941 73.542C148.433 73.542 148.853 73.455 149.201 73.281C149.549 73.107 149.825 72.894 150.029 72.642C150.239 72.39 150.38 72.153 150.452 71.931C150.566 71.655 150.629 71.34 150.641 70.986C150.659 70.626 150.668 70.335 150.668 70.113L151.334 70.311C150.68 70.413 150.119 70.503 149.651 70.581C149.183 70.659 148.781 70.734 148.445 70.806C148.109 70.872 147.812 70.947 147.554 71.031C147.302 71.121 147.089 71.226 146.915 71.346C146.741 71.466 146.606 71.604 146.51 71.76C146.42 71.916 146.375 72.099 146.375 72.309C146.375 72.549 146.435 72.762 146.555 72.948C146.675 73.128 146.849 73.272 147.077 73.38C147.311 73.488 147.599 73.542 147.941 73.542ZM159.248 79.59C158.708 79.59 158.189 79.506 157.691 79.338C157.199 79.17 156.755 78.927 156.359 78.609C155.963 78.297 155.639 77.919 155.387 77.475L157.385 76.485C157.571 76.839 157.832 77.1 158.168 77.268C158.51 77.442 158.873 77.529 159.257 77.529C159.707 77.529 160.109 77.448 160.463 77.286C160.817 77.13 161.09 76.896 161.282 76.584C161.48 76.278 161.573 75.894 161.561 75.432V72.669H161.831V65.28H163.73V75.468C163.73 75.714 163.718 75.948 163.694 76.17C163.676 76.398 163.643 76.62 163.595 76.836C163.451 77.466 163.175 77.982 162.767 78.384C162.359 78.792 161.852 79.095 161.246 79.293C160.646 79.491 159.98 79.59 159.248 79.59ZM159.059 75.27C158.165 75.27 157.385 75.045 156.719 74.595C156.053 74.145 155.537 73.533 155.171 72.759C154.805 71.985 154.622 71.112 154.622 70.14C154.622 69.156 154.805 68.28 155.171 67.512C155.543 66.738 156.068 66.129 156.746 65.685C157.424 65.235 158.222 65.01 159.14 65.01C160.064 65.01 160.838 65.235 161.462 65.685C162.092 66.129 162.569 66.738 162.893 67.512C163.217 68.286 163.379 69.162 163.379 70.14C163.379 71.106 163.217 71.979 162.893 72.759C162.569 73.533 162.086 74.145 161.444 74.595C160.802 75.045 160.007 75.27 159.059 75.27ZM159.392 73.326C159.974 73.326 160.442 73.194 160.796 72.93C161.156 72.66 161.417 72.285 161.579 71.805C161.747 71.325 161.831 70.77 161.831 70.14C161.831 69.504 161.747 68.949 161.579 68.475C161.417 67.995 161.162 67.623 160.814 67.359C160.466 67.089 160.016 66.954 159.464 66.954C158.882 66.954 158.402 67.098 158.024 67.386C157.646 67.668 157.367 68.052 157.187 68.538C157.007 69.018 156.917 69.552 156.917 70.14C156.917 70.734 157.004 71.274 157.178 71.76C157.358 72.24 157.631 72.621 157.997 72.903C158.363 73.185 158.828 73.326 159.392 73.326ZM170.34 79.59C169.8 79.59 169.281 79.506 168.783 79.338C168.291 79.17 167.847 78.927 167.451 78.609C167.055 78.297 166.731 77.919 166.479 77.475L168.477 76.485C168.663 76.839 168.924 77.1 169.26 77.268C169.602 77.442 169.965 77.529 170.349 77.529C170.799 77.529 171.201 77.448 171.555 77.286C171.909 77.13 172.182 76.896 172.374 76.584C172.572 76.278 172.665 75.894 172.653 75.432V72.669H172.923V65.28H174.822V75.468C174.822 75.714 174.81 75.948 174.786 76.17C174.768 76.398 174.735 76.62 174.687 76.836C174.543 77.466 174.267 77.982 173.859 78.384C173.451 78.792 172.944 79.095 172.338 79.293C171.738 79.491 171.072 79.59 170.34 79.59ZM170.151 75.27C169.257 75.27 168.477 75.045 167.811 74.595C167.145 74.145 166.629 73.533 166.263 72.759C165.897 71.985 165.714 71.112 165.714 70.14C165.714 69.156 165.897 68.28 166.263 67.512C166.635 66.738 167.16 66.129 167.838 65.685C168.516 65.235 169.314 65.01 170.232 65.01C171.156 65.01 171.93 65.235 172.554 65.685C173.184 66.129 173.661 66.738 173.985 67.512C174.309 68.286 174.471 69.162 174.471 70.14C174.471 71.106 174.309 71.979 173.985 72.759C173.661 73.533 173.178 74.145 172.536 74.595C171.894 75.045 171.099 75.27 170.151 75.27ZM170.484 73.326C171.066 73.326 171.534 73.194 171.888 72.93C172.248 72.66 172.509 72.285 172.671 71.805C172.839 71.325 172.923 70.77 172.923 70.14C172.923 69.504 172.839 68.949 172.671 68.475C172.509 67.995 172.254 67.623 171.906 67.359C171.558 67.089 171.108 66.954 170.556 66.954C169.974 66.954 169.494 67.098 169.116 67.386C168.738 67.668 168.459 68.052 168.279 68.538C168.099 69.018 168.009 69.552 168.009 70.14C168.009 70.734 168.096 71.274 168.27 71.76C168.45 72.24 168.723 72.621 169.089 72.903C169.455 73.185 169.92 73.326 170.484 73.326ZM177.346 75V65.28H179.263V67.647L179.029 67.341C179.149 67.017 179.308 66.723 179.506 66.459C179.71 66.189 179.953 65.967 180.235 65.793C180.475 65.631 180.739 65.505 181.027 65.415C181.321 65.319 181.621 65.262 181.927 65.244C182.233 65.22 182.53 65.232 182.818 65.28V67.305C182.53 67.221 182.197 67.194 181.819 67.224C181.447 67.254 181.111 67.359 180.811 67.539C180.511 67.701 180.265 67.908 180.073 68.16C179.887 68.412 179.749 68.7 179.659 69.024C179.569 69.342 179.524 69.687 179.524 70.059V75H177.346ZM188.779 75.27C187.795 75.27 186.931 75.057 186.187 74.631C185.443 74.205 184.861 73.614 184.441 72.858C184.027 72.102 183.82 71.232 183.82 70.248C183.82 69.186 184.024 68.265 184.432 67.485C184.84 66.699 185.407 66.09 186.133 65.658C186.859 65.226 187.699 65.01 188.653 65.01C189.661 65.01 190.516 65.247 191.218 65.721C191.926 66.189 192.451 66.852 192.793 67.71C193.135 68.568 193.264 69.579 193.18 70.743H191.029V69.951C191.023 68.895 190.837 68.124 190.471 67.638C190.105 67.152 189.529 66.909 188.743 66.909C187.855 66.909 187.195 67.185 186.763 67.737C186.331 68.283 186.115 69.084 186.115 70.14C186.115 71.124 186.331 71.886 186.763 72.426C187.195 72.966 187.825 73.236 188.653 73.236C189.187 73.236 189.646 73.119 190.03 72.885C190.42 72.645 190.72 72.3 190.93 71.85L193.072 72.498C192.7 73.374 192.124 74.055 191.344 74.541C190.57 75.027 189.715 75.27 188.779 75.27ZM185.431 70.743V69.105H192.118V70.743H185.431ZM199.274 79.59C198.734 79.59 198.215 79.506 197.717 79.338C197.225 79.17 196.781 78.927 196.385 78.609C195.989 78.297 195.665 77.919 195.413 77.475L197.411 76.485C197.597 76.839 197.858 77.1 198.194 77.268C198.536 77.442 198.899 77.529 199.283 77.529C199.733 77.529 200.135 77.448 200.489 77.286C200.843 77.13 201.116 76.896 201.308 76.584C201.506 76.278 201.599 75.894 201.587 75.432V72.669H201.857V65.28H203.756V75.468C203.756 75.714 203.744 75.948 203.72 76.17C203.702 76.398 203.669 76.62 203.621 76.836C203.477 77.466 203.201 77.982 202.793 78.384C202.385 78.792 201.878 79.095 201.272 79.293C200.672 79.491 200.006 79.59 199.274 79.59ZM199.085 75.27C198.191 75.27 197.411 75.045 196.745 74.595C196.079 74.145 195.563 73.533 195.197 72.759C194.831 71.985 194.648 71.112 194.648 70.14C194.648 69.156 194.831 68.28 195.197 67.512C195.569 66.738 196.094 66.129 196.772 65.685C197.45 65.235 198.248 65.01 199.166 65.01C200.09 65.01 200.864 65.235 201.488 65.685C202.118 66.129 202.595 66.738 202.919 67.512C203.243 68.286 203.405 69.162 203.405 70.14C203.405 71.106 203.243 71.979 202.919 72.759C202.595 73.533 202.112 74.145 201.47 74.595C200.828 75.045 200.033 75.27 199.085 75.27ZM199.418 73.326C200 73.326 200.468 73.194 200.822 72.93C201.182 72.66 201.443 72.285 201.605 71.805C201.773 71.325 201.857 70.77 201.857 70.14C201.857 69.504 201.773 68.949 201.605 68.475C201.443 67.995 201.188 67.623 200.84 67.359C200.492 67.089 200.042 66.954 199.49 66.954C198.908 66.954 198.428 67.098 198.05 67.386C197.672 67.668 197.393 68.052 197.213 68.538C197.033 69.018 196.943 69.552 196.943 70.14C196.943 70.734 197.03 71.274 197.204 71.76C197.384 72.24 197.657 72.621 198.023 72.903C198.389 73.185 198.854 73.326 199.418 73.326ZM208.998 75.27C208.296 75.27 207.702 75.138 207.216 74.874C206.73 74.604 206.361 74.247 206.109 73.803C205.863 73.359 205.74 72.87 205.74 72.336C205.74 71.868 205.818 71.448 205.974 71.076C206.13 70.698 206.37 70.374 206.694 70.104C207.018 69.828 207.438 69.603 207.954 69.429C208.344 69.303 208.8 69.189 209.322 69.087C209.85 68.985 210.42 68.892 211.032 68.808C211.65 68.718 212.295 68.622 212.967 68.52L212.193 68.961C212.199 68.289 212.049 67.794 211.743 67.476C211.437 67.158 210.921 66.999 210.195 66.999C209.757 66.999 209.334 67.101 208.926 67.305C208.518 67.509 208.233 67.86 208.071 68.358L206.091 67.737C206.331 66.915 206.787 66.255 207.459 65.757C208.137 65.259 209.049 65.01 210.195 65.01C211.059 65.01 211.818 65.151 212.472 65.433C213.132 65.715 213.621 66.177 213.939 66.819C214.113 67.161 214.218 67.512 214.254 67.872C214.29 68.226 214.308 68.613 214.308 69.033V75H212.409V72.894L212.724 73.236C212.286 73.938 211.773 74.454 211.185 74.784C210.603 75.108 209.874 75.27 208.998 75.27ZM209.43 73.542C209.922 73.542 210.342 73.455 210.69 73.281C211.038 73.107 211.314 72.894 211.518 72.642C211.728 72.39 211.869 72.153 211.941 71.931C212.055 71.655 212.118 71.34 212.13 70.986C212.148 70.626 212.157 70.335 212.157 70.113L212.823 70.311C212.169 70.413 211.608 70.503 211.14 70.581C210.672 70.659 210.27 70.734 209.934 70.806C209.598 70.872 209.301 70.947 209.043 71.031C208.791 71.121 208.578 71.226 208.404 71.346C208.23 71.466 208.095 71.604 207.999 71.76C207.909 71.916 207.864 72.099 207.864 72.309C207.864 72.549 207.924 72.762 208.044 72.948C208.164 73.128 208.338 73.272 208.566 73.38C208.8 73.488 209.088 73.542 209.43 73.542ZM222.348 75C221.706 75.12 221.076 75.171 220.458 75.153C219.846 75.141 219.297 75.03 218.811 74.82C218.325 74.604 217.956 74.265 217.704 73.803C217.482 73.383 217.365 72.954 217.353 72.516C217.341 72.078 217.335 71.583 217.335 71.031V62.58H219.495V70.905C219.495 71.295 219.498 71.637 219.504 71.931C219.516 72.225 219.579 72.465 219.693 72.651C219.909 73.011 220.254 73.212 220.728 73.254C221.202 73.296 221.742 73.272 222.348 73.182V75ZM215.571 66.981V65.28H222.348V66.981H215.571ZM228.239 75.27C227.267 75.27 226.418 75.051 225.692 74.613C224.966 74.175 224.402 73.572 224 72.804C223.604 72.03 223.406 71.142 223.406 70.14C223.406 69.12 223.61 68.226 224.018 67.458C224.426 66.69 224.993 66.09 225.719 65.658C226.445 65.226 227.285 65.01 228.239 65.01C229.217 65.01 230.069 65.229 230.795 65.667C231.521 66.105 232.085 66.711 232.487 67.485C232.889 68.253 233.09 69.138 233.09 70.14C233.09 71.148 232.886 72.039 232.478 72.813C232.076 73.581 231.512 74.184 230.786 74.622C230.06 75.054 229.211 75.27 228.239 75.27ZM228.239 73.236C229.103 73.236 229.745 72.948 230.165 72.372C230.585 71.796 230.795 71.052 230.795 70.14C230.795 69.198 230.582 68.448 230.156 67.89C229.73 67.326 229.091 67.044 228.239 67.044C227.657 67.044 227.177 67.176 226.799 67.44C226.427 67.698 226.151 68.061 225.971 68.529C225.791 68.991 225.701 69.528 225.701 70.14C225.701 71.082 225.914 71.835 226.34 72.399C226.772 72.957 227.405 73.236 228.239 73.236ZM235.073 75V65.28H236.99V67.647L236.756 67.341C236.876 67.017 237.035 66.723 237.233 66.459C237.437 66.189 237.68 65.967 237.962 65.793C238.202 65.631 238.466 65.505 238.754 65.415C239.048 65.319 239.348 65.262 239.654 65.244C239.96 65.22 240.257 65.232 240.545 65.28V67.305C240.257 67.221 239.924 67.194 239.546 67.224C239.174 67.254 238.838 67.359 238.538 67.539C238.238 67.701 237.992 67.908 237.8 68.16C237.614 68.412 237.476 68.7 237.386 69.024C237.296 69.342 237.251 69.687 237.251 70.059V75H235.073ZM245.663 75.27C244.463 75.27 243.488 75 242.738 74.46C241.988 73.92 241.532 73.161 241.37 72.183L243.584 71.841C243.698 72.321 243.95 72.699 244.34 72.975C244.73 73.251 245.222 73.389 245.816 73.389C246.338 73.389 246.74 73.287 247.022 73.083C247.31 72.873 247.454 72.588 247.454 72.228C247.454 72.006 247.4 71.829 247.292 71.697C247.19 71.559 246.962 71.427 246.608 71.301C246.254 71.175 245.711 71.016 244.979 70.824C244.163 70.608 243.515 70.377 243.035 70.131C242.555 69.879 242.21 69.582 242 69.24C241.79 68.898 241.685 68.484 241.685 67.998C241.685 67.392 241.844 66.864 242.162 66.414C242.48 65.964 242.924 65.619 243.494 65.379C244.064 65.133 244.736 65.01 245.51 65.01C246.266 65.01 246.935 65.127 247.517 65.361C248.105 65.595 248.579 65.928 248.939 66.36C249.299 66.792 249.521 67.299 249.605 67.881L247.391 68.277C247.337 67.863 247.148 67.536 246.824 67.296C246.506 67.056 246.08 66.921 245.546 66.891C245.036 66.861 244.625 66.939 244.313 67.125C244.001 67.305 243.845 67.56 243.845 67.89C243.845 68.076 243.908 68.235 244.034 68.367C244.16 68.499 244.412 68.631 244.79 68.763C245.174 68.895 245.744 69.057 246.5 69.249C247.274 69.447 247.892 69.675 248.354 69.933C248.822 70.185 249.158 70.488 249.362 70.842C249.572 71.196 249.677 71.625 249.677 72.129C249.677 73.107 249.32 73.875 248.606 74.433C247.898 74.991 246.917 75.27 245.663 75.27ZM252.009 75V72.777H254.232V75H252.009Z" fill="#F3F5F7"/>
<g filter="url(#filter0_f_343_1907)">
<ellipse cx="253.394" cy="45.2351" rx="30.3939" ry="29.7649" fill="#00C2FF" fill-opacity="0.5"/>
<ellipse cx="271.451" cy="15.7649" rx="30.3939" ry="29.7649" fill="#C4C4C4" fill-opacity="0.5"/>
<ellipse cx="271.451" cy="15.7649" rx="30.3939" ry="29.7649" fill="#00A3FF" fill-opacity="0.5"/>
<ellipse cx="268.673" cy="20.6764" rx="30.3939" ry="29.7649" fill="#00FF66" fill-opacity="0.4"/>
</g>
</g>
<rect x="0.5" y="0.5" width="305" height="117" rx="9.5" stroke="#32323B"/>
<defs>
<filter id="filter0_f_343_1907" x="53.8077" y="-183.192" width="417.229" height="427.385" filterUnits="userSpaceOnUse" color-interpolation-filters="sRGB">
<feFlood flood-opacity="0" result="BackgroundImageFix"/>
<feBlend mode="normal" in="SourceGraphic" in2="BackgroundImageFix" result="shape"/>
<feGaussianBlur stdDeviation="84.5961" result="effect1_foregroundBlur_343_1907"/>
</filter>
<linearGradient id="paint0_linear_343_1907" x1="54" y1="33.0137" x2="54" y2="77.7337" gradientUnits="userSpaceOnUse">
<stop stop-color="#3F8EE4"/>
<stop offset="1" stop-color="#7DEFB2"/>
</linearGradient>
<clipPath id="clip0_343_1907">
<rect width="306" height="118" rx="10" fill="white"/>
</clipPath>
</defs>
</svg>
