<svg width="53" height="81" viewBox="0 0 53 81" fill="none" xmlns="http://www.w3.org/2000/svg">
<path d="M24.9778 44.7953C27.6609 44.7953 29.9637 43.2604 30.987 41.0615C31.2349 40.5258 30.821 39.924 30.2075 39.924H19.7481C19.1346 39.924 18.7185 40.5258 18.9686 41.0615C19.9918 43.2604 22.2946 44.7953 24.9778 44.7953Z" fill="url(#paint0_linear_4_25377)"/>
<path d="M41.0261 33.8769C39.3242 33.8769 37.9459 32.5608 37.9459 30.9357V20.2501C37.9459 14.4599 33.7835 9.5986 28.1609 8.24233C27.955 6.71553 26.5914 5.53381 24.9357 5.53381C23.28 5.53381 21.9059 6.72556 21.7084 8.26039C16.6615 9.51032 12.8123 13.5891 12.1189 18.619C12.1084 18.6932 12.0979 18.7654 12.0895 18.8397C12.0769 18.94 12.0664 19.0383 12.0579 19.1386C12.0495 19.2389 12.0411 19.3392 12.0348 19.4395C12.0285 19.5238 12.0222 19.6061 12.018 19.6903C12.0096 19.8589 12.0054 20.0294 12.0054 20.2019C12.0054 20.218 12.0054 20.234 12.0054 20.2501V30.9337C12.0054 32.5508 10.6397 33.8629 8.94829 33.8749C8.14146 33.881 7.4754 34.4748 7.4754 35.2473V35.2593C7.4754 36.0237 8.12465 36.6436 8.92518 36.6436H41.0219C41.8224 36.6436 42.4717 36.0237 42.4717 35.2593C42.4759 34.4969 41.8266 33.8769 41.0261 33.8769Z" fill="url(#paint1_linear_4_25377)"/>
<path d="M34.271 6.13379C37.8807 6.87211 40.6374 9.83944 40.9778 13.3505C41.0156 13.7397 41.3707 14.0306 41.7867 13.9925C41.9842 13.9744 42.1628 13.8842 42.291 13.7397C42.417 13.5932 42.478 13.4087 42.459 13.2201C42.2594 11.1696 41.3938 9.27366 39.9545 7.73281C38.5257 6.20601 36.6684 5.17276 34.5819 4.74542C34.5294 4.73539 34.4769 4.72937 34.4265 4.72937C34.084 4.72937 33.773 4.95809 33.6995 5.29113C33.6133 5.67434 33.8697 6.05153 34.271 6.13379Z" fill="url(#paint2_linear_4_25377)"/>
<path d="M35.1052 1.56335C40.7215 2.71297 45.0141 7.33149 45.5435 12.7927C45.5814 13.1819 45.9364 13.4708 46.3525 13.4347C46.55 13.4166 46.7286 13.3263 46.8567 13.1819C46.9828 13.0354 47.0437 12.8509 47.0248 12.6623C46.7328 9.64276 45.4553 6.84597 43.3332 4.57884C41.2278 2.32776 38.4901 0.804968 35.4182 0.174986C35.3657 0.164955 35.3132 0.158936 35.2628 0.158936C34.9203 0.158936 34.6093 0.387655 34.5358 0.720703C34.4475 1.10391 34.7039 1.48109 35.1052 1.56335Z" fill="url(#paint3_linear_4_25377)"/>
<path d="M15.6824 6.1336C16.0837 6.05134 16.3401 5.67215 16.2539 5.28894C16.1783 4.95589 15.8694 4.72717 15.5269 4.72717C15.4765 4.72717 15.424 4.73319 15.3715 4.74322C13.285 5.17057 11.4276 6.20382 9.99889 7.73062C8.55962 9.26946 7.69186 11.1674 7.49435 13.2179C7.47544 13.4065 7.53637 13.591 7.66244 13.7375C7.78851 13.884 7.96921 13.9743 8.16671 13.9903C8.58483 14.0264 8.93782 13.7375 8.97564 13.3483C9.31602 9.84126 12.0748 6.87393 15.6824 6.1336Z" fill="url(#paint4_linear_4_25377)"/>
<path d="M14.8482 1.56328C15.2496 1.48103 15.5059 1.10183 15.4198 0.718628C15.3441 0.38558 15.0352 0.15686 14.6928 0.15686C14.6402 0.15686 14.5898 0.16288 14.5373 0.172911C11.4633 0.802892 8.72768 2.32568 6.62236 4.57676C4.50023 6.8459 3.22485 9.64069 2.93069 12.6602C2.91178 12.8488 2.97271 13.0334 3.09878 13.1798C3.22485 13.3263 3.40554 13.4166 3.60305 13.4326C4.01907 13.4687 4.37416 13.1798 4.41198 12.7906C4.94146 7.33142 9.23405 2.71491 14.8482 1.56328Z" fill="url(#paint5_linear_4_25377)"/>
<path d="M44.6408 62.2069C43.4742 62.2069 42.3788 62.6479 41.5394 63.4588V57.0854C41.5394 57.0427 41.4967 57 41.4541 57H38.9929C38.9502 57 38.9075 57.0427 38.9075 57.0854V74.2994C38.9075 74.342 38.9502 74.3847 38.9929 74.3847H41.4541C41.4967 74.3847 41.5394 74.342 41.5394 74.2994V67.3142C41.5394 66.0338 42.5353 64.9384 43.8299 64.8672C45.2098 64.7961 46.3622 65.8915 46.3622 67.243V74.2994C46.3622 74.342 46.4049 74.3847 46.4476 74.3847H48.8803C48.923 74.3847 48.9656 74.342 48.9656 74.2994V66.6029C48.9514 64.2128 47.0451 62.2211 44.6408 62.2069Z" fill="white"/>
<path d="M26.0041 61.7517H23.5429C23.5003 61.7517 23.4576 61.7944 23.4576 61.8371V69.4767C23.4576 70.7855 22.3479 71.8383 21.0106 71.7814C19.7587 71.7245 18.7913 70.6575 18.7913 69.4055V61.8371C18.7913 61.7944 18.7486 61.7517 18.706 61.7517H16.259C16.2163 61.7517 16.1736 61.7944 16.1736 61.8371V69.3771C16.1736 72.0374 18.2792 74.2994 20.9822 74.3706C23.7848 74.4559 26.0895 72.2224 26.0895 69.4767V61.8371C26.0895 61.7944 26.061 61.7517 26.0041 61.7517Z" fill="white"/>
<path d="M27.754 71.6248C28.2235 72.6633 29.4327 74.399 32.2638 74.399C35.4932 74.399 36.9443 72.4926 36.9443 70.6005C36.9443 68.5234 35.5785 67.2715 32.7475 66.7736C31.3106 66.5317 30.6989 66.0765 30.6989 65.2513C30.6989 64.4831 31.3817 63.971 32.3918 63.971C33.3023 63.971 34.0705 64.4831 34.3551 65.2798C34.3551 65.294 34.3693 65.3083 34.3977 65.3225C34.4262 65.3367 34.4262 65.3225 34.4547 65.3225L36.489 64.412C36.5175 64.3978 36.5317 64.3551 36.5175 64.3266C35.8915 62.719 34.3408 61.7659 32.3776 61.7659C29.5892 61.7659 28.1239 63.53 28.1239 65.2798C28.1239 67.3426 29.4754 68.5803 32.2353 69.0783C33.7149 69.377 34.3408 69.8465 34.3408 70.6432C34.3408 71.511 33.5726 72.0231 32.2922 72.0231C31.3106 72.0231 30.4286 71.4683 30.016 70.6005C30.0018 70.572 29.9875 70.5578 29.9591 70.5578C29.9449 70.5578 29.9449 70.5578 29.9306 70.5578L27.7824 71.5252C27.754 71.5537 27.7398 71.5963 27.754 71.6248Z" fill="white"/>
<path d="M9.38765 57.0142H3.2276C3.14224 57.0142 3.07111 57.0853 3.07111 57.1707V74.2424C3.07111 74.3278 3.14224 74.3989 3.2276 74.3989H5.50383C5.58919 74.3989 5.66032 74.3278 5.66032 74.2424L5.67455 67.5417C5.67455 67.4564 5.74568 67.3852 5.83104 67.3852H9.3592C12.2187 67.3852 14.4523 65.109 14.4523 62.1926C14.4665 59.2762 12.2329 57.0142 9.38765 57.0142ZM9.43033 64.796H7.83697C7.16832 64.796 6.58504 65.237 6.38587 65.8772L6.31474 66.1333C6.30051 66.1902 6.2436 66.2187 6.1867 66.2187H5.81681C5.74568 66.2187 5.68877 66.1618 5.68877 66.0906V59.7599C5.68877 59.6745 5.75991 59.6034 5.84526 59.6034H9.24539C10.5827 59.6034 11.735 60.585 11.8773 61.9223C12.048 63.473 10.9383 64.7391 9.43033 64.796Z" fill="white"/>
<path d="M3 80.943V78.0266H4.12389C4.66449 78.0266 5.11974 78.4534 5.11974 78.994C5.11974 79.5204 4.7214 79.9899 4.12389 79.9899H3.59751V80.943H3ZM3.59751 79.4635H4.01008C4.29461 79.4635 4.508 79.2785 4.508 78.994C4.508 78.7237 4.29461 78.5388 4.01008 78.5388H3.59751V79.4635Z" fill="white"/>
<path d="M8.40604 80.943H7.66627L6.75578 79.9045H6.74155V80.943H6.15826V78.0266H7.28215C7.85121 78.0266 8.27801 78.425 8.27801 78.9513C8.27801 79.4208 7.9508 79.8334 7.42442 79.8903L8.40604 80.943ZM6.75578 78.553V79.3781H7.19679C7.45287 79.3781 7.65204 79.2216 7.65204 78.9513C7.65204 78.6953 7.45287 78.553 7.19679 78.553H6.75578Z" fill="white"/>
<path d="M9.40192 80.943V78.0266H11.2798V78.553H9.97097V79.179H11.1518V79.7053H9.97097V80.4167H11.2798V80.943H9.40192Z" fill="white"/>
<path d="M13.3284 80.9715L12.1761 78.0266H12.8163L13.5987 80.1748L14.3812 78.0266H15.0214L13.9117 80.9715H13.3284Z" fill="white"/>
<path d="M17.2976 78.553H16.9419V80.4309H17.2976V80.9573H15.9888V80.4309H16.3587V78.553H15.9888V78.0266H17.2976V78.553Z" fill="white"/>
<path d="M18.3219 79.492C18.3219 78.6384 18.9905 77.984 19.8584 77.984C20.7262 77.984 21.409 78.6384 21.409 79.492C21.409 80.3456 20.7262 81 19.8584 81C18.9905 80.9858 18.3219 80.3314 18.3219 79.492ZM20.7831 79.492C20.7831 78.9656 20.399 78.5673 19.8584 78.5673C19.332 78.5673 18.9336 78.9799 18.9336 79.492C18.9336 80.0184 19.3178 80.4167 19.8584 80.4167C20.399 80.4167 20.7831 80.0042 20.7831 79.492Z" fill="white"/>
<path d="M22.5187 79.8049V78.0266H23.102V79.7765C23.102 80.1606 23.3296 80.4309 23.6995 80.4309C24.0694 80.4309 24.297 80.1748 24.297 79.7765V78.0266H24.8803V79.8049C24.8803 80.5162 24.3966 80.9999 23.6995 80.9999C23.0024 80.9857 22.5187 80.502 22.5187 79.8049Z" fill="white"/>
<path d="M25.9899 80.2603L26.4594 79.99C26.5305 80.2034 26.7439 80.4168 27.0854 80.4168C27.3841 80.4168 27.5833 80.2888 27.5833 80.0754C27.5833 79.8762 27.441 79.7624 27.2134 79.7197L26.9289 79.6628C26.5163 79.5774 26.1606 79.3214 26.1606 78.8092C26.1606 78.4251 26.4879 77.9698 27.1565 77.9698C27.626 77.9698 27.939 78.2117 28.0954 78.5247L27.6117 78.8234C27.5548 78.6527 27.3841 78.4962 27.1423 78.4962C26.9146 78.4962 26.7439 78.6385 26.7439 78.795C26.7439 78.9657 26.872 79.0653 27.0569 79.0937L27.3557 79.1506C27.9105 79.2645 28.195 79.5917 28.195 80.0469C28.195 80.5164 27.8109 80.9574 27.0854 80.9574C26.431 80.9859 26.1037 80.5875 25.9899 80.2603Z" fill="white"/>
<path d="M29.2905 80.943V78.0266H29.8595V80.4024H31.0972V80.943H29.2905Z" fill="white"/>
<path d="M32.6195 80.943V79.9045L31.4956 78.0266H32.1642L32.904 79.3354L33.6153 78.0266H34.284L33.2028 79.8903V80.943H32.6195Z" fill="white"/>
<path d="M36.9443 80.943V78.0266H38.8222V78.553H37.5134V79.179H38.6942V79.7053H37.5134V80.4167H38.8222V80.943H36.9443Z" fill="white"/>
<path d="M40.0315 80.943V78.0266H41.1554C41.696 78.0266 42.1512 78.4534 42.1512 78.994C42.1512 79.5204 41.7529 79.9899 41.1554 79.9899H40.6148V80.943H40.0315ZM40.6148 79.4635H41.0273C41.3119 79.4635 41.5253 79.2785 41.5253 78.994C41.5253 78.7237 41.3119 78.5388 41.0273 78.5388H40.6148V79.4635Z" fill="white"/>
<path d="M45.1814 80.9714L43.7588 79.0082V80.9572H43.1897V78.0408H43.7445L45.0818 79.8902V78.0408H45.6509V80.9856H45.1814V80.9714Z" fill="white"/>
<path d="M46.7463 80.2603L47.2158 79.99C47.2869 80.2034 47.5003 80.4168 47.8418 80.4168C48.1405 80.4168 48.3397 80.2888 48.3397 80.0754C48.3397 79.8762 48.1974 79.7624 47.9698 79.7197L47.6853 79.6628C47.2727 79.5774 46.9171 79.3214 46.9171 78.8092C46.9171 78.4251 47.2443 77.9698 47.9129 77.9698C48.3824 77.9698 48.6954 78.2117 48.8519 78.5247L48.3682 78.8234C48.3113 78.6527 48.1405 78.4962 47.8987 78.4962C47.6711 78.4962 47.5003 78.6385 47.5003 78.795C47.5003 78.9657 47.6284 79.0653 47.8133 79.0937L48.1121 79.1506C48.6669 79.2645 48.9514 79.5917 48.9514 80.0469C48.9514 80.5164 48.5673 80.9574 47.8418 80.9574C47.2016 80.9859 46.8744 80.5875 46.7463 80.2603Z" fill="white"/>
<defs>
<linearGradient id="paint0_linear_4_25377" x1="32.0081" y1="29.3587" x2="24.0202" y2="43.5789" gradientUnits="userSpaceOnUse">
<stop stop-color="#FF94A6"/>
<stop offset="0.32" stop-color="#E03DC1"/>
<stop offset="1" stop-color="#8247E5"/>
</linearGradient>
<linearGradient id="paint1_linear_4_25377" x1="36.1095" y1="13.9764" x2="19.1459" y2="39.223" gradientUnits="userSpaceOnUse">
<stop stop-color="#FF94A6"/>
<stop offset="0.32" stop-color="#E03DC1"/>
<stop offset="1" stop-color="#8247E5"/>
</linearGradient>
<linearGradient id="paint2_linear_4_25377" x1="50.6534" y1="1.38886" x2="8.06124" y2="30.9973" gradientUnits="userSpaceOnUse">
<stop stop-color="#FF94A6"/>
<stop offset="0.32" stop-color="#E03DC1"/>
<stop offset="1" stop-color="#8247E5"/>
</linearGradient>
<linearGradient id="paint3_linear_4_25377" x1="50.2437" y1="0.796942" x2="7.64944" y2="30.4054" gradientUnits="userSpaceOnUse">
<stop stop-color="#FF94A6"/>
<stop offset="0.32" stop-color="#E03DC1"/>
<stop offset="1" stop-color="#8247E5"/>
</linearGradient>
<linearGradient id="paint4_linear_4_25377" x1="42.4654" y1="-10.3924" x2="-0.128888" y2="19.2161" gradientUnits="userSpaceOnUse">
<stop stop-color="#FF94A6"/>
<stop offset="0.32" stop-color="#E03DC1"/>
<stop offset="1" stop-color="#8247E5"/>
</linearGradient>
<linearGradient id="paint5_linear_4_25377" x1="40.3117" y1="-13.4901" x2="-2.2642" y2="16.1056" gradientUnits="userSpaceOnUse">
<stop stop-color="#FF94A6"/>
<stop offset="0.32" stop-color="#E03DC1"/>
<stop offset="1" stop-color="#8247E5"/>
</linearGradient>
</defs>
</svg>
