<svg width="25" height="25" viewBox="0 0 25 25" fill="none" xmlns="http://www.w3.org/2000/svg">
<path d="M12.3267 0.333252C9.95335 0.333252 7.63327 1.03704 5.65988 2.35562C3.68649 3.67419 2.14842 5.54834 1.24017 7.74105C0.331921 9.93376 0.0942806 12.3466 0.557303 14.6743C1.02033 17.0021 2.16321 19.1403 3.84144 20.8185C5.51967 22.4968 7.65787 23.6396 9.98564 24.1027C12.3134 24.5657 14.7262 24.3281 16.9189 23.4198C19.1116 22.5116 20.9858 20.9735 22.3044 19.0001C23.6229 17.0267 24.3267 14.7066 24.3267 12.3332C24.3269 10.7574 24.0166 9.19686 23.4135 7.74089C22.8105 6.28493 21.9266 4.96201 20.8123 3.84768C19.698 2.73335 18.375 1.84944 16.9191 1.24643C15.4631 0.643421 13.9026 0.333121 12.3267 0.333252ZM16.1421 18.5162C16.0972 18.6282 16.0289 18.7293 15.9417 18.8127C15.8545 18.8962 15.7505 18.96 15.6366 18.9999C15.5228 19.0399 15.4017 19.055 15.2815 19.0443C15.1613 19.0337 15.0448 18.9974 14.9397 18.938L11.6821 16.4068L9.59135 18.3356C9.54284 18.3715 9.48609 18.3946 9.42632 18.4027C9.36656 18.4109 9.3057 18.4039 9.24935 18.3824L9.65015 14.7962L9.66298 14.8064L9.67117 14.7356C9.67117 14.7356 15.5332 9.39859 15.772 9.1712C16.0137 8.9444 15.934 8.8952 15.934 8.8952C15.9477 8.61857 15.5001 8.8952 15.5001 8.8952L7.73313 13.892L4.49854 12.7904C4.49854 12.7904 4.00174 12.6122 3.95494 12.2204C3.90574 11.8316 4.51473 11.6204 4.51473 11.6204L17.3751 6.51144C17.3751 6.51144 18.4323 6.04041 18.4323 6.82045L16.1421 18.5162Z" fill="#4D5358"/>
</svg>
