<svg width="306" height="118" viewBox="0 0 306 118" fill="none" xmlns="http://www.w3.org/2000/svg">
<g clip-path="url(#clip0_576_564)">
<rect width="306" height="118" rx="10" fill="#1D1D24"/>
<g filter="url(#filter0_f_576_564)">
</g>
<path d="M114.4 54.3C113.393 54.3 112.487 54.1333 111.68 53.8C110.88 53.46 110.217 52.98 109.69 52.36C109.17 51.74 108.83 51.0033 108.67 50.15L110.17 49.9C110.41 50.8333 110.917 51.5667 111.69 52.1C112.463 52.6267 113.387 52.89 114.46 52.89C115.167 52.89 115.8 52.78 116.36 52.56C116.92 52.3333 117.36 52.0133 117.68 51.6C118 51.1867 118.16 50.6967 118.16 50.13C118.16 49.7567 118.093 49.44 117.96 49.18C117.827 48.9133 117.65 48.6933 117.43 48.52C117.21 48.3467 116.97 48.2033 116.71 48.09C116.45 47.97 116.197 47.8733 115.95 47.8L112.3 46.71C111.86 46.5833 111.453 46.4233 111.08 46.23C110.707 46.03 110.38 45.7933 110.1 45.52C109.827 45.24 109.613 44.9133 109.46 44.54C109.307 44.1667 109.23 43.74 109.23 43.26C109.23 42.4467 109.443 41.7433 109.87 41.15C110.297 40.5567 110.88 40.1 111.62 39.78C112.36 39.46 113.203 39.3033 114.15 39.31C115.11 39.31 115.967 39.48 116.72 39.82C117.48 40.16 118.107 40.6467 118.6 41.28C119.093 41.9067 119.42 42.65 119.58 43.51L118.04 43.79C117.94 43.1633 117.71 42.62 117.35 42.16C116.99 41.7 116.53 41.3467 115.97 41.1C115.417 40.8467 114.807 40.7167 114.14 40.71C113.493 40.71 112.917 40.82 112.41 41.04C111.91 41.2533 111.513 41.5467 111.22 41.92C110.927 42.2933 110.78 42.72 110.78 43.2C110.78 43.6867 110.913 44.0767 111.18 44.37C111.453 44.6633 111.787 44.8933 112.18 45.06C112.58 45.2267 112.967 45.3633 113.34 45.47L116.16 46.3C116.453 46.38 116.797 46.4967 117.19 46.65C117.59 46.7967 117.977 47.01 118.35 47.29C118.73 47.5633 119.043 47.9233 119.29 48.37C119.537 48.8167 119.66 49.3833 119.66 50.07C119.66 50.7367 119.527 51.3333 119.26 51.86C119 52.3867 118.63 52.83 118.15 53.19C117.677 53.55 117.12 53.8233 116.48 54.01C115.847 54.2033 115.153 54.3 114.4 54.3ZM124.814 54.3C124.001 54.3 123.318 54.1533 122.764 53.86C122.218 53.5667 121.808 53.1767 121.534 52.69C121.261 52.2033 121.124 51.6733 121.124 51.1C121.124 50.5133 121.241 50.0133 121.474 49.6C121.714 49.18 122.038 48.8367 122.444 48.57C122.858 48.3033 123.334 48.1 123.874 47.96C124.421 47.8267 125.024 47.71 125.684 47.61C126.351 47.5033 127.001 47.4133 127.634 47.34C128.274 47.26 128.834 47.1833 129.314 47.11L128.794 47.43C128.814 46.3633 128.608 45.5733 128.174 45.06C127.741 44.5467 126.988 44.29 125.914 44.29C125.174 44.29 124.548 44.4567 124.034 44.79C123.528 45.1233 123.171 45.65 122.964 46.37L121.534 45.95C121.781 44.9833 122.278 44.2333 123.024 43.7C123.771 43.1667 124.741 42.9 125.934 42.9C126.921 42.9 127.758 43.0867 128.444 43.46C129.138 43.8267 129.628 44.36 129.914 45.06C130.048 45.3733 130.134 45.7233 130.174 46.11C130.214 46.4967 130.234 46.89 130.234 47.29V54H128.924V51.29L129.304 51.45C128.938 52.3767 128.368 53.0833 127.594 53.57C126.821 54.0567 125.894 54.3 124.814 54.3ZM124.984 53.03C125.671 53.03 126.271 52.9067 126.784 52.66C127.298 52.4133 127.711 52.0767 128.024 51.65C128.338 51.2167 128.541 50.73 128.634 50.19C128.714 49.8433 128.758 49.4633 128.764 49.05C128.771 48.63 128.774 48.3167 128.774 48.11L129.334 48.4C128.834 48.4667 128.291 48.5333 127.704 48.6C127.124 48.6667 126.551 48.7433 125.984 48.83C125.424 48.9167 124.918 49.02 124.464 49.14C124.158 49.2267 123.861 49.35 123.574 49.51C123.288 49.6633 123.051 49.87 122.864 50.13C122.684 50.39 122.594 50.7133 122.594 51.1C122.594 51.4133 122.671 51.7167 122.824 52.01C122.984 52.3033 123.238 52.5467 123.584 52.74C123.938 52.9333 124.404 53.03 124.984 53.03ZM135.367 54L131.447 43.2H132.937L136.127 52.08L139.297 43.2H140.807L136.887 54H135.367ZM146.783 54.3C145.729 54.3 144.816 54.0667 144.043 53.6C143.276 53.1333 142.679 52.4767 142.253 51.63C141.826 50.7833 141.613 49.79 141.613 48.65C141.613 47.47 141.823 46.45 142.243 45.59C142.663 44.73 143.253 44.0667 144.013 43.6C144.779 43.1333 145.683 42.9 146.723 42.9C147.789 42.9 148.699 43.1467 149.453 43.64C150.206 44.1267 150.776 44.8267 151.163 45.74C151.549 46.6533 151.726 47.7433 151.693 49.01H150.193V48.49C150.166 47.09 149.863 46.0333 149.283 45.32C148.709 44.6067 147.869 44.25 146.763 44.25C145.603 44.25 144.713 44.6267 144.093 45.38C143.479 46.1333 143.173 47.2067 143.173 48.6C143.173 49.96 143.479 51.0167 144.093 51.77C144.713 52.5167 145.589 52.89 146.723 52.89C147.496 52.89 148.169 52.7133 148.743 52.36C149.323 52 149.779 51.4833 150.113 50.81L151.483 51.34C151.056 52.28 150.426 53.01 149.593 53.53C148.766 54.0433 147.829 54.3 146.783 54.3ZM142.653 49.01V47.78H150.903V49.01H142.653ZM162.046 54.27C161.399 54.27 160.832 54.17 160.346 53.97C159.866 53.77 159.456 53.5 159.116 53.16C158.782 52.82 158.512 52.4333 158.306 52C158.099 51.56 157.949 51.0967 157.856 50.61C157.762 50.1167 157.716 49.6267 157.716 49.14V43.2H159.196V48.71C159.196 49.3033 159.252 49.8533 159.366 50.36C159.479 50.8667 159.659 51.31 159.906 51.69C160.159 52.0633 160.482 52.3533 160.876 52.56C161.276 52.7667 161.759 52.87 162.326 52.87C162.846 52.87 163.302 52.78 163.696 52.6C164.096 52.42 164.429 52.1633 164.696 51.83C164.969 51.49 165.176 51.08 165.316 50.6C165.456 50.1133 165.526 49.5667 165.526 48.96L166.566 49.19C166.566 50.2967 166.372 51.2267 165.986 51.98C165.599 52.7333 165.066 53.3033 164.386 53.69C163.706 54.0767 162.926 54.27 162.046 54.27ZM165.676 54V51.34H165.526V43.2H166.996V54H165.676ZM174.641 54.3C173.647 54.3 172.807 54.05 172.121 53.55C171.434 53.0433 170.914 52.36 170.561 51.5C170.207 50.6333 170.031 49.6633 170.031 48.59C170.031 47.4967 170.207 46.5233 170.561 45.67C170.921 44.81 171.447 44.1333 172.141 43.64C172.834 43.1467 173.687 42.9 174.701 42.9C175.687 42.9 176.534 43.15 177.241 43.65C177.947 44.15 178.487 44.83 178.861 45.69C179.241 46.55 179.431 47.5167 179.431 48.59C179.431 49.67 179.241 50.64 178.861 51.5C178.481 52.36 177.934 53.0433 177.221 53.55C176.507 54.05 175.647 54.3 174.641 54.3ZM169.781 58.8V43.2H171.101V51.33H171.261V58.8H169.781ZM174.491 52.93C175.244 52.93 175.871 52.74 176.371 52.36C176.871 51.98 177.244 51.4633 177.491 50.81C177.744 50.15 177.871 49.41 177.871 48.59C177.871 47.7767 177.747 47.0433 177.501 46.39C177.254 45.7367 176.877 45.22 176.371 44.84C175.871 44.46 175.234 44.27 174.461 44.27C173.707 44.27 173.081 44.4533 172.581 44.82C172.087 45.1867 171.717 45.6967 171.471 46.35C171.224 46.9967 171.101 47.7433 171.101 48.59C171.101 49.4233 171.224 50.17 171.471 50.83C171.717 51.4833 172.091 51.9967 172.591 52.37C173.091 52.7433 173.724 52.93 174.491 52.93ZM191.51 54C190.904 54.1267 190.304 54.1767 189.71 54.15C189.124 54.1233 188.597 53.9967 188.13 53.77C187.67 53.5433 187.32 53.19 187.08 52.71C186.887 52.31 186.78 51.9067 186.76 51.5C186.747 51.0867 186.74 50.6167 186.74 50.09V40.2H188.2V50.03C188.2 50.4833 188.204 50.8633 188.21 51.17C188.224 51.47 188.294 51.7367 188.42 51.97C188.66 52.4167 189.04 52.6833 189.56 52.77C190.087 52.8567 190.737 52.8367 191.51 52.71V54ZM184.43 44.46V43.2H191.51V44.46H184.43ZM197.758 54.3C196.684 54.3 195.768 54.0567 195.008 53.57C194.248 53.0833 193.664 52.41 193.258 51.55C192.851 50.69 192.648 49.7033 192.648 48.59C192.648 47.4567 192.854 46.4633 193.268 45.61C193.681 44.7567 194.268 44.0933 195.028 43.62C195.794 43.14 196.704 42.9 197.758 42.9C198.838 42.9 199.758 43.1433 200.518 43.63C201.284 44.11 201.868 44.78 202.268 45.64C202.674 46.4933 202.878 47.4767 202.878 48.59C202.878 49.7233 202.674 50.72 202.268 51.58C201.861 52.4333 201.274 53.1 200.508 53.58C199.741 54.06 198.824 54.3 197.758 54.3ZM197.758 52.89C198.958 52.89 199.851 52.4933 200.438 51.7C201.024 50.9 201.318 49.8633 201.318 48.59C201.318 47.2833 201.021 46.2433 200.428 45.47C199.841 44.6967 198.951 44.31 197.758 44.31C196.951 44.31 196.284 44.4933 195.758 44.86C195.238 45.22 194.848 45.7233 194.588 46.37C194.334 47.01 194.208 47.75 194.208 48.59C194.208 49.89 194.508 50.9333 195.108 51.72C195.708 52.5 196.591 52.89 197.758 52.89ZM213.798 54.3C212.844 54.3 211.998 54.1067 211.258 53.72C210.518 53.3333 209.938 52.7967 209.518 52.11C209.098 51.4233 208.888 50.6367 208.888 49.75C208.888 48.9567 209.071 48.22 209.438 47.54C209.804 46.86 210.341 46.3167 211.048 45.91L210.998 46.68C210.444 46.26 210.014 45.7767 209.708 45.23C209.408 44.6767 209.258 44.0567 209.258 43.37C209.258 42.5433 209.451 41.8267 209.838 41.22C210.231 40.6133 210.768 40.1433 211.448 39.81C212.128 39.47 212.911 39.3 213.798 39.3C214.684 39.3 215.468 39.47 216.148 39.81C216.834 40.1433 217.371 40.6133 217.758 41.22C218.151 41.8267 218.348 42.5433 218.348 43.37C218.348 44.0567 218.201 44.6733 217.908 45.22C217.621 45.7667 217.184 46.26 216.598 46.7L216.588 45.92C217.281 46.3133 217.811 46.8533 218.178 47.54C218.551 48.22 218.738 48.9567 218.738 49.75C218.738 50.6367 218.524 51.4233 218.098 52.11C217.678 52.7967 217.094 53.3333 216.348 53.72C215.608 54.1067 214.758 54.3 213.798 54.3ZM213.798 52.03C214.504 52.03 215.078 51.8367 215.518 51.45C215.964 51.0633 216.188 50.4967 216.188 49.75C216.188 49.0033 215.968 48.4367 215.528 48.05C215.088 47.6567 214.511 47.46 213.798 47.46C213.091 47.46 212.521 47.6567 212.088 48.05C211.654 48.4367 211.438 49.0033 211.438 49.75C211.438 50.4967 211.654 51.0633 212.088 51.45C212.521 51.8367 213.091 52.03 213.798 52.03ZM213.798 45.17C214.391 45.17 214.871 45.0233 215.238 44.73C215.611 44.43 215.798 43.9767 215.798 43.37C215.798 42.7633 215.611 42.3133 215.238 42.02C214.871 41.72 214.391 41.57 213.798 41.57C213.211 41.57 212.731 41.72 212.358 42.02C211.991 42.3133 211.808 42.7633 211.808 43.37C211.808 43.9767 211.991 44.43 212.358 44.73C212.731 45.0233 213.211 45.17 213.798 45.17ZM226.514 54.3C225.494 54.3 224.594 54.0833 223.814 53.65C223.034 53.21 222.424 52.6 221.984 51.82C221.55 51.04 221.334 50.14 221.334 49.12V44.48C221.334 43.46 221.55 42.56 221.984 41.78C222.424 41 223.034 40.3933 223.814 39.96C224.594 39.52 225.494 39.3 226.514 39.3C227.534 39.3 228.43 39.52 229.204 39.96C229.984 40.3933 230.594 41 231.034 41.78C231.474 42.56 231.694 43.46 231.694 44.48V49.12C231.694 50.14 231.474 51.04 231.034 51.82C230.594 52.6 229.984 53.21 229.204 53.65C228.43 54.0833 227.534 54.3 226.514 54.3ZM226.514 52.01C227.02 52.01 227.48 51.89 227.894 51.65C228.307 51.4033 228.634 51.0767 228.874 50.67C229.114 50.2567 229.234 49.7967 229.234 49.29V44.3C229.234 43.7867 229.114 43.3267 228.874 42.92C228.634 42.5067 228.307 42.18 227.894 41.94C227.48 41.6933 227.02 41.57 226.514 41.57C226.007 41.57 225.547 41.6933 225.134 41.94C224.72 42.18 224.394 42.5067 224.154 42.92C223.914 43.3267 223.794 43.7867 223.794 44.3V49.29C223.794 49.7967 223.914 50.2567 224.154 50.67C224.394 51.0767 224.72 51.4033 225.134 51.65C225.547 51.89 226.007 52.01 226.514 52.01ZM236.498 54L234.898 52.4L247.708 39.6L249.308 41.21L236.498 54ZM246.308 54.3C245.648 54.3 245.044 54.14 244.498 53.82C243.958 53.4933 243.524 53.06 243.198 52.52C242.871 51.9733 242.708 51.3667 242.708 50.7C242.708 50.0467 242.874 49.4467 243.208 48.9C243.541 48.3533 243.981 47.9167 244.528 47.59C245.074 47.2633 245.668 47.1 246.308 47.1C246.968 47.1 247.571 47.2633 248.118 47.59C248.664 47.91 249.098 48.3433 249.418 48.89C249.744 49.43 249.908 50.0333 249.908 50.7C249.908 51.3667 249.744 51.9733 249.418 52.52C249.098 53.06 248.664 53.4933 248.118 53.82C247.571 54.14 246.968 54.3 246.308 54.3ZM246.308 52.24C246.581 52.24 246.834 52.17 247.068 52.03C247.308 51.89 247.498 51.7033 247.638 51.47C247.778 51.2367 247.848 50.98 247.848 50.7C247.848 50.42 247.778 50.1633 247.638 49.93C247.498 49.6967 247.308 49.51 247.068 49.37C246.834 49.23 246.581 49.16 246.308 49.16C246.028 49.16 245.771 49.23 245.538 49.37C245.304 49.51 245.114 49.6967 244.968 49.93C244.828 50.1633 244.758 50.42 244.758 50.7C244.758 50.98 244.828 51.2367 244.968 51.47C245.114 51.7033 245.304 51.89 245.538 52.03C245.771 52.17 246.028 52.24 246.308 52.24ZM237.898 46.5C237.238 46.5 236.634 46.34 236.088 46.02C235.541 45.6933 235.104 45.26 234.778 44.72C234.458 44.1733 234.298 43.5667 234.298 42.9C234.298 42.2467 234.464 41.6467 234.798 41.1C235.131 40.5533 235.571 40.1167 236.118 39.79C236.664 39.4633 237.258 39.3 237.898 39.3C238.558 39.3 239.158 39.4633 239.698 39.79C240.244 40.11 240.681 40.5433 241.008 41.09C241.334 41.63 241.498 42.2333 241.498 42.9C241.498 43.5667 241.334 44.1733 241.008 44.72C240.681 45.26 240.244 45.6933 239.698 46.02C239.158 46.34 238.558 46.5 237.898 46.5ZM237.898 44.44C238.178 44.44 238.434 44.37 238.668 44.23C238.901 44.09 239.088 43.9033 239.228 43.67C239.368 43.4367 239.438 43.18 239.438 42.9C239.438 42.62 239.368 42.3633 239.228 42.13C239.088 41.8967 238.901 41.71 238.668 41.57C238.434 41.43 238.178 41.36 237.898 41.36C237.618 41.36 237.361 41.43 237.128 41.57C236.894 41.71 236.708 41.8967 236.568 42.13C236.428 42.3633 236.358 42.62 236.358 42.9C236.358 43.18 236.428 43.4367 236.568 43.67C236.708 43.9033 236.894 44.09 237.128 44.23C237.361 44.37 237.618 44.44 237.898 44.44ZM261.019 54.3C259.946 54.3 259.029 54.0567 258.269 53.57C257.509 53.0833 256.926 52.41 256.519 51.55C256.113 50.69 255.909 49.7033 255.909 48.59C255.909 47.4567 256.116 46.4633 256.529 45.61C256.943 44.7567 257.529 44.0933 258.289 43.62C259.056 43.14 259.966 42.9 261.019 42.9C262.099 42.9 263.019 43.1433 263.779 43.63C264.546 44.11 265.129 44.78 265.529 45.64C265.936 46.4933 266.139 47.4767 266.139 48.59C266.139 49.7233 265.936 50.72 265.529 51.58C265.123 52.4333 264.536 53.1 263.769 53.58C263.003 54.06 262.086 54.3 261.019 54.3ZM261.019 52.89C262.219 52.89 263.113 52.4933 263.699 51.7C264.286 50.9 264.579 49.8633 264.579 48.59C264.579 47.2833 264.283 46.2433 263.689 45.47C263.103 44.6967 262.213 44.31 261.019 44.31C260.213 44.31 259.546 44.4933 259.019 44.86C258.499 45.22 258.109 45.7233 257.849 46.37C257.596 47.01 257.469 47.75 257.469 48.59C257.469 49.89 257.769 50.9333 258.369 51.72C258.969 52.5 259.853 52.89 261.019 52.89ZM269.415 54V42.4C269.415 42.12 269.429 41.8433 269.455 41.57C269.489 41.2967 269.552 41.0367 269.645 40.79C269.739 40.5367 269.885 40.3033 270.085 40.09C270.305 39.85 270.545 39.6767 270.805 39.57C271.065 39.4567 271.335 39.3833 271.615 39.35C271.902 39.3167 272.182 39.3 272.455 39.3H273.835V40.54H272.555C271.995 40.54 271.575 40.6767 271.295 40.95C271.022 41.2233 270.885 41.6533 270.885 42.24V54H269.415ZM267.545 44.46V43.2H273.835V44.46H267.545ZM110.94 86.8L113.03 81.13L113.06 82.81L108.33 71.2H109.89L113.77 80.91H113.13L116.71 71.2H118.21L112.41 86.8H110.94ZM124.066 82.3C122.993 82.3 122.076 82.0567 121.316 81.57C120.556 81.0833 119.973 80.41 119.566 79.55C119.16 78.69 118.956 77.7033 118.956 76.59C118.956 75.4567 119.163 74.4633 119.576 73.61C119.99 72.7567 120.576 72.0933 121.336 71.62C122.103 71.14 123.013 70.9 124.066 70.9C125.146 70.9 126.066 71.1433 126.826 71.63C127.593 72.11 128.176 72.78 128.576 73.64C128.983 74.4933 129.186 75.4767 129.186 76.59C129.186 77.7233 128.983 78.72 128.576 79.58C128.17 80.4333 127.583 81.1 126.816 81.58C126.05 82.06 125.133 82.3 124.066 82.3ZM124.066 80.89C125.266 80.89 126.16 80.4933 126.746 79.7C127.333 78.9 127.626 77.8633 127.626 76.59C127.626 75.2833 127.33 74.2433 126.736 73.47C126.15 72.6967 125.26 72.31 124.066 72.31C123.26 72.31 122.593 72.4933 122.066 72.86C121.546 73.22 121.156 73.7233 120.896 74.37C120.643 75.01 120.516 75.75 120.516 76.59C120.516 77.89 120.816 78.9333 121.416 79.72C122.016 80.5 122.9 80.89 124.066 80.89ZM135.522 82.27C134.876 82.27 134.309 82.17 133.822 81.97C133.342 81.77 132.932 81.5 132.592 81.16C132.259 80.82 131.989 80.4333 131.782 80C131.576 79.56 131.426 79.0967 131.332 78.61C131.239 78.1167 131.192 77.6267 131.192 77.14V71.2H132.672V76.71C132.672 77.3033 132.729 77.8533 132.842 78.36C132.956 78.8667 133.136 79.31 133.382 79.69C133.636 80.0633 133.959 80.3533 134.352 80.56C134.752 80.7667 135.236 80.87 135.802 80.87C136.322 80.87 136.779 80.78 137.172 80.6C137.572 80.42 137.906 80.1633 138.172 79.83C138.446 79.49 138.652 79.08 138.792 78.6C138.932 78.1133 139.002 77.5667 139.002 76.96L140.042 77.19C140.042 78.2967 139.849 79.2267 139.462 79.98C139.076 80.7333 138.542 81.3033 137.862 81.69C137.182 82.0767 136.402 82.27 135.522 82.27ZM139.152 82V79.34H139.002V71.2H140.472V82H139.152ZM143.267 82V71.2H144.587V73.8L144.327 73.46C144.447 73.14 144.604 72.8467 144.797 72.58C144.991 72.3067 145.201 72.0833 145.427 71.91C145.707 71.6633 146.034 71.4767 146.407 71.35C146.781 71.2167 147.157 71.14 147.537 71.12C147.917 71.0933 148.264 71.12 148.577 71.2V72.58C148.184 72.48 147.754 72.4567 147.287 72.51C146.821 72.5633 146.391 72.75 145.997 73.07C145.637 73.35 145.367 73.6867 145.187 74.08C145.007 74.4667 144.887 74.88 144.827 75.32C144.767 75.7533 144.737 76.1833 144.737 76.61V82H143.267ZM160.358 82C159.751 82.1267 159.151 82.1767 158.558 82.15C157.971 82.1233 157.445 81.9967 156.978 81.77C156.518 81.5433 156.168 81.19 155.928 80.71C155.735 80.31 155.628 79.9067 155.608 79.5C155.595 79.0867 155.588 78.6167 155.588 78.09V68.2H157.048V78.03C157.048 78.4833 157.051 78.8633 157.058 79.17C157.071 79.47 157.141 79.7367 157.268 79.97C157.508 80.4167 157.888 80.6833 158.408 80.77C158.935 80.8567 159.585 80.8367 160.358 80.71V82ZM153.278 72.46V71.2H160.358V72.46H153.278ZM162.686 69.15V67.5H164.156V69.15H162.686ZM162.686 82V71.2H164.156V82H162.686ZM180.034 82L180.044 74.91C180.044 74.0767 179.811 73.4233 179.344 72.95C178.884 72.47 178.297 72.23 177.584 72.23C177.177 72.23 176.781 72.3233 176.394 72.51C176.007 72.6967 175.687 72.9967 175.434 73.41C175.187 73.8233 175.064 74.3633 175.064 75.03L174.194 74.78C174.174 74.0067 174.324 73.33 174.644 72.75C174.971 72.17 175.417 71.72 175.984 71.4C176.557 71.0733 177.204 70.91 177.924 70.91C179.011 70.91 179.881 71.2467 180.534 71.92C181.187 72.5867 181.514 73.49 181.514 74.63L181.504 82H180.034ZM167.144 82V71.2H168.464V73.86H168.624V82H167.144ZM173.604 82L173.614 75.01C173.614 74.15 173.384 73.4733 172.924 72.98C172.471 72.48 171.871 72.23 171.124 72.23C170.377 72.23 169.774 72.4867 169.314 73C168.854 73.5067 168.624 74.1833 168.624 75.03L167.744 74.55C167.744 73.8567 167.907 73.2367 168.234 72.69C168.561 72.1367 169.007 71.7033 169.574 71.39C170.141 71.07 170.784 70.91 171.504 70.91C172.191 70.91 172.801 71.0567 173.334 71.35C173.874 71.6433 174.297 72.07 174.604 72.63C174.911 73.19 175.064 73.87 175.064 74.67L175.054 82H173.604ZM188.618 82.3C187.565 82.3 186.652 82.0667 185.878 81.6C185.112 81.1333 184.515 80.4767 184.088 79.63C183.662 78.7833 183.448 77.79 183.448 76.65C183.448 75.47 183.658 74.45 184.078 73.59C184.498 72.73 185.088 72.0667 185.848 71.6C186.615 71.1333 187.518 70.9 188.558 70.9C189.625 70.9 190.535 71.1467 191.288 71.64C192.042 72.1267 192.612 72.8267 192.998 73.74C193.385 74.6533 193.562 75.7433 193.528 77.01H192.028V76.49C192.002 75.09 191.698 74.0333 191.118 73.32C190.545 72.6067 189.705 72.25 188.598 72.25C187.438 72.25 186.548 72.6267 185.928 73.38C185.315 74.1333 185.008 75.2067 185.008 76.6C185.008 77.96 185.315 79.0167 185.928 79.77C186.548 80.5167 187.425 80.89 188.558 80.89C189.332 80.89 190.005 80.7133 190.578 80.36C191.158 80 191.615 79.4833 191.948 78.81L193.318 79.34C192.892 80.28 192.262 81.01 191.428 81.53C190.602 82.0433 189.665 82.3 188.618 82.3ZM184.488 77.01V75.78H192.738V77.01H184.488ZM195.637 82V80.29H197.347V82H195.637Z" fill="#F3F5F7"/>
<circle cx="54" cy="56" r="38" fill="#11151B"/>
<path fill-rule="evenodd" clip-rule="evenodd" d="M58.8875 72.6314C62.6254 72.5975 66.241 71.2862 69.1328 68.913C72.063 66.5083 74.0687 63.1619 74.8082 59.4442C75.5477 55.7264 74.9753 51.8672 73.1884 48.5242C71.4015 45.1812 68.5108 42.5612 65.0087 41.1106C61.5067 39.66 57.61 39.4686 53.9826 40.5689C50.3552 41.6693 47.2216 43.9933 45.1156 47.1451C43.0097 50.2969 42.0617 54.0813 42.4333 57.8537C42.7564 61.1341 44.0599 64.2289 46.1569 66.7428C46.6796 67.3694 47.621 67.3655 48.1979 66.7885C48.7749 66.2115 48.7676 65.2806 48.2574 64.6437C46.6373 62.6213 45.63 60.1638 45.3739 57.564C45.0694 54.472 45.8464 51.3701 47.5725 48.7867C49.2987 46.2034 51.8672 44.2985 54.8403 43.3966C57.8135 42.4947 61.0075 42.6516 63.8779 43.8405C66.7484 45.0295 69.1178 47.177 70.5824 49.9171C72.047 52.6572 72.5162 55.8204 71.9101 58.8677C71.304 61.915 69.66 64.6578 67.2582 66.6288C64.8565 68.5999 61.8457 69.6772 58.7387 69.6772V69.6969L36.6766 69.7245C35.8744 69.7255 35.2246 70.3761 35.2246 71.1783C35.2246 71.9812 35.8755 72.6321 36.6784 72.6321H58.8875V72.6314Z" fill="url(#paint0_radial_576_564)"/>
<path fill-rule="evenodd" clip-rule="evenodd" d="M54.1689 50.1807C53.5934 49.6221 52.6745 49.6346 52.1144 50.2085C51.5532 50.7835 51.5644 51.7046 52.1394 52.2658L57.3153 57.3175L58.7893 58.8728L58.8498 58.8151L58.8954 58.8597L60.1465 57.5779L64.0885 53.8166C64.6686 53.2631 64.6917 52.3446 64.1402 51.7626C63.5873 51.1792 62.6661 51.1545 62.0828 51.7074L58.8742 54.7481L54.1689 50.1807Z" fill="#4192E2"/>
<path d="M34.4434 53.0728C34.4434 52.2622 35.1005 51.6051 35.9111 51.6051H39.5054C40.316 51.6051 40.9731 52.2622 40.9731 53.0728C40.9731 53.8834 40.316 54.5405 39.5054 54.5405H35.9111C35.1005 54.5405 34.4434 53.8834 34.4434 53.0728Z" fill="#80F4AF"/>
<path d="M33.0684 61.9988C33.0684 61.1882 33.7255 60.5311 34.5361 60.5311H40.287C41.0976 60.5311 41.7547 61.1882 41.7547 61.9988C41.7547 62.8094 41.0976 63.4665 40.287 63.4665H34.5361C33.7255 63.4665 33.0684 62.8094 33.0684 61.9988Z" fill="#80F4AF"/>
<path d="M28.6367 66.3122C28.6367 65.5016 29.2938 64.8445 30.1044 64.8445H39.5097C40.3203 64.8445 40.9774 65.5016 40.9774 66.3122C40.9774 67.1228 40.3203 67.7799 39.5097 67.7799H30.1044C29.2938 67.7799 28.6367 67.1228 28.6367 66.3122Z" fill="#80F4AF"/>
<path d="M24.2012 57.3859C24.2012 56.5753 24.8583 55.9182 25.6689 55.9182H37.2907C38.1012 55.9182 38.7584 56.5753 38.7584 57.3859C38.7584 58.1965 38.1012 58.8536 37.2907 58.8536H25.6689C24.8583 58.8536 24.2012 58.1965 24.2012 57.3859Z" fill="#80F4AF"/>
<rect x="57.748" y="44.4164" width="1.73728" height="2.75568" rx="0.868639" fill="#4295E0"/>
<rect x="57.748" y="65.5032" width="1.73728" height="2.75568" rx="0.868639" fill="#7DEFB1"/>
<rect x="70.5078" y="55.559" width="1.73728" height="2.75568" rx="0.868639" transform="rotate(90 70.5078 55.559)" fill="#60C2C9"/>
<rect x="49.4805" y="55.559" width="1.73728" height="2.75568" rx="0.868639" transform="rotate(90 49.4805 55.559)" fill="#4295E0"/>
<rect x="63.8594" y="45.5546" width="1.73728" height="2.75568" rx="0.868639" transform="rotate(30 63.8594 45.5546)" fill="#60C2C9"/>
<rect x="62.4805" y="64.9177" width="1.73728" height="2.75568" rx="0.868639" transform="rotate(-31.6671 62.4805 64.9177)" fill="#7DEFB1"/>
<rect x="51.875" y="46.4232" width="1.73728" height="2.75568" rx="0.868639" transform="rotate(-30 51.875 46.4232)" fill="#4295E0"/>
<rect x="53.2559" y="63.8859" width="1.73728" height="2.75568" rx="0.868639" transform="rotate(30 53.2559 63.8859)" fill="#7DEFB1"/>
<rect x="68.5215" y="49.748" width="1.73728" height="2.75568" rx="0.868639" transform="rotate(60 68.5215 49.748)" fill="#60C2C9"/>
<rect x="69.3887" y="61.6094" width="1.73728" height="2.75568" rx="0.868639" transform="rotate(120 69.3887 61.6094)" fill="#7DEFB1"/>
<rect x="47.8633" y="51.2526" width="1.73728" height="2.75568" rx="0.868639" transform="rotate(-60 47.8633 51.2526)" fill="#4295E0"/>
<rect x="48.7324" y="63.114" width="1.73728" height="2.75568" rx="0.868639" transform="rotate(-120 48.7324 63.114)" fill="#7DEFB1"/>
<g filter="url(#filter1_f_576_564)">
<ellipse cx="156.359" cy="109.575" rx="22.3586" ry="21.8959" fill="#00C2FF" fill-opacity="0.5"/>
<ellipse cx="169.642" cy="87.8959" rx="22.3586" ry="21.8959" fill="#C4C4C4" fill-opacity="0.5"/>
<ellipse cx="169.642" cy="87.8959" rx="22.3586" ry="21.8959" fill="#00A3FF" fill-opacity="0.5"/>
<ellipse cx="167.599" cy="91.5089" rx="22.3586" ry="21.8959" fill="#00FF66" fill-opacity="0.4"/>
</g>
</g>
<rect x="0.5" y="0.5" width="305" height="117" rx="9.5" stroke="#32323B"/>
<defs>
<filter id="filter0_f_576_564" x="-240" y="-203" width="1233" height="1263.01" filterUnits="userSpaceOnUse" color-interpolation-filters="sRGB">
<feFlood flood-opacity="0" result="BackgroundImageFix"/>
<feBlend mode="normal" in="SourceGraphic" in2="BackgroundImageFix" result="shape"/>
<feGaussianBlur stdDeviation="250" result="effect1_foregroundBlur_576_564"/>
</filter>
<filter id="filter1_f_576_564" x="9.53741" y="-58.4626" width="306.926" height="314.396" filterUnits="userSpaceOnUse" color-interpolation-filters="sRGB">
<feFlood flood-opacity="0" result="BackgroundImageFix"/>
<feBlend mode="normal" in="SourceGraphic" in2="BackgroundImageFix" result="shape"/>
<feGaussianBlur stdDeviation="62.2313" result="effect1_foregroundBlur_576_564"/>
</filter>
<radialGradient id="paint0_radial_576_564" cx="0" cy="0" r="1" gradientUnits="userSpaceOnUse" gradientTransform="translate(55.1738 45.0752) rotate(90) scale(27.5569 33.5526)">
<stop stop-color="#337DEC"/>
<stop offset="1" stop-color="#80F4AE"/>
</radialGradient>
<clipPath id="clip0_576_564">
<rect width="306" height="118" rx="10" fill="white"/>
</clipPath>
</defs>
</svg>
