<svg width="28" height="28" viewBox="0 0 28 28" fill="none" xmlns="http://www.w3.org/2000/svg">
<g clip-path="url(#clip0_576_662)">
<path d="M28 14C28 6.26801 21.732 0 14 0C6.26801 0 0 6.26801 0 14C0 21.732 6.26801 28 14 28C21.732 28 28 21.732 28 14Z" fill="#1DA1F2"/>
<path d="M23.625 9.58177C22.9674 9.8671 22.2718 10.0557 21.56 10.1418C22.3109 9.69318 22.8737 8.98746 23.1437 8.15552C22.4381 8.57558 21.6657 8.87153 20.86 9.03052C20.3215 8.44652 19.6043 8.05778 18.8211 7.92527C18.0378 7.79276 17.2327 7.92396 16.532 8.29831C15.8314 8.67267 15.2748 9.26899 14.9495 9.99376C14.6244 10.7185 14.5489 11.5307 14.735 12.303C13.3083 12.2309 11.9126 11.8594 10.6388 11.2127C9.36501 10.5659 8.24148 9.6585 7.34125 8.54927C7.02549 9.10067 6.85958 9.72512 6.86 10.3605C6.85888 10.9506 7.00369 11.5318 7.28154 12.0524C7.55938 12.5729 7.96164 13.0167 8.4525 13.3443C7.88198 13.3287 7.32364 13.1756 6.825 12.898V12.9418C6.82928 13.7685 7.119 14.5685 7.64515 15.2062C8.17131 15.844 8.9016 16.2805 9.7125 16.4418C9.40035 16.5368 9.07627 16.5868 8.75 16.5906C8.52416 16.5879 8.29887 16.5674 8.07625 16.5293C8.30717 17.2405 8.75405 17.862 9.35469 18.3074C9.95534 18.7528 10.6799 18.9999 11.4275 19.0143C10.1651 20.0076 8.60639 20.5498 7 20.5543C6.70752 20.5553 6.41527 20.5376 6.125 20.5018C7.76512 21.5607 9.67646 22.1229 11.6287 22.1205C12.976 22.1345 14.3126 21.8799 15.5602 21.3716C16.8079 20.8633 17.9419 20.1115 18.8958 19.1599C19.8497 18.2085 20.6045 17.0765 21.116 15.83C21.6275 14.5837 21.8855 13.2477 21.875 11.9005C21.875 11.7517 21.875 11.5943 21.875 11.4368C22.5616 10.9247 23.1538 10.297 23.625 9.58177Z" fill="white"/>
</g>
<defs>
<clipPath id="clip0_576_662">
<rect width="28" height="28" fill="white"/>
</clipPath>
</defs>
</svg>
