<svg width="114" height="87" viewBox="0 0 114 87" fill="none" xmlns="http://www.w3.org/2000/svg">
<path d="M42.1184 22.4243C42.0906 21.3214 42.0602 20.28 42.0602 19.2432V0H2.47754L10.1562 4.18374H37.9037V19.2425C37.9037 20.3381 37.9341 21.4568 37.964 22.5368C38.074 26.6386 38.1873 30.8797 36.6685 34.4281C34.0402 40.5654 28.0528 44.5331 21.4225 44.5331C13.3457 44.5331 6.60084 39.3112 4.63858 31.5391C4.05408 29.2183 4.13096 26.822 4.21446 24.281C4.24229 23.385 4.27013 22.4595 4.27013 21.5302V11.5505L0.113728 9.33825V21.5315C0.113728 22.3929 0.0832444 23.2849 0.0580621 24.1464C-0.0300758 26.8633 -0.118877 29.6743 0.610087 32.5699C3.04482 42.2268 11.4133 48.7166 21.422 48.7166C29.7161 48.7166 37.1993 43.7577 40.4842 36.0836C42.3696 31.6905 42.2418 26.9793 42.1184 22.4243Z" fill="#34D399"/>
<path d="M8.79736 28.2695C8.79736 28.3495 8.802 28.4275 8.8113 28.5075C9.25397 32.4579 12.415 39.9373 21.2122 39.9373C30.14 39.9373 32.698 32.3425 32.8053 28.3261C32.8053 28.3074 32.8079 28.2894 32.8079 28.2695V9.91966C32.8079 8.7635 31.8762 7.82544 30.7271 7.82544H16.8398L24.5164 12.0105H28.6496V28.2341C28.6118 29.0862 28.1227 35.7529 21.2129 35.7529C14.3401 35.7529 13.1194 29.3049 12.9538 28.1348V16.1749L8.83714 13.9814C8.81392 14.1081 8.79736 14.2374 8.79736 14.3721V28.2695Z" fill="#34D399"/>
<path d="M8.84428 13.9408C8.83765 13.9541 8.84228 13.9694 8.83765 13.9814L12.9543 16.175L8.84428 13.9408Z" fill="#34D399"/>
<g clip-path="url(#clip0_4_25377)">
<path d="M13.5327 72.8922C13.5327 74.4299 13.0395 75.7112 12.0569 76.7353C11.0703 77.7591 9.82641 78.2722 8.32885 78.2722C6.82785 78.2722 5.5843 77.7591 4.60056 76.7353C3.61649 75.7108 3.125 74.4294 3.125 72.8922V66.1409H4.69592V73.0909C4.69592 74.0903 5.05621 74.9477 5.78568 75.6628C6.51112 76.3762 7.35887 76.7357 8.32885 76.7357C9.29858 76.7357 10.1455 76.3766 10.8721 75.6628C11.5986 74.9477 11.9618 74.0903 11.9618 73.0909V66.1409H13.5327V72.8922Z" fill="white"/>
<path d="M27.322 77.9814H25.7542V71.0637C25.7542 70.0656 25.3911 69.2078 24.6642 68.4883C23.9376 67.7689 23.091 67.407 22.1196 67.407C21.137 67.407 20.2832 67.7685 19.5555 68.4883C18.8289 69.2081 18.4655 70.0656 18.4655 71.0637V77.9814H16.8975V71.2297C16.8975 69.6928 17.3923 68.4151 18.3829 67.3978C19.3739 66.38 20.62 65.8705 22.1196 65.8705C23.6063 65.8705 24.8461 66.38 25.8382 67.3978C26.8274 68.4151 27.322 69.6928 27.322 71.2297V77.9814Z" fill="white"/>
<path d="M47.5572 77.9812H45.9252V70.7116C45.9252 69.7967 45.663 69.0144 45.1391 68.3638C44.6178 67.7131 43.9297 67.3864 43.0747 67.3864C42.2081 67.3864 41.4615 67.6703 40.8351 68.2386C40.2067 68.8065 39.8964 69.5139 39.8964 70.3582V77.9816H38.2456V70.3582C38.2456 69.5143 37.9288 68.8065 37.3043 68.2386C36.6772 67.6703 35.9306 67.3864 35.0647 67.3864C34.2091 67.3864 33.53 67.7091 33.0198 68.353C32.5101 68.9965 32.2555 69.7839 32.2555 70.7116V77.9812H30.6259V70.8984C30.6259 69.416 31.0452 68.2258 31.8834 67.324C32.669 66.479 33.7001 66.0023 34.9803 65.8899C36.6882 65.7536 38.0495 66.4874 39.07 68.0931C40.0892 66.4874 41.4499 65.7536 43.1585 65.8899C44.438 66.0023 45.476 66.479 46.2777 67.324C47.1294 68.2262 47.5572 69.416 47.5572 70.8984V77.9812Z" fill="white"/>
<path d="M62.9792 72.0407V77.981H61.4095V76.131C60.1339 77.6027 58.5713 78.3069 56.7212 78.2509C55.1035 78.1945 53.7253 77.5647 52.588 76.3617C51.448 75.156 50.88 73.7227 50.88 72.0611C50.88 70.3302 51.4928 68.8454 52.7172 67.6044C53.9421 66.3651 55.4079 65.7797 57.1153 65.8484C58.768 65.9049 60.1702 66.5387 61.327 67.75C62.4839 68.9618 63.035 70.3922 62.9792 72.0407ZM61.4095 71.9263C61.3835 70.677 60.9414 69.6064 60.0865 68.719C59.2296 67.8312 58.2026 67.3861 57.0023 67.3861C55.7475 67.3861 54.6763 67.8312 53.7961 68.719C52.9125 69.6064 52.4633 70.6834 52.4497 71.9447C52.4231 73.1956 52.8321 74.2878 53.6805 75.2256C54.5303 76.1622 55.5534 76.6593 56.7543 76.7157C58.0494 76.7692 59.1556 76.315 60.0754 75.352C60.9927 74.3862 61.4374 73.2444 61.4095 71.9263Z" fill="white"/>
<path d="M70.9087 67.491C70.1797 67.5185 69.5896 67.7197 69.1346 68.0928C68.6788 68.4679 68.3711 68.7938 68.2062 69.0678C67.942 69.5261 67.8135 70.1356 67.8135 70.897V77.981H66.1614V66.1408H67.6272V67.8245C67.9583 67.1858 68.4445 66.6939 69.093 66.3484C69.6851 66.0288 70.2894 65.8837 70.9094 65.9125L70.9087 67.491Z" fill="white"/>
<path d="M80.3447 74.4514C80.4284 75.5167 80.0571 76.4425 79.2301 77.2232C78.4056 78.007 77.4546 78.3642 76.3815 78.2938C75.3896 78.2241 74.5606 77.8227 73.8926 77.0872C73.2233 76.3533 72.8936 75.4819 72.8936 74.4713H74.5217V74.8685C74.5217 75.2752 74.7443 75.6943 75.1832 76.1262C75.6253 76.5617 76.092 76.7697 76.5886 76.7565C77.2475 76.7445 77.7707 76.541 78.1577 76.1526C78.4998 75.7911 78.6822 75.3192 78.6932 74.7342C78.7068 73.7191 78.1343 73.0261 76.9775 72.6506L75.5967 72.2091C74.151 71.7524 73.3941 70.761 73.3253 69.2369C73.2837 68.3224 73.5908 67.5405 74.2477 66.8878C74.9014 66.2384 75.6941 65.8901 76.6191 65.8493C77.4189 65.8089 78.168 66.0677 78.8665 66.6279C79.5631 67.1886 79.9377 67.8848 79.9935 68.7167V69.0682H78.342V68.7958C78.342 68.3763 78.168 68.0356 77.8181 67.7764C77.4656 67.5165 77.0638 67.3861 76.6081 67.3861C76.1667 67.4009 75.7869 67.5601 75.4623 67.8664C75.1384 68.1727 74.9709 68.5559 74.9566 69.0158C74.9014 69.8656 75.4032 70.4703 76.464 70.8313L77.8266 71.2909C79.3943 71.8328 80.2343 72.8853 80.3447 74.4514Z" fill="white"/>
<path d="M93.8928 77.9814H92.3225V71.0842C92.3225 70.0876 91.9531 69.225 91.2208 68.4979C90.4827 67.7725 89.6219 67.421 88.6385 67.449C87.6374 67.4642 86.7935 67.7977 86.1061 68.4559C85.4192 69.115 85.0745 69.9488 85.0745 70.9594V77.9818H83.5035V61.9646H85.0745V67.8229C85.9717 66.6472 87.1233 66.0233 88.532 65.9537C89.9933 65.8833 91.2507 66.3692 92.3069 67.4066C93.3637 68.4467 93.8922 69.7276 93.8922 71.2513L93.8928 77.9814Z" fill="white"/>
<path d="M109.13 72.0407V77.981H107.559V76.131C106.288 77.6027 104.722 78.3069 102.872 78.2509C101.255 78.1945 99.8764 77.5647 98.7397 76.3617C97.5992 75.156 97.0311 73.7227 97.0311 72.0611C97.0311 70.3302 97.6433 68.8454 98.8676 67.6044C100.095 66.3651 101.558 65.7797 103.267 65.8484C104.918 65.9049 106.321 66.5387 107.478 67.75C108.635 68.9618 109.183 70.3922 109.13 72.0407ZM107.559 71.9263C107.531 70.677 107.092 69.6064 106.237 68.719C105.379 67.8312 104.353 67.3861 103.151 67.3861C101.897 67.3861 100.826 67.8312 99.9426 68.719C99.063 69.6064 98.6125 70.6834 98.5989 71.9447C98.5716 73.1956 98.9812 74.2878 99.831 75.2256C100.681 76.1622 101.704 76.6593 102.905 76.7157C104.202 76.7692 105.309 76.315 106.225 75.352C107.145 74.3862 107.587 73.2444 107.559 71.9263Z" fill="white"/>
<path d="M114 61.9646H112.433V77.9814H114V61.9646Z" fill="white"/>
</g>
<defs>
<clipPath id="clip0_4_25377">
<rect width="114" height="29.3906" fill="white" transform="translate(0 57)"/>
</clipPath>
</defs>
</svg>
