<svg width="306" height="118" viewBox="0 0 306 118" fill="none" xmlns="http://www.w3.org/2000/svg">
<g clip-path="url(#clip0_343_1922)">
<rect width="306" height="118" rx="10" fill="#1D1D24"/>
<g filter="url(#filter0_f_343_1922)">
</g>
<circle cx="54" cy="56" r="38" fill="#11151B"/>
<path fill-rule="evenodd" clip-rule="evenodd" d="M55.1938 67.3406H52.8448V65.0344C51.5635 64.6927 50.4887 64.1446 49.6203 63.3901C48.7519 62.6356 48.0188 61.6035 47.4208 60.2938L49.599 59.5677C49.9406 60.6497 50.5457 61.5038 51.4141 62.1302C52.2825 62.7566 53.2719 63.0698 54.3823 63.0698C55.5212 63.0698 56.4679 62.7922 57.2224 62.237C57.9769 61.6818 58.3542 60.9486 58.3542 60.0375C58.3542 59.0979 57.9983 58.3078 57.2865 57.6672C56.5747 57.0266 55.2649 56.3076 53.3573 55.5104C51.649 54.7986 50.3677 54.0299 49.5135 53.2042C48.6594 52.3785 48.2323 51.2681 48.2323 49.8729C48.2323 48.5917 48.6523 47.5168 49.4922 46.6484C50.3321 45.78 51.4781 45.2462 52.9302 45.0469V42.8688H55.2792V45.0469C56.3611 45.1608 57.3007 45.5024 58.0979 46.0719C58.8951 46.6413 59.5358 47.4243 60.0198 48.4208L57.9698 49.4031C57.5427 48.6059 57.016 48.008 56.3896 47.6094C55.7632 47.2108 55.0229 47.0115 54.1688 47.0115C53.0583 47.0115 52.1828 47.2677 51.5422 47.7802C50.9016 48.2927 50.5813 48.9903 50.5813 49.8729C50.5813 50.784 50.9514 51.5101 51.6917 52.051C52.4319 52.592 53.6278 53.2042 55.2792 53.8875C57.2438 54.7132 58.6389 55.5816 59.4646 56.4927C60.2903 57.4038 60.7031 58.5854 60.7031 60.0375C60.7031 61.4896 60.2191 62.6498 59.251 63.5182C58.283 64.3866 56.9306 64.9205 55.1938 65.1198V67.3406ZM47.4635 70.8214C49.542 71.7182 51.7486 72.1667 54.0833 72.1667C56.4465 72.1667 58.6674 71.7182 60.7458 70.8214C61.4102 70.5347 62.047 70.2145 62.6561 69.8609C61.6112 68.3351 61 66.4889 61 64.5C61 59.2533 65.2533 55 70.5 55C70.7241 55 70.9464 55.0078 71.1666 55.023C71.159 52.6823 70.7106 50.4816 69.8214 48.4208C68.9245 46.3424 67.7073 44.5344 66.1698 42.9969C64.6323 41.4594 62.8243 40.2422 60.7458 39.3453C58.6674 38.4484 56.4465 38 54.0833 38C51.7486 38 49.542 38.4484 47.4635 39.3453C45.3851 40.2422 43.57 41.4594 42.0182 42.9969C40.4665 44.5344 39.2422 46.3424 38.3453 48.4208C37.4484 50.4993 37 52.7201 37 55.0833C37 57.4181 37.4484 59.6247 38.3453 61.7031C39.2422 63.7816 40.4665 65.5967 42.0182 67.1484C43.57 68.7002 45.3851 69.9245 47.4635 70.8214Z" fill="url(#paint0_linear_343_1922)"/>
<path d="M70.7885 72.9925C69.6535 72.9925 68.5869 72.7771 67.5887 72.3464C66.5905 71.9156 65.7222 71.331 64.9838 70.5926C64.2453 69.8542 63.6608 68.9859 63.23 67.9877C62.7993 66.9895 62.5839 65.9229 62.5839 64.7879C62.5839 63.653 62.7993 62.5864 63.23 61.5881C63.6608 60.5899 64.2453 59.7216 64.9838 58.9832C65.7222 58.2448 66.5905 57.6602 67.5887 57.2295C68.5869 56.7987 69.6535 56.5834 70.7885 56.5834C71.9234 56.5834 72.99 56.7987 73.9882 57.2295C74.9865 57.6602 75.8548 58.2448 76.5932 58.9832C77.3316 59.7216 77.9162 60.5899 78.3469 61.5881C78.7776 62.5864 78.993 63.653 78.993 64.7879C78.993 65.9229 78.7776 66.9895 78.3469 67.9877C77.9162 68.9859 77.3316 69.8542 76.5932 70.5926C75.8548 71.331 74.9865 71.9156 73.9882 72.3464C72.99 72.7771 71.9234 72.9925 70.7885 72.9925ZM70.7885 71.7618C72.7353 71.7618 74.3844 71.0862 75.7356 69.735C77.0867 68.3838 77.7623 66.7348 77.7623 64.7879C77.7623 63.9584 77.6188 63.1596 77.3316 62.3916C77.0444 61.6235 76.641 60.9249 76.1214 60.2959L66.2965 70.1209C66.9118 70.6542 67.6057 71.061 68.3782 71.3413C69.1508 71.6216 69.9542 71.7618 70.7885 71.7618ZM65.476 69.2799L75.2805 59.4755C74.6514 58.9422 73.9529 58.532 73.1848 58.2448C72.4168 57.9576 71.618 57.8141 70.7885 57.8141C68.8416 57.8141 67.1926 58.4896 65.8414 59.8408C64.4902 61.192 63.8146 62.841 63.8146 64.7879C63.8146 65.6222 63.965 66.4256 64.2659 67.1981C64.5667 67.9706 64.9701 68.6646 65.476 69.2799Z" fill="white"/>
<path d="M109 58V57.67L116.1 45.86H109.5V43.6H120.27V43.94L113.21 55.73H120.1V58H109ZM122.662 58V43.6H131.962V45.86H125.072V49.41H130.762V51.67H125.072V55.74H131.962V58H122.662ZM134.361 58V43.6H140.311C140.451 43.6 140.631 43.6067 140.851 43.62C141.071 43.6267 141.274 43.6467 141.461 43.68C142.294 43.8067 142.981 44.0833 143.521 44.51C144.068 44.9367 144.471 45.4767 144.731 46.13C144.998 46.7767 145.131 47.4967 145.131 48.29C145.131 49.4633 144.834 50.4733 144.241 51.32C143.648 52.16 142.738 52.68 141.511 52.88L140.481 52.97H136.771V58H134.361ZM142.631 58L139.791 52.14L142.241 51.6L145.361 58H142.631ZM136.771 50.72H140.211C140.344 50.72 140.494 50.7133 140.661 50.7C140.828 50.6867 140.981 50.66 141.121 50.62C141.521 50.52 141.834 50.3433 142.061 50.09C142.294 49.8367 142.458 49.55 142.551 49.23C142.651 48.91 142.701 48.5967 142.701 48.29C142.701 47.9833 142.651 47.67 142.551 47.35C142.458 47.0233 142.294 46.7333 142.061 46.48C141.834 46.2267 141.521 46.05 141.121 45.95C140.981 45.91 140.828 45.8867 140.661 45.88C140.494 45.8667 140.344 45.86 140.211 45.86H136.771V50.72ZM153.654 58.3C152.214 58.3 150.981 57.9867 149.954 57.36C148.927 56.7267 148.137 55.8467 147.584 54.72C147.037 53.5933 146.764 52.2867 146.764 50.8C146.764 49.3133 147.037 48.0067 147.584 46.88C148.137 45.7533 148.927 44.8767 149.954 44.25C150.981 43.6167 152.214 43.3 153.654 43.3C155.094 43.3 156.327 43.6167 157.354 44.25C158.387 44.8767 159.177 45.7533 159.724 46.88C160.277 48.0067 160.554 49.3133 160.554 50.8C160.554 52.2867 160.277 53.5933 159.724 54.72C159.177 55.8467 158.387 56.7267 157.354 57.36C156.327 57.9867 155.094 58.3 153.654 58.3ZM153.654 56.03C154.621 56.0367 155.424 55.8233 156.064 55.39C156.711 54.9567 157.194 54.3467 157.514 53.56C157.841 52.7733 158.004 51.8533 158.004 50.8C158.004 49.7467 157.841 48.8333 157.514 48.06C157.194 47.28 156.711 46.6733 156.064 46.24C155.424 45.8067 154.621 45.5833 153.654 45.57C152.687 45.5633 151.884 45.7767 151.244 46.21C150.604 46.6433 150.121 47.2533 149.794 48.04C149.474 48.8267 149.314 49.7467 149.314 50.8C149.314 51.8533 149.474 52.77 149.794 53.55C150.114 54.3233 150.594 54.9267 151.234 55.36C151.881 55.7933 152.687 56.0167 153.654 56.03ZM171.398 58.3C170.405 58.3 169.565 58.05 168.878 57.55C168.192 57.0433 167.672 56.36 167.318 55.5C166.965 54.6333 166.788 53.6633 166.788 52.59C166.788 51.4967 166.965 50.5233 167.318 49.67C167.678 48.81 168.205 48.1333 168.898 47.64C169.592 47.1467 170.445 46.9 171.458 46.9C172.445 46.9 173.292 47.15 173.998 47.65C174.705 48.15 175.245 48.83 175.618 49.69C175.998 50.55 176.188 51.5167 176.188 52.59C176.188 53.67 175.998 54.64 175.618 55.5C175.238 56.36 174.692 57.0433 173.978 57.55C173.265 58.05 172.405 58.3 171.398 58.3ZM166.538 62.8V47.2H167.858V55.33H168.018V62.8H166.538ZM171.248 56.93C172.002 56.93 172.628 56.74 173.128 56.36C173.628 55.98 174.002 55.4633 174.248 54.81C174.502 54.15 174.628 53.41 174.628 52.59C174.628 51.7767 174.505 51.0433 174.258 50.39C174.012 49.7367 173.635 49.22 173.128 48.84C172.628 48.46 171.992 48.27 171.218 48.27C170.465 48.27 169.838 48.4533 169.338 48.82C168.845 49.1867 168.475 49.6967 168.228 50.35C167.982 50.9967 167.858 51.7433 167.858 52.59C167.858 53.4233 167.982 54.17 168.228 54.83C168.475 55.4833 168.848 55.9967 169.348 56.37C169.848 56.7433 170.482 56.93 171.248 56.93ZM178.584 58V43.3H180.054V58H178.584ZM186.142 58.3C185.329 58.3 184.646 58.1533 184.092 57.86C183.546 57.5667 183.136 57.1767 182.862 56.69C182.589 56.2033 182.452 55.6733 182.452 55.1C182.452 54.5133 182.569 54.0133 182.802 53.6C183.042 53.18 183.366 52.8367 183.772 52.57C184.186 52.3033 184.662 52.1 185.202 51.96C185.749 51.8267 186.352 51.71 187.012 51.61C187.679 51.5033 188.329 51.4133 188.962 51.34C189.602 51.26 190.162 51.1833 190.642 51.11L190.122 51.43C190.142 50.3633 189.936 49.5733 189.502 49.06C189.069 48.5467 188.316 48.29 187.242 48.29C186.502 48.29 185.876 48.4567 185.362 48.79C184.856 49.1233 184.499 49.65 184.292 50.37L182.862 49.95C183.109 48.9833 183.606 48.2333 184.352 47.7C185.099 47.1667 186.069 46.9 187.262 46.9C188.249 46.9 189.086 47.0867 189.772 47.46C190.466 47.8267 190.956 48.36 191.242 49.06C191.376 49.3733 191.462 49.7233 191.502 50.11C191.542 50.4967 191.562 50.89 191.562 51.29V58H190.252V55.29L190.632 55.45C190.266 56.3767 189.696 57.0833 188.922 57.57C188.149 58.0567 187.222 58.3 186.142 58.3ZM186.312 57.03C186.999 57.03 187.599 56.9067 188.112 56.66C188.626 56.4133 189.039 56.0767 189.352 55.65C189.666 55.2167 189.869 54.73 189.962 54.19C190.042 53.8433 190.086 53.4633 190.092 53.05C190.099 52.63 190.102 52.3167 190.102 52.11L190.662 52.4C190.162 52.4667 189.619 52.5333 189.032 52.6C188.452 52.6667 187.879 52.7433 187.312 52.83C186.752 52.9167 186.246 53.02 185.792 53.14C185.486 53.2267 185.189 53.35 184.902 53.51C184.616 53.6633 184.379 53.87 184.192 54.13C184.012 54.39 183.922 54.7133 183.922 55.1C183.922 55.4133 183.999 55.7167 184.152 56.01C184.312 56.3033 184.566 56.5467 184.912 56.74C185.266 56.9333 185.732 57.03 186.312 57.03ZM200.046 58C199.439 58.1267 198.839 58.1767 198.246 58.15C197.659 58.1233 197.132 57.9967 196.666 57.77C196.206 57.5433 195.856 57.19 195.616 56.71C195.422 56.31 195.316 55.9067 195.296 55.5C195.282 55.0867 195.276 54.6167 195.276 54.09V44.2H196.736V54.03C196.736 54.4833 196.739 54.8633 196.746 55.17C196.759 55.47 196.829 55.7367 196.956 55.97C197.196 56.4167 197.576 56.6833 198.096 56.77C198.622 56.8567 199.272 56.8367 200.046 56.71V58ZM192.966 48.46V47.2H200.046V48.46H192.966ZM203.243 58V46.4C203.243 46.12 203.257 45.8433 203.283 45.57C203.317 45.2967 203.38 45.0367 203.473 44.79C203.567 44.5367 203.713 44.3033 203.913 44.09C204.133 43.85 204.373 43.6767 204.633 43.57C204.893 43.4567 205.163 43.3833 205.443 43.35C205.73 43.3167 206.01 43.3 206.283 43.3H207.663V44.54H206.383C205.823 44.54 205.403 44.6767 205.123 44.95C204.85 45.2233 204.713 45.6533 204.713 46.24V58H203.243ZM201.373 48.46V47.2H207.663V48.46H201.373ZM213.383 58.3C212.309 58.3 211.393 58.0567 210.633 57.57C209.873 57.0833 209.289 56.41 208.883 55.55C208.476 54.69 208.273 53.7033 208.273 52.59C208.273 51.4567 208.479 50.4633 208.893 49.61C209.306 48.7567 209.893 48.0933 210.653 47.62C211.419 47.14 212.329 46.9 213.383 46.9C214.463 46.9 215.383 47.1433 216.143 47.63C216.909 48.11 217.493 48.78 217.893 49.64C218.299 50.4933 218.503 51.4767 218.503 52.59C218.503 53.7233 218.299 54.72 217.893 55.58C217.486 56.4333 216.899 57.1 216.133 57.58C215.366 58.06 214.449 58.3 213.383 58.3ZM213.383 56.89C214.583 56.89 215.476 56.4933 216.063 55.7C216.649 54.9 216.943 53.8633 216.943 52.59C216.943 51.2833 216.646 50.2433 216.053 49.47C215.466 48.6967 214.576 48.31 213.383 48.31C212.576 48.31 211.909 48.4933 211.383 48.86C210.863 49.22 210.473 49.7233 210.213 50.37C209.959 51.01 209.833 51.75 209.833 52.59C209.833 53.89 210.133 54.9333 210.733 55.72C211.333 56.5 212.216 56.89 213.383 56.89ZM220.709 58V47.2H222.029V49.8L221.769 49.46C221.889 49.14 222.045 48.8467 222.239 48.58C222.432 48.3067 222.642 48.0833 222.869 47.91C223.149 47.6633 223.475 47.4767 223.849 47.35C224.222 47.2167 224.599 47.14 224.979 47.12C225.359 47.0933 225.705 47.12 226.019 47.2V48.58C225.625 48.48 225.195 48.4567 224.729 48.51C224.262 48.5633 223.832 48.75 223.439 49.07C223.079 49.35 222.809 49.6867 222.629 50.08C222.449 50.4667 222.329 50.88 222.269 51.32C222.209 51.7533 222.179 52.1833 222.179 52.61V58H220.709ZM240.796 58L240.806 50.91C240.806 50.0767 240.572 49.4233 240.106 48.95C239.646 48.47 239.059 48.23 238.346 48.23C237.939 48.23 237.542 48.3233 237.156 48.51C236.769 48.6967 236.449 48.9967 236.196 49.41C235.949 49.8233 235.826 50.3633 235.826 51.03L234.956 50.78C234.936 50.0067 235.086 49.33 235.406 48.75C235.732 48.17 236.179 47.72 236.746 47.4C237.319 47.0733 237.966 46.91 238.686 46.91C239.772 46.91 240.642 47.2467 241.296 47.92C241.949 48.5867 242.276 49.49 242.276 50.63L242.266 58H240.796ZM227.906 58V47.2H229.226V49.86H229.386V58H227.906ZM234.366 58L234.376 51.01C234.376 50.15 234.146 49.4733 233.686 48.98C233.232 48.48 232.632 48.23 231.886 48.23C231.139 48.23 230.536 48.4867 230.076 49C229.616 49.5067 229.386 50.1833 229.386 51.03L228.506 50.55C228.506 49.8567 228.669 49.2367 228.996 48.69C229.322 48.1367 229.769 47.7033 230.336 47.39C230.902 47.07 231.546 46.91 232.266 46.91C232.952 46.91 233.562 47.0567 234.096 47.35C234.636 47.6433 235.059 48.07 235.366 48.63C235.672 49.19 235.826 49.87 235.826 50.67L235.816 58H234.366ZM110.47 86V74.4C110.47 74.12 110.483 73.8433 110.51 73.57C110.543 73.2967 110.607 73.0367 110.7 72.79C110.793 72.5367 110.94 72.3033 111.14 72.09C111.36 71.85 111.6 71.6767 111.86 71.57C112.12 71.4567 112.39 71.3833 112.67 71.35C112.957 71.3167 113.237 71.3 113.51 71.3H114.89V72.54H113.61C113.05 72.54 112.63 72.6767 112.35 72.95C112.077 73.2233 111.94 73.6533 111.94 74.24V86H110.47ZM108.6 76.46V75.2H114.89V76.46H108.6ZM120.669 86.3C119.616 86.3 118.703 86.0667 117.929 85.6C117.163 85.1333 116.566 84.4767 116.139 83.63C115.713 82.7833 115.499 81.79 115.499 80.65C115.499 79.47 115.709 78.45 116.129 77.59C116.549 76.73 117.139 76.0667 117.899 75.6C118.666 75.1333 119.569 74.9 120.609 74.9C121.676 74.9 122.586 75.1467 123.339 75.64C124.093 76.1267 124.663 76.8267 125.049 77.74C125.436 78.6533 125.613 79.7433 125.579 81.01H124.079V80.49C124.053 79.09 123.749 78.0333 123.169 77.32C122.596 76.6067 121.756 76.25 120.649 76.25C119.489 76.25 118.599 76.6267 117.979 77.38C117.366 78.1333 117.059 79.2067 117.059 80.6C117.059 81.96 117.366 83.0167 117.979 83.77C118.599 84.5167 119.476 84.89 120.609 84.89C121.383 84.89 122.056 84.7133 122.629 84.36C123.209 84 123.666 83.4833 123.999 82.81L125.369 83.34C124.943 84.28 124.313 85.01 123.479 85.53C122.653 86.0433 121.716 86.3 120.669 86.3ZM116.539 81.01V79.78H124.789V81.01H116.539ZM132.368 86.3C131.315 86.3 130.402 86.0667 129.628 85.6C128.862 85.1333 128.265 84.4767 127.838 83.63C127.412 82.7833 127.198 81.79 127.198 80.65C127.198 79.47 127.408 78.45 127.828 77.59C128.248 76.73 128.838 76.0667 129.598 75.6C130.365 75.1333 131.268 74.9 132.308 74.9C133.375 74.9 134.285 75.1467 135.038 75.64C135.792 76.1267 136.362 76.8267 136.748 77.74C137.135 78.6533 137.312 79.7433 137.278 81.01H135.778V80.49C135.752 79.09 135.448 78.0333 134.868 77.32C134.295 76.6067 133.455 76.25 132.348 76.25C131.188 76.25 130.298 76.6267 129.678 77.38C129.065 78.1333 128.758 79.2067 128.758 80.6C128.758 81.96 129.065 83.0167 129.678 83.77C130.298 84.5167 131.175 84.89 132.308 84.89C133.082 84.89 133.755 84.7133 134.328 84.36C134.908 84 135.365 83.4833 135.698 82.81L137.068 83.34C136.642 84.28 136.012 85.01 135.178 85.53C134.352 86.0433 133.415 86.3 132.368 86.3ZM128.238 81.01V79.78H136.488V81.01H128.238ZM143.528 86.29C142.261 86.29 141.218 86.0167 140.398 85.47C139.584 84.9233 139.084 84.1633 138.898 83.19L140.398 82.94C140.558 83.5533 140.921 84.0433 141.488 84.41C142.061 84.77 142.768 84.95 143.608 84.95C144.428 84.95 145.074 84.78 145.548 84.44C146.021 84.0933 146.258 83.6233 146.258 83.03C146.258 82.6967 146.181 82.4267 146.028 82.22C145.881 82.0067 145.578 81.81 145.118 81.63C144.658 81.45 143.971 81.2367 143.058 80.99C142.078 80.7233 141.311 80.4567 140.758 80.19C140.204 79.9233 139.811 79.6167 139.578 79.27C139.344 78.9167 139.228 78.4867 139.228 77.98C139.228 77.3667 139.401 76.83 139.748 76.37C140.094 75.9033 140.574 75.5433 141.188 75.29C141.801 75.03 142.514 74.9 143.328 74.9C144.141 74.9 144.868 75.0333 145.508 75.3C146.154 75.56 146.674 75.9267 147.068 76.4C147.461 76.8733 147.694 77.4233 147.768 78.05L146.268 78.32C146.168 77.6867 145.851 77.1867 145.318 76.82C144.791 76.4467 144.121 76.2533 143.308 76.24C142.541 76.22 141.918 76.3667 141.438 76.68C140.958 76.9867 140.718 77.3967 140.718 77.91C140.718 78.1967 140.804 78.4433 140.978 78.65C141.151 78.85 141.464 79.04 141.918 79.22C142.378 79.4 143.031 79.5967 143.878 79.81C144.871 80.0633 145.651 80.33 146.218 80.61C146.784 80.89 147.188 81.22 147.428 81.6C147.668 81.98 147.788 82.45 147.788 83.01C147.788 84.03 147.408 84.8333 146.648 85.42C145.894 86 144.854 86.29 143.528 86.29ZM150.285 86V84.29H151.995V86H150.285Z" fill="#F3F5F7"/>
<g filter="url(#filter1_f_343_1922)">
<ellipse cx="11.9617" cy="117.057" rx="16.9617" ry="16.6107" fill="#00C2FF" fill-opacity="0.5"/>
<ellipse cx="22.0379" cy="100.611" rx="16.9617" ry="16.6107" fill="#C4C4C4" fill-opacity="0.5"/>
<ellipse cx="22.0379" cy="100.611" rx="16.9617" ry="16.6107" fill="#00A3FF" fill-opacity="0.5"/>
<ellipse cx="20.4889" cy="103.352" rx="16.9617" ry="16.6107" fill="#00FF66" fill-opacity="0.4"/>
</g>
</g>
<rect x="0.5" y="0.5" width="305" height="117" rx="9.5" stroke="#32323B"/>
<defs>
<filter id="filter0_f_343_1922" x="-240" y="-203" width="1233" height="1263.01" filterUnits="userSpaceOnUse" color-interpolation-filters="sRGB">
<feFlood flood-opacity="0" result="BackgroundImageFix"/>
<feBlend mode="normal" in="SourceGraphic" in2="BackgroundImageFix" result="shape"/>
<feGaussianBlur stdDeviation="250" result="effect1_foregroundBlur_343_1922"/>
</filter>
<filter id="filter1_f_343_1922" x="-99.4199" y="-10.4199" width="232.839" height="238.507" filterUnits="userSpaceOnUse" color-interpolation-filters="sRGB">
<feFlood flood-opacity="0" result="BackgroundImageFix"/>
<feBlend mode="normal" in="SourceGraphic" in2="BackgroundImageFix" result="shape"/>
<feGaussianBlur stdDeviation="47.2099" result="effect1_foregroundBlur_343_1922"/>
</filter>
<linearGradient id="paint0_linear_343_1922" x1="49.0833" y1="33" x2="49.0833" y2="67.1667" gradientUnits="userSpaceOnUse">
<stop stop-color="#3F8FE3"/>
<stop offset="0.0364583" stop-color="#3D8CE5"/>
<stop offset="1" stop-color="#80F5AE"/>
</linearGradient>
<clipPath id="clip0_343_1922">
<rect width="306" height="118" rx="10" fill="white"/>
</clipPath>
</defs>
</svg>
