<svg width="91" height="92" viewBox="0 0 91 92" fill="none" xmlns="http://www.w3.org/2000/svg">
<g clip-path="url(#clip0_4_25377)">
<path d="M22.8966 45.7931C35.542 45.7931 45.7931 35.542 45.7931 22.8966C45.7931 10.2511 35.542 0 22.8966 0C10.2511 0 0 10.2511 0 22.8966C0 35.542 10.2511 45.7931 22.8966 45.7931Z" fill="url(#paint0_linear_4_25377)"/>
<path d="M22.6903 34.5955C29.2083 34.5955 34.492 29.2536 34.492 22.6642C34.492 16.0747 29.2083 10.7328 22.6903 10.7328C16.1725 10.7328 10.8887 16.0747 10.8887 22.6642C10.8887 29.2536 16.1725 34.5955 22.6903 34.5955Z" stroke="white" stroke-width="2.86207"/>
<path d="M28.0083 32.6822V22.5746L9.53906 37.6919" stroke="white" stroke-width="2.86207" stroke-linecap="round" stroke-linejoin="round"/>
<path d="M17.373 12.6436V22.7512L35.8422 7.63379" stroke="white" stroke-width="2.86207" stroke-linecap="round" stroke-linejoin="round"/>
</g>
<g clip-path="url(#clip1_4_25377)">
<path d="M10.964 68.9338L6.6483 75.2535H11.1675V77.8634H3.12659V76.0084L7.42186 69.6887H3.33015V67.0787H10.964V68.9338Z" fill="white"/>
<path d="M22.3525 73.6143H14.678C15.0172 74.966 15.974 75.6418 17.5483 75.6418C18.5525 75.6418 19.3126 75.2823 19.8282 74.5633L21.9453 75.8575C20.9411 77.3961 19.4619 78.1654 17.5076 78.1654C15.8248 78.1654 14.4744 77.6262 13.4565 76.5477C12.4387 75.4692 11.9298 74.1104 11.9298 72.4711C11.9298 70.8606 12.432 69.509 13.4362 68.4161C14.4269 67.3233 15.7161 66.7769 17.304 66.7769C18.8104 66.7769 20.0386 67.3233 20.9886 68.4161C21.9657 69.509 22.4543 70.8606 22.4543 72.4711C22.4543 72.7731 22.4204 73.1542 22.3525 73.6143ZM14.6373 71.4574H19.8282C19.6789 70.7528 19.3736 70.2136 18.9122 69.8397C18.4644 69.4659 17.9283 69.2789 17.304 69.2789C16.5983 69.2789 16.0147 69.473 15.5533 69.8613C15.0919 70.2352 14.7866 70.7672 14.6373 71.4574Z" fill="white"/>
<path d="M26.9123 67.0787V68.9338C27.1429 68.2579 27.5366 67.7474 28.093 67.4023C28.6494 67.0428 29.2872 66.863 30.0065 66.863V69.969C29.2058 69.854 28.4865 70.0266 27.8486 70.4867C27.2244 70.9325 26.9123 71.673 26.9123 72.7083V77.8634H24.2863V67.0787H26.9123Z" fill="white"/>
<path d="M39.8365 76.5261C38.805 77.619 37.5293 78.1654 36.0094 78.1654C34.4893 78.1654 33.2136 77.619 32.1823 76.5261C31.1508 75.4333 30.6351 74.0816 30.6351 72.4711C30.6351 70.875 31.1508 69.5305 32.1823 68.4377C33.2272 67.3305 34.5029 66.7769 36.0094 66.7769C37.5157 66.7769 38.7914 67.3305 39.8365 68.4377C40.8814 69.5449 41.4039 70.8894 41.4039 72.4711C41.4039 74.0672 40.8814 75.4189 39.8365 76.5261ZM34.0347 74.6065C34.564 75.1673 35.2222 75.4477 36.0094 75.4477C36.7964 75.4477 37.4547 75.1673 37.984 74.6065C38.5132 74.0457 38.7778 73.3339 38.7778 72.4711C38.7778 71.6083 38.5132 70.8966 37.984 70.3358C37.4547 69.775 36.7964 69.4946 36.0094 69.4946C35.2222 69.4946 34.564 69.775 34.0347 70.3358C33.519 70.911 33.2611 71.6227 33.2611 72.4711C33.2611 73.3195 33.519 74.0313 34.0347 74.6065Z" fill="white"/>
<path d="M45.4557 70.1417C45.4557 70.6018 46.0732 70.9972 47.3082 71.328C47.7425 71.4286 48.136 71.5508 48.4889 71.6947C48.8417 71.824 49.1946 72.0182 49.5474 72.277C49.9139 72.5215 50.1989 72.8521 50.4026 73.2692C50.6064 73.6862 50.7079 74.1679 50.7079 74.7143C50.7079 75.8215 50.3138 76.6772 49.527 77.281C48.74 77.8706 47.7696 78.1654 46.6161 78.1654C44.5261 78.1654 43.1011 77.3098 42.3411 75.5987L44.6211 74.2398C44.9332 75.1744 45.5982 75.6418 46.6161 75.6418C47.5524 75.6418 48.0207 75.3326 48.0207 74.7143C48.0207 74.2542 47.4032 73.8588 46.1682 73.528C45.7068 73.3986 45.3132 73.2692 44.9876 73.1398C44.6618 73.0104 44.3089 72.8234 43.929 72.579C43.549 72.3201 43.2572 71.9966 43.0536 71.6083C42.8637 71.2057 42.7686 70.7384 42.7686 70.2063C42.7686 69.1423 43.1351 68.3083 43.8679 67.7043C44.6143 67.086 45.5372 66.7769 46.6364 66.7769C47.4643 66.7769 48.2175 66.9781 48.896 67.3808C49.5746 67.769 50.1106 68.3299 50.5041 69.0632L48.2649 70.3574C47.9393 69.624 47.3965 69.2573 46.6364 69.2573C46.2971 69.2573 46.0121 69.3436 45.7814 69.5161C45.5643 69.6743 45.4557 69.8828 45.4557 70.1417Z" fill="white"/>
<path d="M61.8289 73.7221L63.5591 67.0787H66.3484L63.1116 77.8634H60.6077L58.7352 71.3279L56.8618 77.8634H54.3578L51.121 67.0787H53.9103L55.6406 73.7006L57.4932 67.0787H59.9763L61.8289 73.7221Z" fill="white"/>
<path d="M75.1006 68.3514V67.0788H77.7268V77.8634H75.1006V76.5908C74.3143 77.6406 73.2081 78.1654 71.7832 78.1654C70.4261 78.1654 69.2584 77.619 68.2818 76.5261C67.3179 75.4189 66.836 74.0672 66.836 72.4711C66.836 70.8894 67.3179 69.5449 68.2818 68.4377C69.2584 67.3305 70.4261 66.7769 71.7832 66.7769C73.2081 66.7769 74.3143 67.3017 75.1006 68.3514ZM70.2558 74.6712C70.7857 75.232 71.457 75.5124 72.2714 75.5124C73.0859 75.5124 73.7571 75.232 74.2871 74.6712C74.8297 74.096 75.1006 73.3626 75.1006 72.4711C75.1006 71.5796 74.8297 70.8534 74.2871 70.2927C73.7571 69.7174 73.0859 69.4299 72.2714 69.4299C71.457 69.4299 70.7857 69.7174 70.2558 70.2927C69.7267 70.8534 69.4622 71.5796 69.4622 72.4711C69.4622 73.3626 69.7267 74.096 70.2558 74.6712Z" fill="white"/>
<path d="M86.034 66.7769C87.4047 66.7769 88.5715 67.3305 89.5354 68.4377C90.5128 69.5449 91.0011 70.8894 91.0011 72.4711C91.0011 74.0816 90.5128 75.4333 89.5354 76.5261C88.5851 77.619 87.4182 78.1654 86.034 78.1654C84.609 78.1654 83.5102 77.6406 82.7365 76.5908V82.1773H80.1103V67.0788H82.7365V68.3514C83.5102 67.3017 84.609 66.7769 86.034 66.7769ZM83.5301 74.6712C84.0591 75.232 84.7313 75.5124 85.5457 75.5124C86.3601 75.5124 87.0314 75.232 87.5605 74.6712C88.104 74.096 88.3749 73.3626 88.3749 72.4711C88.3749 71.5796 88.104 70.8534 87.5605 70.2927C87.0314 69.7174 86.3601 69.4299 85.5457 69.4299C84.7313 69.4299 84.0591 69.7174 83.5301 70.2927C83.001 70.8534 82.7365 71.5796 82.7365 72.4711C82.7365 73.3626 83.001 74.096 83.5301 74.6712Z" fill="white"/>
</g>
<defs>
<linearGradient id="paint0_linear_4_25377" x1="0" y1="0" x2="49.8855" y2="5.0052" gradientUnits="userSpaceOnUse">
<stop stop-color="#087EE1"/>
<stop offset="1" stop-color="#04C29C"/>
</linearGradient>
<clipPath id="clip0_4_25377">
<rect width="46" height="46" fill="white"/>
</clipPath>
<clipPath id="clip1_4_25377">
<rect width="91" height="36.4" fill="white" transform="translate(0 55)"/>
</clipPath>
</defs>
</svg>
