<svg width="136" height="184" viewBox="0 0 136 184" fill="none" xmlns="http://www.w3.org/2000/svg">
<g opacity="0.6">
<path d="M2.20711 31C1.76165 31 1.53857 30.4614 1.85355 30.1464L31.1464 0.853556C31.4614 0.538573 32 0.761656 32 1.20711L32 30.5C32 30.7761 31.7761 31 31.5 31L2.20711 31Z" fill="url(#paint0_linear_456_116)"/>
<path d="M106.207 31C105.762 31 105.539 30.4614 105.854 30.1464L135.146 0.853556C135.461 0.538573 136 0.761656 136 1.20711L136 30.5C136 30.7761 135.776 31 135.5 31L106.207 31Z" fill="url(#paint1_linear_456_116)"/>
<path d="M38.2071 31C37.7617 31 37.5386 30.4614 37.8536 30.1464L67.1464 0.853556C67.4614 0.538573 68 0.761656 68 1.20711L68 30.5C68 30.7761 67.7761 31 67.5 31L38.2071 31Z" fill="url(#paint2_linear_456_116)"/>
<path d="M72.2071 70C71.7617 70 71.5386 69.4614 71.8536 69.1464L101.146 39.8536C101.461 39.5386 102 39.7617 102 40.2071L102 69.5C102 69.7761 101.776 70 101.5 70L72.2071 70Z" fill="url(#paint3_linear_456_116)"/>
<path d="M100.793 31C101.238 31 101.461 30.4614 101.146 30.1464L71.8536 0.853555C71.5386 0.538572 71 0.761655 71 1.20711L71 30.5C71 30.7761 71.2239 31 71.5 31L100.793 31Z" fill="url(#paint4_linear_456_116)"/>
<path d="M134.793 70C135.238 70 135.461 69.4614 135.146 69.1464L105.854 39.8536C105.539 39.5386 105 39.7617 105 40.2071L105 69.5C105 69.7761 105.224 70 105.5 70L134.793 70Z" fill="url(#paint5_linear_456_116)"/>
<path d="M38.2664 34C37.8129 34 37.5936 34.5553 37.9248 34.8651L67.1584 62.2127C67.4779 62.5116 68 62.285 68 61.8476L68 34.5C68 34.2239 67.7762 34 67.5 34L38.2664 34Z" fill="url(#paint6_linear_456_116)"/>
<path d="M72.2664 73C71.8129 73 71.5936 73.5553 71.9248 73.8651L101.158 101.213C101.478 101.512 102 101.285 102 100.848L102 73.5C102 73.2239 101.776 73 101.5 73L72.2664 73Z" fill="url(#paint7_linear_456_116)"/>
<path d="M2.26638 34C1.81285 34 1.5936 34.5553 1.9248 34.8651L31.1584 62.2127C31.4779 62.5116 32 62.285 32 61.8476L32 34.5C32 34.2239 31.7762 34 31.5 34L2.26638 34Z" fill="url(#paint8_linear_456_116)"/>
<path d="M106.266 34C105.813 34 105.594 34.5553 105.925 34.8651L135.158 62.2127C135.478 62.5116 136 62.285 136 61.8476L136 34.5C136 34.2239 135.776 34 135.5 34L106.266 34Z" fill="url(#paint9_linear_456_116)"/>
<path d="M100.734 34C101.187 34 101.406 34.5553 101.075 34.8651L71.8416 62.2127C71.5221 62.5116 71 62.285 71 61.8476L71 34.5C71 34.2239 71.2239 34 71.5 34L100.734 34Z" fill="url(#paint10_linear_456_116)"/>
<path d="M134.734 73C135.187 73 135.406 73.5553 135.075 73.8651L105.842 101.213C105.522 101.512 105 101.285 105 100.848L105 73.5C105 73.2239 105.224 73 105.5 73L134.734 73Z" fill="url(#paint11_linear_456_116)"/>
</g>
<g opacity="0.6">
<path d="M1.20711 113C0.761655 113 0.538571 112.461 0.853554 112.146L30.1464 82.8536C30.4614 82.5386 31 82.7617 31 83.2071L31 112.5C31 112.776 30.7761 113 30.5 113L1.20711 113Z" fill="url(#paint12_linear_456_116)"/>
<path d="M105.207 113C104.762 113 104.539 112.461 104.854 112.146L134.146 82.8536C134.461 82.5386 135 82.7617 135 83.2071L135 112.5C135 112.776 134.776 113 134.5 113L105.207 113Z" fill="url(#paint13_linear_456_116)"/>
<path d="M37.2071 113C36.7617 113 36.5386 112.461 36.8536 112.146L66.1464 82.8536C66.4614 82.5386 67 82.7617 67 83.2071L67 112.5C67 112.776 66.7761 113 66.5 113L37.2071 113Z" fill="url(#paint14_linear_456_116)"/>
<path d="M71.2071 152C70.7617 152 70.5386 151.461 70.8536 151.146L100.146 121.854C100.461 121.539 101 121.762 101 122.207L101 151.5C101 151.776 100.776 152 100.5 152L71.2071 152Z" fill="url(#paint15_linear_456_116)"/>
<path d="M99.7929 113C100.238 113 100.461 112.461 100.146 112.146L70.8536 82.8536C70.5386 82.5386 70 82.7617 70 83.2071L70 112.5C70 112.776 70.2239 113 70.5 113L99.7929 113Z" fill="url(#paint16_linear_456_116)"/>
<path d="M133.793 152C134.238 152 134.461 151.461 134.146 151.146L104.854 121.854C104.539 121.539 104 121.762 104 122.207L104 151.5C104 151.776 104.224 152 104.5 152L133.793 152Z" fill="url(#paint17_linear_456_116)"/>
<path d="M37.2664 116C36.8129 116 36.5936 116.555 36.9248 116.865L66.1584 144.213C66.4779 144.512 67 144.285 67 143.848L67 116.5C67 116.224 66.7762 116 66.5 116L37.2664 116Z" fill="url(#paint18_linear_456_116)"/>
<path d="M71.2664 155C70.8129 155 70.5936 155.555 70.9248 155.865L100.158 183.213C100.478 183.512 101 183.285 101 182.848L101 155.5C101 155.224 100.776 155 100.5 155L71.2664 155Z" fill="url(#paint19_linear_456_116)"/>
<path d="M1.26638 116C0.812851 116 0.5936 116.555 0.924801 116.865L30.1584 144.213C30.4779 144.512 31 144.285 31 143.848L31 116.5C31 116.224 30.7762 116 30.5 116L1.26638 116Z" fill="url(#paint20_linear_456_116)"/>
<path d="M105.266 116C104.813 116 104.594 116.555 104.925 116.865L134.158 144.213C134.478 144.512 135 144.285 135 143.848L135 116.5C135 116.224 134.776 116 134.5 116L105.266 116Z" fill="url(#paint21_linear_456_116)"/>
<path d="M99.7336 116C100.187 116 100.406 116.555 100.075 116.865L70.8416 144.213C70.5221 144.512 70 144.285 70 143.848L70 116.5C70 116.224 70.2239 116 70.5 116L99.7336 116Z" fill="url(#paint22_linear_456_116)"/>
<path d="M133.734 155C134.187 155 134.406 155.555 134.075 155.865L104.842 183.213C104.522 183.512 104 183.285 104 182.848L104 155.5C104 155.224 104.224 155 104.5 155L133.734 155Z" fill="url(#paint23_linear_456_116)"/>
</g>
<defs>
<linearGradient id="paint0_linear_456_116" x1="0.999999" y1="15.5" x2="32" y2="15.5" gradientUnits="userSpaceOnUse">
<stop stop-color="#1E2429"/>
<stop offset="1" stop-color="#153249"/>
</linearGradient>
<linearGradient id="paint1_linear_456_116" x1="105" y1="15.5" x2="136" y2="15.5" gradientUnits="userSpaceOnUse">
<stop stop-color="#1E2429"/>
<stop offset="1" stop-color="#153249"/>
</linearGradient>
<linearGradient id="paint2_linear_456_116" x1="37" y1="15.5" x2="68" y2="15.5" gradientUnits="userSpaceOnUse">
<stop stop-color="#1E2429"/>
<stop offset="1" stop-color="#153249"/>
</linearGradient>
<linearGradient id="paint3_linear_456_116" x1="71" y1="54.5" x2="102" y2="54.5" gradientUnits="userSpaceOnUse">
<stop stop-color="#1E2429"/>
<stop offset="1" stop-color="#153249"/>
</linearGradient>
<linearGradient id="paint4_linear_456_116" x1="102" y1="15.5" x2="71" y2="15.5" gradientUnits="userSpaceOnUse">
<stop stop-color="#1E2429"/>
<stop offset="1" stop-color="#153249"/>
</linearGradient>
<linearGradient id="paint5_linear_456_116" x1="136" y1="54.5" x2="105" y2="54.5" gradientUnits="userSpaceOnUse">
<stop stop-color="#1E2429"/>
<stop offset="1" stop-color="#153249"/>
</linearGradient>
<linearGradient id="paint6_linear_456_116" x1="37" y1="48.5" x2="68" y2="48.5" gradientUnits="userSpaceOnUse">
<stop stop-color="#1E2429"/>
<stop offset="1" stop-color="#153249"/>
</linearGradient>
<linearGradient id="paint7_linear_456_116" x1="71" y1="87.5" x2="102" y2="87.5" gradientUnits="userSpaceOnUse">
<stop stop-color="#1E2429"/>
<stop offset="1" stop-color="#153249"/>
</linearGradient>
<linearGradient id="paint8_linear_456_116" x1="0.999993" y1="48.5" x2="32" y2="48.5" gradientUnits="userSpaceOnUse">
<stop stop-color="#1E2429"/>
<stop offset="1" stop-color="#153249"/>
</linearGradient>
<linearGradient id="paint9_linear_456_116" x1="105" y1="48.5" x2="136" y2="48.5" gradientUnits="userSpaceOnUse">
<stop stop-color="#1E2429"/>
<stop offset="1" stop-color="#153249"/>
</linearGradient>
<linearGradient id="paint10_linear_456_116" x1="102" y1="48.5" x2="71" y2="48.5" gradientUnits="userSpaceOnUse">
<stop stop-color="#1E2429"/>
<stop offset="1" stop-color="#153249"/>
</linearGradient>
<linearGradient id="paint11_linear_456_116" x1="136" y1="87.5" x2="105" y2="87.5" gradientUnits="userSpaceOnUse">
<stop stop-color="#1E2429"/>
<stop offset="1" stop-color="#153249"/>
</linearGradient>
<linearGradient id="paint12_linear_456_116" x1="-6.77526e-07" y1="97.5" x2="31" y2="97.5" gradientUnits="userSpaceOnUse">
<stop stop-color="#1E2429"/>
<stop offset="1" stop-color="#153249"/>
</linearGradient>
<linearGradient id="paint13_linear_456_116" x1="104" y1="97.5" x2="135" y2="97.5" gradientUnits="userSpaceOnUse">
<stop stop-color="#1E2429"/>
<stop offset="1" stop-color="#153249"/>
</linearGradient>
<linearGradient id="paint14_linear_456_116" x1="36" y1="97.5" x2="67" y2="97.5" gradientUnits="userSpaceOnUse">
<stop stop-color="#1E2429"/>
<stop offset="1" stop-color="#153249"/>
</linearGradient>
<linearGradient id="paint15_linear_456_116" x1="70" y1="136.5" x2="101" y2="136.5" gradientUnits="userSpaceOnUse">
<stop stop-color="#1E2429"/>
<stop offset="1" stop-color="#153249"/>
</linearGradient>
<linearGradient id="paint16_linear_456_116" x1="101" y1="97.5" x2="70" y2="97.5" gradientUnits="userSpaceOnUse">
<stop stop-color="#1E2429"/>
<stop offset="1" stop-color="#153249"/>
</linearGradient>
<linearGradient id="paint17_linear_456_116" x1="135" y1="136.5" x2="104" y2="136.5" gradientUnits="userSpaceOnUse">
<stop stop-color="#1E2429"/>
<stop offset="1" stop-color="#153249"/>
</linearGradient>
<linearGradient id="paint18_linear_456_116" x1="36" y1="130.5" x2="67" y2="130.5" gradientUnits="userSpaceOnUse">
<stop stop-color="#1E2429"/>
<stop offset="1" stop-color="#153249"/>
</linearGradient>
<linearGradient id="paint19_linear_456_116" x1="70" y1="169.5" x2="101" y2="169.5" gradientUnits="userSpaceOnUse">
<stop stop-color="#1E2429"/>
<stop offset="1" stop-color="#153249"/>
</linearGradient>
<linearGradient id="paint20_linear_456_116" x1="-6.54942e-06" y1="130.5" x2="31" y2="130.5" gradientUnits="userSpaceOnUse">
<stop stop-color="#1E2429"/>
<stop offset="1" stop-color="#153249"/>
</linearGradient>
<linearGradient id="paint21_linear_456_116" x1="104" y1="130.5" x2="135" y2="130.5" gradientUnits="userSpaceOnUse">
<stop stop-color="#1E2429"/>
<stop offset="1" stop-color="#153249"/>
</linearGradient>
<linearGradient id="paint22_linear_456_116" x1="101" y1="130.5" x2="70" y2="130.5" gradientUnits="userSpaceOnUse">
<stop stop-color="#1E2429"/>
<stop offset="1" stop-color="#153249"/>
</linearGradient>
<linearGradient id="paint23_linear_456_116" x1="135" y1="169.5" x2="104" y2="169.5" gradientUnits="userSpaceOnUse">
<stop stop-color="#1E2429"/>
<stop offset="1" stop-color="#153249"/>
</linearGradient>
</defs>
</svg>
