<svg width="85" height="33" viewBox="0 0 85 33" fill="none" xmlns="http://www.w3.org/2000/svg">
<path d="M9.80969 9.91827L12.0292 9.90082C14.2749 9.88338 16.3549 11.0629 17.493 12.9968C18.0708 13.9779 18.3608 15.0812 18.3608 16.18C18.3608 17.2789 18.0882 18.3167 17.5432 19.2782C16.4378 21.2274 14.373 22.444 12.1317 22.4614L10.0037 22.4789H5.05668L4.69911 25.7384L5.70641 27.4412L8.20282 27.4194L12.1709 27.3867C16.1739 27.354 19.8564 25.1846 21.8296 21.7049C23.8027 18.223 23.7657 13.9496 21.7358 10.5004C20.7307 8.78888 19.307 7.4044 17.6391 6.45379C16.8869 6.01992 16.0802 5.67761 15.2429 5.43124C14.2291 5.13254 13.1651 4.97339 12.0815 4.97339H11.9878L5.52108 5.0279L4.35681 8.11081L5.94623 9.92045H8.39905L8.40559 9.93135L9.79007 9.92045H9.80969V9.91827Z" fill="url(#paint0_linear_1852_14397)"/>
<path d="M9.21431 11.3093C10.9869 14.3225 11.0174 18.0551 9.29498 21.0966L8.50572 22.4898L5.70405 27.439H5.6997L2.81518 22.5356H2.81954L5.6212 17.5907C6.09868 16.747 6.08997 15.7135 5.59722 14.8784L2.71707 9.975H2.71271L5.51873 5.02576L8.40324 9.92921L9.21431 11.3093Z" fill="url(#paint1_linear_1852_14397)"/>
<path d="M23.8353 10.2192H32.7701L23.4058 26.8352V26.9725H41.2078V22.0756H32.1007L41.3124 5.50983V5.37247H23.8353V10.2192ZM50.2843 5.37465L42.0363 26.9747H47.6396L49.1505 22.782H49.1745L50.873 18.1424L53.0881 12.0594L55.3055 18.1424L58.5519 26.9747H64.2926L56.0446 5.37465H50.2865H50.2843ZM80.37 7.33036C78.9441 6.02655 77.0407 5.37465 74.6576 5.37465H65.1887V26.9747H70.792V20.2551H74.6598C77.0407 20.2551 78.9463 19.6053 80.3722 18.3081C81.8003 17.0065 82.5132 15.1816 82.5132 12.8356C82.5132 10.4896 81.8003 8.64071 80.3722 7.33472L80.37 7.33036ZM74.0559 15.5304H70.792V10.1168H74.0559C76.0269 10.1168 77.0124 11.0194 77.0124 12.8312C77.0124 14.643 76.0269 15.5282 74.0559 15.5282V15.5304Z" fill="#41907B"/>
<defs>
<linearGradient id="paint0_linear_1852_14397" x1="18.6965" y1="26.242" x2="6.90774" y2="8.9524" gradientUnits="userSpaceOnUse">
<stop stop-color="#002A25"/>
<stop offset="1" stop-color="#82F4CF"/>
</linearGradient>
<linearGradient id="paint1_linear_1852_14397" x1="6.02892" y1="7.02507" x2="7.07763" y2="26.41" gradientUnits="userSpaceOnUse">
<stop stop-color="#002A25"/>
<stop offset="1" stop-color="#82F4CF"/>
</linearGradient>
</defs>
</svg>
